<svg width="1921" height="1668" viewBox="0 0 1921 1668" fill="none" xmlns="http://www.w3.org/2000/svg">
<path d="M1886.33 403.736H1617C1617 394.193 1630.39 392.725 1635.9 395.661C1636.69 391.257 1647.71 389.789 1656.38 392.725C1663.46 381.714 1680 385.384 1689.45 388.321C1684.73 326.659 1772.93 335.468 1772.93 369.235C1799.71 356.756 1816.24 378.778 1811.52 389.789C1824.91 386.852 1834.36 391.257 1840.66 395.661C1846.17 391.257 1861.13 392.725 1865.86 397.863C1874.05 393.165 1882.92 399.821 1886.33 403.736Z" fill="#F8CB96"/>
<path d="M1904.1 1088.42H1599C1599 1076.9 1614.17 1075.13 1620.41 1078.67C1621.3 1073.36 1633.79 1071.59 1643.61 1075.13C1651.63 1061.85 1670.37 1066.27 1681.07 1069.82C1675.72 995.42 1775.64 1006.05 1775.64 1046.79C1805.97 1031.73 1824.7 1058.3 1819.35 1071.59C1834.52 1068.05 1845.22 1073.36 1852.36 1078.67C1858.6 1073.36 1875.55 1075.13 1880.91 1081.33C1890.18 1075.66 1900.24 1083.69 1904.1 1088.42Z" fill="#F8CB96"/>
<path d="M1201 1114H984C984 1105.84 994.787 1104.59 999.228 1107.1C999.863 1103.34 1008.75 1102.08 1015.73 1104.59C1021.44 1095.18 1034.76 1098.32 1042.37 1100.83C1038.57 1048.13 1109.63 1055.66 1109.63 1084.52C1131.2 1073.85 1144.53 1092.67 1140.72 1102.08C1151.51 1099.57 1159.12 1103.34 1164.2 1107.1C1168.64 1103.34 1180.7 1104.59 1184.5 1108.98C1191.1 1104.97 1198.25 1110.65 1201 1114Z" fill="#F8CB96"/>
<path d="M1751.5 914.472C1751.6 914.496 1751.69 914.521 1751.79 914.545C1751.69 914.519 1751.6 914.495 1751.5 914.472C1742.62 912.249 1722.78 910.427 1712.08 920.464C1703.64 911.163 1690.96 904.398 1669 906.935C1690.12 912.008 1704.48 922.155 1704.48 924.692C1704.48 926.721 1703.35 934.556 1702.79 938.221C1706.17 938.784 1713.6 939.573 1716.31 938.221C1715.46 932.302 1713.77 926.383 1716.31 924.692C1718.82 923.018 1742.02 912.231 1751.5 914.472Z" fill="#1F3613"/>
<path d="M1751.79 914.545C1743.06 912.29 1722.9 910.317 1712.08 920.464C1703.64 911.163 1690.96 904.398 1669 906.935C1690.12 912.008 1704.48 922.155 1704.48 924.692C1704.48 926.721 1703.35 934.556 1702.79 938.221C1706.17 938.784 1713.6 939.573 1716.31 938.221C1715.46 932.302 1713.77 926.383 1716.31 924.692C1718.84 923 1742.5 912.008 1751.79 914.545Z" stroke="#1F3613" stroke-linejoin="round"/>
<path d="M1646.33 837C1640.4 838.922 1627.68 844.431 1624.24 851.093C1620.92 857.547 1620.77 865.323 1621.14 868.715C1621.15 868.823 1621.16 868.928 1621.18 869.03C1621.16 868.929 1621.15 868.824 1621.14 868.715C1620.84 865.641 1621.9 860.061 1628.54 860.061C1629.15 854.296 1626.7 845.328 1646.33 837Z" fill="#1F3613" stroke="#1F3613" stroke-linejoin="round"/>
<path d="M1850.61 1615.44C1850.64 1615.46 1850.68 1615.48 1850.71 1615.49C1850.68 1615.48 1850.65 1615.46 1850.61 1615.44C1846.02 1613.46 1834.24 1609.75 1822.84 1610.42C1815.23 1604.5 1808.48 1598.58 1785.67 1599.43C1801.72 1604.5 1818.61 1610.42 1817.77 1617.18C1817.09 1622.59 1815.23 1624.51 1814.39 1624.79C1816.64 1624.79 1821.49 1626.15 1822.84 1631.56C1824.19 1636.97 1825.65 1646.21 1826.22 1650.16C1828.19 1643.96 1831.28 1628.34 1827.91 1615.49C1837.85 1615.49 1848.6 1614.68 1850.61 1615.44Z" fill="#1F3613"/>
<path d="M1850.71 1615.49C1846.21 1613.52 1834.33 1609.74 1822.84 1610.42C1815.23 1604.5 1808.48 1598.58 1785.67 1599.43C1801.72 1604.5 1818.61 1610.42 1817.77 1617.18C1817.09 1622.59 1815.23 1624.51 1814.39 1624.79C1816.64 1624.79 1821.49 1626.15 1822.84 1631.56C1824.19 1636.97 1825.65 1646.21 1826.22 1650.16C1828.19 1643.96 1831.28 1628.34 1827.91 1615.49C1838.04 1615.49 1849.03 1614.65 1850.71 1615.49Z" stroke="#1F3613" stroke-linejoin="round"/>
<path d="M1844.23 1406.51C1852.4 1409.05 1869.91 1416.32 1874.64 1425.12C1879.23 1433.64 1879.42 1443.9 1878.92 1448.38C1878.9 1448.52 1878.89 1448.66 1878.87 1448.79C1878.88 1448.66 1878.9 1448.52 1878.92 1448.38C1879.34 1444.32 1877.87 1436.95 1868.73 1436.95C1867.88 1429.34 1871.26 1417.51 1844.23 1406.51Z" fill="#1F3613" stroke="#1F3613" stroke-linejoin="round"/>
<path d="M1783.51 1273.8C1783.48 1273.81 1783.44 1273.83 1783.41 1273.84C1783.44 1273.83 1783.47 1273.81 1783.51 1273.8C1788.1 1271.81 1799.89 1268.1 1811.28 1268.77C1818.89 1262.85 1825.65 1256.93 1848.45 1257.78C1832.4 1262.85 1815.51 1268.77 1816.35 1275.53C1817.03 1280.95 1818.89 1282.86 1819.73 1283.14C1817.48 1283.14 1812.64 1284.5 1811.28 1289.91C1809.93 1295.32 1808.47 1304.56 1807.9 1308.51C1805.93 1302.31 1802.84 1286.69 1806.22 1273.84C1796.27 1273.84 1785.52 1273.03 1783.51 1273.8Z" fill="#1F3613"/>
<path d="M1783.41 1273.84C1787.91 1271.87 1799.8 1268.09 1811.28 1268.77C1818.89 1262.85 1825.65 1256.93 1848.45 1257.78C1832.4 1262.85 1815.51 1268.77 1816.35 1275.53C1817.03 1280.95 1818.89 1282.86 1819.73 1283.14C1817.48 1283.14 1812.64 1284.5 1811.28 1289.91C1809.93 1295.32 1808.47 1304.56 1807.9 1308.51C1805.93 1302.31 1802.84 1286.69 1806.22 1273.84C1796.08 1273.84 1785.1 1273 1783.41 1273.84Z" stroke="#1F3613" stroke-linejoin="round"/>
<path d="M1655.29 1472.09C1655.19 1472.11 1655.09 1472.14 1655 1472.16C1655.09 1472.13 1655.19 1472.11 1655.29 1472.09C1664.16 1469.86 1684.01 1468.04 1694.7 1478.08C1703.15 1468.78 1715.82 1462.01 1737.79 1464.55C1716.67 1469.62 1702.31 1479.77 1702.31 1482.31C1702.31 1484.34 1703.43 1492.17 1704 1495.84C1700.62 1496.4 1693.18 1497.19 1690.48 1495.84C1691.33 1489.92 1693.02 1484 1690.48 1482.31C1687.97 1480.63 1664.77 1469.85 1655.29 1472.09Z" fill="#1F3613"/>
<path d="M1655 1472.16C1663.73 1469.91 1683.89 1467.93 1694.7 1478.08C1703.15 1468.78 1715.82 1462.01 1737.79 1464.55C1716.67 1469.62 1702.31 1479.77 1702.31 1482.31C1702.31 1484.34 1703.43 1492.17 1704 1495.84C1700.62 1496.4 1693.18 1497.19 1690.48 1495.84C1691.33 1489.92 1693.02 1484 1690.48 1482.31C1687.95 1480.62 1664.29 1469.62 1655 1472.16Z" stroke="#1F3613" stroke-linejoin="round"/>
<path d="M1761.44 1367.9C1756.71 1363.85 1744.83 1363.96 1739.48 1364.52C1745.39 1364.52 1754.68 1367.9 1755.53 1374.67C1764.82 1375.51 1763.13 1380.59 1764.82 1387.35C1767.36 1379.74 1767.36 1372.98 1761.44 1367.9Z" fill="#1F3613" stroke="#1F3613" stroke-linejoin="round"/>
</svg>
