<svg width="31" height="30" viewBox="0 0 31 30" fill="none" xmlns="http://www.w3.org/2000/svg">
<rect x="0.223145" width="30" height="30" rx="15" fill="#FBFBF1"/>
<path d="M12.9231 23.08C13.1098 23.4267 13.4765 23.6 14.0231 23.6C14.2765 23.6 14.5298 23.58 14.7831 23.54C15.1031 23.5133 15.3231 23.5 15.4431 23.5C16.0698 23.5 16.5965 23.4733 17.0231 23.42C17.4631 23.38 17.7765 23.2667 17.9631 23.08C18.0565 22.8933 18.1165 22.7 18.1431 22.5C18.1698 22.3 18.1831 22.18 18.1831 22.14C18.2231 21.82 18.2765 21.5733 18.3431 21.4C18.4231 21.24 18.5765 21.1 18.8031 20.98C19.1498 20.98 19.3831 21.1267 19.5031 21.42C19.6365 21.7133 19.7031 22.12 19.7031 22.64C19.7031 22.8533 19.6898 23.16 19.6631 23.56L19.6431 24.34C19.5498 24.4333 19.3765 24.4933 19.1231 24.52C18.9631 24.5333 18.6965 24.54 18.3231 24.54C17.9231 24.54 17.5965 24.5467 17.3431 24.56C17.0898 24.5867 16.8698 24.6467 16.6831 24.74H12.9231C12.8565 24.74 12.7031 24.7667 12.4631 24.82C12.1698 24.9 11.9365 24.94 11.7631 24.94C11.5498 24.94 11.3765 24.8733 11.2431 24.74C11.1231 24.74 11.0298 24.7067 10.9631 24.64C10.9098 24.5867 10.8365 24.4933 10.7431 24.36C10.6631 24.2133 10.5565 24.0667 10.4231 23.92C10.4231 23.8 10.3898 23.5067 10.3231 23.04C10.2565 22.7733 10.2231 22.5467 10.2231 22.36C10.2231 22.1333 10.2898 21.9533 10.4231 21.82C10.4231 21.6733 10.4898 21.4667 10.6231 21.2C10.7565 20.9067 10.8231 20.6933 10.8231 20.56C11.1031 20.28 11.3431 19.96 11.5431 19.6C11.7565 19.24 11.9765 18.8 12.2031 18.28C12.2698 18.12 12.3698 17.9067 12.5031 17.64C13.2498 17.0667 13.8565 16.36 14.3231 15.52C14.7898 14.6667 15.2965 13.5533 15.8431 12.18C16.1765 10.9533 16.3431 9.90667 16.3431 9.04C16.3431 8.16 16.1765 7.38667 15.8431 6.72C15.7231 6.72 15.6031 6.69333 15.4831 6.64C15.3631 6.57333 15.2631 6.50667 15.1831 6.44C15.1031 6.37333 15.0498 6.32667 15.0231 6.3H13.3431C13.1565 6.3 12.9698 6.37333 12.7831 6.52C12.5965 6.65333 12.3631 6.86 12.0831 7.14C12.0831 7.46 12.0098 7.81333 11.8631 8.2C11.7298 8.6 11.6631 8.94 11.6631 9.22C11.7965 9.35333 12.0365 9.48667 12.3831 9.62C12.5698 9.7 12.7031 9.77333 12.7831 9.84C12.8765 9.89333 12.9231 9.96667 12.9231 10.06C12.9231 10.26 12.7698 10.4533 12.4631 10.64C12.1698 10.8133 11.9031 10.9 11.6631 10.9C11.4498 10.9 11.2831 10.8333 11.1631 10.7C11.0431 10.5533 10.9231 10.36 10.8031 10.12C10.7365 9.96 10.6698 9.84667 10.6031 9.78C10.5498 9.7 10.4898 9.66 10.4231 9.66V7.56C10.4631 7.50667 10.5898 7.3 10.8031 6.94C11.0698 6.48667 11.2965 6.14 11.4831 5.9C11.6831 5.66 11.9298 5.46 12.2231 5.3C12.5298 5.12667 12.9031 5.04 13.3431 5.04C13.6365 5.01333 13.8565 5 14.0031 5H14.1031C15.1165 5 15.9898 5.21333 16.7231 5.64C17.4565 6.05333 18.0165 6.64 18.4031 7.4C18.7898 8.16 18.9831 9.03333 18.9831 10.02C18.9831 10.5667 18.9231 11.14 18.8031 11.74C18.6431 12.4867 18.3431 13.2333 17.9031 13.98C17.4765 14.7267 16.9165 15.6133 16.2231 16.64L15.8431 17.2C15.8431 17.36 15.7765 17.5067 15.6431 17.64C15.5098 17.7733 15.4431 17.9067 15.4431 18.04C15.1898 18.5333 14.8765 19.06 14.5031 19.62C14.0498 20.3533 13.7031 20.96 13.4631 21.44C13.2231 21.92 13.0431 22.4667 12.9231 23.08Z" fill="#315720"/>
</svg>
