<svg width="31" height="30" viewBox="0 0 31 30" fill="none" xmlns="http://www.w3.org/2000/svg">
<rect x="0.223145" width="30" height="30" rx="15" fill="#FBFBF1"/>
<path d="M17.2631 6.72C17.0631 9.33333 16.9631 12.1 16.9631 15.02C16.9631 17.9267 17.0631 20.6933 17.2631 23.32C17.2765 23.3333 17.3831 23.42 17.5831 23.58C17.7565 23.7 17.8831 23.82 17.9631 23.94C18.0431 24.0733 18.0831 24.2733 18.0831 24.54C17.9898 24.6333 17.8698 24.6933 17.7231 24.72C17.6298 24.7333 17.4831 24.74 17.2831 24.74C17.0698 24.74 16.9031 24.7467 16.7831 24.76C16.6631 24.7867 16.5565 24.8467 16.4631 24.94C16.4231 24.9 16.3365 24.8667 16.2031 24.84C16.1231 24.8267 15.9831 24.82 15.7831 24.82L14.7231 24.84C14.2698 24.84 13.9031 24.7867 13.6231 24.68C13.3565 24.5867 13.2231 24.4 13.2231 24.12C13.2231 23.9333 13.3031 23.82 13.4631 23.78C13.6365 23.74 13.9631 23.72 14.4431 23.72V16.84C14.4431 16.36 14.4765 15.84 14.5431 15.28C14.5965 14.6667 14.6231 14.2067 14.6231 13.9C14.6231 13.3533 14.5631 12.8467 14.4431 12.38C14.5631 12.1533 14.6231 11.8133 14.6231 11.36C14.6231 11.0933 14.5965 10.6533 14.5431 10.04C14.4765 9.54667 14.4431 9.11333 14.4431 8.74C14.3365 8.74 14.2165 8.82 14.0831 8.98C14.0031 9.07333 13.9298 9.14667 13.8631 9.2C13.7965 9.24 13.7165 9.26 13.6231 9.26C13.5165 9.26 13.3831 9.22 13.2231 9.14V8.34C13.3698 7.9 13.5898 7.30667 13.8831 6.56C13.9365 6.42667 14.0165 6.22 14.1231 5.94C14.2431 5.64667 14.3498 5.36667 14.4431 5.1C14.5498 5.1 14.7631 5.08667 15.0831 5.06C15.3231 5.02 15.5831 5 15.8631 5C16.4631 5 16.9298 5.16667 17.2631 5.5V6.72Z" fill="#315720"/>
</svg>
