<svg width="31" height="30" viewBox="0 0 31 30" fill="none" xmlns="http://www.w3.org/2000/svg">
<rect x="0.223145" width="30" height="30" rx="15" fill="#FBFBF1"/>
<path d="M15.2831 12.3399C15.4965 12.5399 15.6631 12.6865 15.7831 12.7799C15.9165 12.8599 16.1631 12.9799 16.5231 13.1399C16.9498 13.3132 17.4831 13.8599 18.1231 14.7799C18.4165 15.1932 18.6231 15.5665 18.7431 15.8999C18.8765 16.2199 18.9431 16.6599 18.9431 17.2199C19.0498 17.8332 19.1031 18.4265 19.1031 18.9999C19.1031 20.0132 18.9498 20.9399 18.6431 21.7799C18.3498 22.6332 17.9098 23.2865 17.3231 23.7399C16.8431 24.2199 16.4831 24.5332 16.2431 24.6799C16.0165 24.8399 15.6965 24.9332 15.2831 24.9599C15.0031 24.9865 14.5898 24.9999 14.0431 24.9999L12.8431 24.9799C12.6431 24.9665 12.3698 24.9599 12.0231 24.9599C11.5165 24.4532 11.2631 23.7265 11.2631 22.7799C11.2631 22.2865 11.3298 21.7932 11.4631 21.2999C11.6098 20.8199 11.7965 20.4132 12.0231 20.0799C12.1565 20.0799 12.3565 20.1465 12.6231 20.2799C12.9165 20.4132 13.1298 20.4799 13.2631 20.4799C13.2631 20.8799 13.2098 21.3865 13.1031 21.9999C13.0231 22.5065 12.9831 22.8399 12.9831 22.9999C12.9831 23.2532 13.0298 23.4399 13.1231 23.5599C13.2165 23.6799 13.3898 23.7399 13.6431 23.7399C14.1898 23.7399 14.6831 23.4799 15.1231 22.9599C15.5631 22.4532 15.8898 21.8932 16.1031 21.2799C16.2365 20.9065 16.3431 20.4999 16.4231 20.0599L16.5231 19.4599C16.5498 19.3399 16.5631 19.1265 16.5631 18.8199L16.5431 18.0599C16.5298 17.9532 16.5231 17.8132 16.5231 17.6399C16.5231 17.2265 16.4565 16.8599 16.3231 16.5399C16.1898 16.2065 15.9765 15.8932 15.6831 15.5999C15.4431 15.3599 15.2098 15.0599 14.9831 14.6999C14.8765 14.5265 14.7765 14.3999 14.6831 14.3199C14.6031 14.2265 14.4765 14.1465 14.3031 14.0799C14.1031 13.9999 13.8431 13.9265 13.5231 13.8599C13.3765 13.8332 13.2498 13.8065 13.1431 13.7799C13.0498 13.7399 12.9498 13.6665 12.8431 13.5599C12.6298 13.3465 12.5031 13.2065 12.4631 13.1399C12.4365 13.0732 12.4231 12.9332 12.4231 12.7199C12.6898 12.6799 12.9698 12.2799 13.2631 11.5199C13.3698 11.2399 13.5098 10.9465 13.6831 10.6399C13.8698 10.3332 14.0565 10.0332 14.2431 9.73988C14.6431 9.09988 14.9565 8.55988 15.1831 8.11988C15.4098 7.66655 15.5765 7.16655 15.6831 6.61988C15.1231 6.43321 14.5831 6.33988 14.0631 6.33988C13.5431 6.33988 12.9965 6.43321 12.4231 6.61988C12.4231 6.88654 12.3965 7.22654 12.3431 7.63988C12.3031 8.05321 12.1965 8.25988 12.0231 8.25988C11.9831 8.28655 11.9298 8.29988 11.8631 8.29988C11.4365 8.29988 11.2231 7.33321 11.2231 5.39988C11.3965 5.22655 11.6831 5.11988 12.0831 5.07988C12.4831 5.02654 13.0031 4.99988 13.6431 4.99988C13.8165 4.99988 14.0631 5.01321 14.3831 5.03988C14.7565 5.06654 15.0631 5.07988 15.3031 5.07988C15.6765 5.07988 16.0831 5.05321 16.5231 4.99988H17.3231C17.5898 4.99988 17.7898 5.07988 17.9231 5.23988C18.0565 5.39988 18.1231 5.59321 18.1231 5.81988V6.61988C18.0031 6.85988 17.9031 7.08655 17.8231 7.29988C17.7431 7.49988 17.6631 7.68654 17.5831 7.85988C17.3431 8.44655 17.1298 8.92655 16.9431 9.29988C16.7698 9.67321 16.5765 10.0065 16.3631 10.2999C15.8565 11.2332 15.4965 11.9132 15.2831 12.3399Z" fill="#315720"/>
</svg>
