<?xml version="1.0" encoding="utf-8"?>
<!-- Generator: Adobe Illustrator 24.1.2, SVG Export Plug-In . SVG Version: 6.00 Build 0)  -->
<svg version="1.1" id="Слой_1" xmlns="http://www.w3.org/2000/svg" xmlns:xlink="http://www.w3.org/1999/xlink" x="0px" y="0px"
	 viewBox="0 0 610 238" style="enable-background:new 0 0 610 238;" xml:space="preserve">
<style type="text/css">
	.st0{fill:none;stroke:#B69168;stroke-width:6;}
	.st1{fill:#E6C38D;}
	.st2{fill:#DCB983;}
	.st3{fill:#CFCFCF;}
	.st4{fill:#D9D9D9;}
	.st5{fill:#829F4F;}
</style>
<path class="st0" d="M2.9,1c0,0,159,181.2,310.6,180.1c151.6-1.1,353-174.3,353-174.3"/>
<rect x="274" y="190.9" transform="matrix(1.156330e-02 -0.9999 0.9999 1.156330e-02 102.7893 505.1857)" class="st1" width="65.8" height="19.5"/>
<path class="st2" d="M297.6,167.6l19.5,0.2l-0.8,65.8l-1.8,0c0,0,0.8-11.1-2.5-35.4c-3.3-24.4-14.7-9.8-14.7-9.8L297.6,167.6z"/>
<rect x="304.7" y="199.5" transform="matrix(1.156330e-02 -0.9999 0.9999 1.156330e-02 94.1077 513.5711)" class="st3" width="4.3" height="19.5"/>
<path class="st4" d="M301.1,208c-1.8,0-1.8,0-2.5,0.7c0,0.4-0.4,1.4,0.7,1.8c1.1,0.4,2.5-0.3,4-0.7c1.4-0.3,3.6,0.4,5.8,0.4
	c2.2,0,1.8-0.7,1.8-1.4c0-0.7-2.5-0.7-4-0.8L301.1,208z"/>
<path class="st5" d="M303.4,147.1c1.2-3.7,6.4-3.6,7.6,0.1l2.2,6.9c0.5,1.6,2,2.8,3.8,2.8l7.2,0.1c3.9,0,5.4,5,2.3,7.3l-5.8,4.1
	c-1.4,1-2,2.8-1.5,4.5l2.1,6.8c1.2,3.7-3.1,6.7-6.2,4.4l-5.9-4.3c-1.4-1-3.3-1-4.7-0.1l-6,4.2c-3.2,2.2-7.3-0.9-6.1-4.6l2.3-6.8
	c0.6-1.6,0-3.5-1.4-4.5l-5.8-4.2c-3.1-2.3-1.5-7.3,2.4-7.2l7.2,0.1c1.7,0,3.3-1.1,3.8-2.7L303.4,147.1z"/>
</svg>
