<svg width="1083" height="302" viewBox="0 0 1083 302" fill="none" xmlns="http://www.w3.org/2000/svg">
<path d="M3.2586 -56.3529C3.2586 -56.3529 261.291 231.819 507.213 230.088C753.135 228.358 1079.77 -46.8901 1079.77 -46.8901" stroke="#B69168" stroke-width="8"/>
<rect width="36.8856" height="125.455" transform="matrix(0.999933 0.0115422 -0.0115845 0.999933 485.158 175.343)" fill="#E6C38D"/>
<path d="M485.158 175.343L522.042 175.769L520.588 301.215L517.173 301.175C517.173 301.175 518.784 280.056 512.491 233.617C506.198 187.177 484.7 214.886 484.7 214.886L485.158 175.343Z" fill="#DCB983"/>
<rect width="36.8856" height="8.18182" transform="matrix(0.999933 0.0115422 -0.0115845 0.999933 484.29 250.337)" fill="#CFCFCF"/>
<path d="M491.779 252.47C488.364 252.43 488.364 252.43 486.982 253.778C486.974 254.46 486.268 256.497 488.309 257.203C490.35 257.908 493.098 256.576 495.838 255.926C498.578 255.275 502.66 256.686 506.758 256.734C510.856 256.781 510.189 255.409 510.205 254.046C510.221 252.682 505.44 252.627 502.707 252.596L491.779 252.47Z" fill="#D9D9D9"/>
<path d="M499.689 125.828C500.931 122.159 506.14 122.22 507.296 125.916L515.48 152.082C515.997 153.735 517.519 154.868 519.251 154.888L546.695 155.204C550.572 155.249 552.124 160.23 548.96 162.469L526.583 178.306C525.167 179.308 524.558 181.109 525.076 182.765L533.253 208.911C534.409 212.608 530.159 215.626 527.05 213.316L505.018 196.946C503.629 195.914 501.734 195.892 500.321 196.892L477.916 212.748C474.754 214.987 470.575 211.871 471.816 208.202L480.597 182.252C481.153 180.608 480.587 178.794 479.194 177.759L457.19 161.41C454.078 159.098 455.745 154.155 459.622 154.199L487.066 154.516C488.798 154.536 490.346 153.439 490.902 151.798L499.689 125.828Z" fill="#829F4F"/>
<path d="M499.703 125.786C500.943 122.122 506.145 122.176 507.307 125.866L515.485 151.817C515.487 151.824 515.487 151.825 515.489 151.832C515.559 152.053 518.05 160.039 512.661 159.977C507.197 159.914 505.327 162.62 501.638 168.032C497.949 173.444 498.669 188.454 487.685 193.1C479.379 196.613 480.21 186.975 481.109 182.067C481.407 180.442 480.819 178.748 479.489 177.768L457.292 161.421C454.164 159.117 455.826 154.155 459.711 154.2L487.066 154.516C488.798 154.536 490.346 153.439 490.901 151.798L499.703 125.786Z" fill="#8CA959"/>
</svg>
