<svg width="669" height="238" viewBox="0 0 669 238" fill="none" xmlns="http://www.w3.org/2000/svg">
<path d="M2.86984 0.953392C2.86984 0.953392 161.893 182.156 313.486 181.039C465.078 179.922 666.457 6.77881 666.457 6.77881" stroke="#B69168" stroke-width="6"/>
<rect x="297.574" y="167.585" width="19.4651" height="65.8102" transform="rotate(0.662543 297.574 167.585)" fill="#E6C38D"/>
<path d="M297.574 167.585L317.038 167.81L316.277 233.616L314.474 233.595C314.474 233.595 315.323 222.517 312 198.156C308.677 173.794 297.334 188.328 297.334 188.328L297.574 167.585Z" fill="#DCB983"/>
<rect x="297.119" y="206.926" width="19.4651" height="4.29197" transform="rotate(0.662543 297.119 206.926)" fill="#CFCFCF"/>
<path d="M301.071 208.045C299.269 208.024 299.269 208.024 298.54 208.731C298.535 209.088 298.163 210.157 299.24 210.527C300.317 210.898 301.767 210.199 303.213 209.858C304.659 209.517 306.813 210.257 308.976 210.282C311.139 210.307 310.786 209.588 310.795 208.873C310.803 208.157 308.28 208.128 306.838 208.111L301.071 208.045Z" fill="#D9D9D9"/>
<path d="M303.382 147.07C304.627 143.411 309.824 143.471 310.984 147.158L313.161 154.074C313.68 155.724 315.201 156.853 316.93 156.873L324.164 156.956C328.047 157.001 329.595 161.994 326.42 164.228L320.572 168.341C319.148 169.343 318.535 171.152 319.058 172.814L321.207 179.642C322.37 183.335 318.13 186.361 315.015 184.06L309.145 179.725C307.76 178.702 305.876 178.68 304.467 179.671L298.499 183.869C295.332 186.097 291.163 182.975 292.41 179.309L294.717 172.532C295.278 170.883 294.708 169.061 293.307 168.026L287.556 163.778C284.433 161.472 286.096 156.516 289.979 156.561L297.213 156.645C298.942 156.665 300.489 155.571 301.046 153.934L303.382 147.07Z" fill="#829F4F"/>
</svg>
