<svg width="282" height="341" viewBox="0 0 282 341" fill="none" xmlns="http://www.w3.org/2000/svg">
<path d="M60.6432 4.05357L65.3979 0.660522L56.3979 323.161L47.3979 317.91L60.6432 4.05357Z" fill="#806241"/>
<path d="M84.7313 0.660522H65.3979L54.3979 322.661H102.398L84.7313 0.660522Z" fill="#9A764E"/>
<path d="M34.6511 271.93C31.2197 266.372 25.1701 258.813 25.1701 258.813L39.3916 267.208L37.36 258.813C37.36 258.813 42.1486 267.807 44.1321 270.88C48.534 275.602 51.1321 279.2 54.9676 285.571C59.0267 292.313 60.9095 295.882 63.0942 304.459C64.7872 302.36 65.803 300.786 65.803 300.786C65.803 300.786 65.7959 281.867 63.4328 269.831C60.6067 255.437 51.2429 236.252 51.2429 236.252C51.2429 236.252 61.6063 244.913 66.4802 254.091C68.7327 258.332 73.1293 271.423 74.5584 276.127C75.1376 274.015 75.7286 272.112 76.2999 270.664C79.1075 263.545 84.9695 249.516 90.5214 241.499C96.1331 233.396 106.436 223.661 106.436 223.661C106.436 223.661 97.7451 242.113 94.5847 255.665C92.7318 263.61 90.9609 269.864 90.1828 278.226C94.811 273.308 103.05 264.06 103.05 264.06C103.05 264.06 95.2928 272.897 92.2144 280.849C91.4814 282.742 90.5214 285.857 90.5214 285.857L92.3941 315.477C93.5688 302.885 94.4749 295.16 98.9866 284.522C103.775 273.229 115.917 261.961 115.917 261.961C115.917 261.961 108.468 278.75 107.341 290.293L112.869 287.145C112.869 287.145 108.537 294.909 106.775 299.212C105.531 304.983 105.683 312.654 105.759 319.674C105.878 330.678 107.79 340.083 107.79 340.083C107.79 340.083 109.175 323.756 112.531 314.952C116.098 305.595 125.398 295.539 125.398 295.539C125.398 295.539 118.403 310.998 118.287 322.297C118.212 329.653 120.996 340.661 120.996 340.661L78.1526 340.146L72.9138 340.083L55.9834 339.88L52.9359 339.843L42.1005 339.713L33.6353 339.611C32.6195 331.741 30.839 325.471 28.8948 320.199C26.2705 313.083 22.4612 308.131 18.3979 299.212C23.8157 304.459 27.6903 307.18 31.9423 314.427C35.3283 320.199 39.3916 332.266 42.1005 339.713C41.4233 332.266 39.4289 318.863 37.36 312.329C34.6881 303.89 28.8948 291.342 28.8948 291.342C28.8948 291.342 39.9292 300.845 45.4866 311.462C45.3695 305.768 45.4249 300.403 44.6937 293.441C44.5516 292.088 44.3594 290.653 44.1321 289.178C42.3385 285.571 37.8227 277.066 34.6511 271.93Z" fill="#456942"/>
<path d="M52.9359 339.843C52.9359 339.843 50.5006 322.831 46.6531 313.903C41.6729 302.346 28.8948 291.342 28.8948 291.342C28.8948 291.342 34.6881 303.89 37.36 312.329C39.4289 318.863 41.4233 332.266 42.1005 339.713C39.3916 332.266 35.3283 320.199 31.9423 314.427C27.6903 307.18 23.8157 304.459 18.3979 299.212C22.4612 308.131 26.2705 313.083 28.8948 320.199C30.839 325.471 32.6195 331.741 33.6353 339.611L120.996 340.661C120.996 340.661 118.212 329.653 118.287 322.297C118.403 310.998 125.398 295.539 125.398 295.539C125.398 295.539 116.098 305.595 112.531 314.952C109.175 323.756 107.79 340.083 107.79 340.083C107.79 340.083 105.878 330.678 105.759 319.674C105.683 312.654 105.531 304.983 106.775 299.212M39.3916 267.208L25.1701 258.813C25.1701 258.813 31.2197 266.372 34.6511 271.93C37.8227 277.066 42.3385 285.571 44.1321 289.178M39.3916 267.208L37.36 258.813C37.36 258.813 42.1486 267.807 44.1321 270.88M39.3916 267.208C39.3916 267.208 43.5809 282.845 44.6937 293.441C45.4249 300.403 45.3695 305.768 45.4866 311.462M44.1321 270.88C48.534 275.602 51.1321 279.2 54.9676 285.571C59.0267 292.313 60.9095 295.882 63.0942 304.459M44.1321 270.88C48.534 280.849 52.3405 285.31 54.9676 296.589C57.4564 307.274 56.6606 314.427 57.3378 325.445M63.0942 304.459C64.7872 302.36 65.803 300.786 65.803 300.786M63.0942 304.459C62.4169 305.508 61.6269 307.082 60.7239 309.181C58.6923 313.903 57.3378 325.445 57.3378 325.445M57.3378 325.445L55.9834 339.88M65.803 300.786L74.2682 291.342C74.2682 291.342 68.293 304.257 67.1574 313.903C65.9887 323.831 68.8505 339.611 68.8505 339.611M65.803 300.786C65.803 300.786 65.7959 281.867 63.4328 269.831C60.6067 255.437 51.2429 236.252 51.2429 236.252C51.2429 236.252 61.6063 244.913 66.4802 254.091C68.7327 258.332 73.1293 271.423 74.5584 276.127M70.2049 295.875C70.2049 295.875 73.4922 277.783 76.2999 270.664C79.1075 263.545 84.9695 249.516 90.5214 241.499C96.1331 233.396 106.436 223.661 106.436 223.661C106.436 223.661 97.7451 242.113 94.5847 255.665C92.7318 263.61 90.9609 269.864 90.1828 278.226M90.1828 278.226C86.8769 282.528 82.9663 288.02 82.9663 288.02M90.1828 278.226C94.811 273.308 103.05 264.06 103.05 264.06C103.05 264.06 95.2928 272.897 92.2144 280.849C91.4814 282.742 90.5214 285.857 90.5214 285.857M72.9138 340.083C72.9138 340.083 73.4481 316.383 77.3157 302.885C78.6603 298.192 81.379 290.817 81.379 290.817M81.379 290.817L80.3631 280.849L86.4581 297.638M81.379 290.817C81.379 290.817 83.0164 306.4 82.3948 316.001C81.7653 325.725 78.1526 340.146 78.1526 340.146M90.5214 339.88L91.4435 330.692M86.4581 297.638C86.4581 297.638 89.4361 307.775 90.5214 313.903C91.6453 320.248 91.4435 330.692 91.4435 330.692M86.4581 297.638L90.5214 285.857M90.5214 285.857C90.5214 285.857 91.6627 303.909 92.3941 315.477M92.2144 322.297L91.4435 330.692M92.2144 322.297C92.2144 322.297 94.7632 309.549 98.3093 302.885C101.323 297.222 103.39 294.34 107.341 290.293M92.2144 322.297C92.2144 322.297 92.5884 318.55 92.3941 315.477M103.05 340.083C103.05 340.083 100.72 325.584 102.373 316.001C103.626 308.734 103.413 307.419 106.775 299.212M92.3941 315.477C93.5688 302.885 94.4749 295.16 98.9866 284.522C103.775 273.229 115.917 261.961 115.917 261.961C115.917 261.961 108.468 278.75 107.341 290.293M107.341 290.293C109.5 289.063 112.869 287.145 112.869 287.145C112.869 287.145 108.537 294.909 106.775 299.212" stroke="#456942" stroke-width="0.68" stroke-linecap="round"/>
</svg>
