<svg width="71" height="71" viewBox="0 0 71 71" fill="none" xmlns="http://www.w3.org/2000/svg">
<path d="M65.1553 23.8456V24.0585C65.1553 26.5669 65.1553 27.824 64.5516 28.8506C63.9478 29.8773 62.8483 30.4869 60.6549 31.709L58.342 32.9923C59.9345 27.6023 60.4683 21.8098 60.6637 16.8573L60.6928 16.2127L60.6987 16.061C62.5974 16.7202 63.6649 17.2131 64.3299 18.1348C65.1553 19.281 65.1553 20.8035 65.1553 23.8456ZM6.82202 23.8456V24.0585C6.82202 26.5669 6.82202 27.824 7.42577 28.8506C8.02952 29.8773 9.1291 30.4869 11.3224 31.709L13.6383 32.9923C12.0429 27.6023 11.5091 21.8098 11.3137 16.8573L11.2845 16.2127L11.2816 16.061C9.37994 16.7202 8.31244 17.2131 7.64744 18.1348C6.82202 19.281 6.82202 20.8065 6.82202 23.8456Z" fill="#EFDFBB"/>
<path fill-rule="evenodd" clip-rule="evenodd" d="M35.9895 5.87322C41.1928 5.87322 45.4774 6.33114 48.7558 6.8853C52.0778 7.4453 53.7374 7.7253 55.1258 9.43447C56.5141 11.1436 56.4383 12.9899 56.2924 16.6824C55.7908 29.367 53.0549 45.2074 38.177 46.6074V56.9149H42.3478C43.0219 56.9153 43.6749 57.1491 44.196 57.5766C44.7171 58.0041 45.0741 58.5989 45.2062 59.2599L45.7603 62.0191H53.4895C54.0697 62.0191 54.6261 62.2495 55.0363 62.6598C55.4465 63.07 55.677 63.6264 55.677 64.2066C55.677 64.7867 55.4465 65.3431 55.0363 65.7533C54.6261 66.1636 54.0697 66.3941 53.4895 66.3941H18.4895C17.9093 66.3941 17.3529 66.1636 16.9427 65.7533C16.5325 65.3431 16.302 64.7867 16.302 64.2066C16.302 63.6264 16.5325 63.07 16.9427 62.6598C17.3529 62.2495 17.9093 62.0191 18.4895 62.0191H26.2187L26.7728 59.2599C26.9049 58.5989 27.2619 58.0041 27.783 57.5766C28.3041 57.1491 28.9571 56.9153 29.6312 56.9149H33.802V46.6074C18.927 45.2074 16.1912 29.3641 15.6895 16.6824C15.5408 12.9899 15.4678 11.1407 16.8562 9.43447C18.2416 7.7253 19.9012 7.4453 23.2233 6.8853C27.4432 6.19404 31.7134 5.85551 35.9895 5.87322ZM38.7662 18.1203L38.4803 17.607C37.372 15.6149 36.8178 14.6232 35.9895 14.6232C35.1612 14.6232 34.607 15.6149 33.4987 17.607L33.2128 18.1203C32.8978 18.6861 32.7403 18.9661 32.4953 19.1528C32.2474 19.3395 31.9412 19.4095 31.3287 19.5466L30.7745 19.6749C28.622 20.162 27.5458 20.4041 27.2891 21.2266C27.0324 22.0491 27.7674 22.9095 29.2345 24.6245L29.6137 25.0678C30.0308 25.5549 30.2408 25.797 30.3341 26.1003C30.4274 26.4036 30.3953 26.7274 30.3341 27.3778L30.2758 27.9699C30.0541 30.2595 29.9433 31.4057 30.6112 31.9132C31.282 32.4207 32.2912 31.957 34.3066 31.0295L34.8258 30.7903C35.4003 30.5278 35.6862 30.3966 35.9895 30.3966C36.2928 30.3966 36.5787 30.5278 37.1533 30.7903L37.6724 31.0295C39.6878 31.9599 40.697 32.4207 41.3678 31.9132C42.0387 31.4057 41.9249 30.2595 41.7033 27.9699L41.6449 27.3778C41.5837 26.7274 41.5516 26.4036 41.6449 26.1003C41.7383 25.797 41.9483 25.5549 42.3653 25.0678L42.7445 24.6245C44.2116 22.9095 44.9466 22.052 44.6899 21.2266C44.4333 20.4041 43.357 20.162 41.2045 19.6749L40.6503 19.5466C40.0378 19.4095 39.7316 19.3424 39.4837 19.1528C39.2387 18.9661 39.0812 18.6861 38.7662 18.1203Z" fill="#EFDFBB"/>
</svg>
