<svg width="440" height="145" viewBox="0 0 440 145" fill="none" xmlns="http://www.w3.org/2000/svg">
<path d="M-423.259 13.6795C-423.259 13.6795 -430.171 9.20815 -434.961 9.88511C-439.533 10.5312 -444.599 16.2093 -444.599 16.2093C-444.599 16.2093 -447.152 15.8989 -448.729 16.2093C-456.089 17.6583 -448.729 33.9165 -448.729 33.9165C-448.729 33.9165 -451.113 38.0023 -451.482 40.873C-452.034 45.1562 -449.191 47.3316 -448.729 51.6238C-448.385 54.8188 -448.729 59.845 -448.729 59.845C-448.729 59.845 -451.14 63.1247 -451.482 65.5366C-452.199 70.5792 -444.599 76.9198 -444.599 76.9198C-444.599 76.9198 -447.278 81.8656 -448.729 85.141C-449.915 87.8185 -451.23 89.216 -451.482 92.0974C-452.086 98.9946 -440.468 106.643 -440.468 106.643C-440.468 106.643 -446.747 108.64 -448.729 111.702C-451.995 116.748 -443.938 120.408 -444.599 126.247C-445.074 130.445 -449.78 132.257 -448.729 136.365C-447.325 141.853 -441.05 144.02 -434.961 143.322C-428.357 142.565 -423.259 131.939 -423.259 131.939C-423.259 131.939 -415.357 137.084 -409.491 137.63C-401.879 138.34 -390.905 131.939 -390.905 131.939C-390.905 131.939 -389.18 137.258 -386.087 138.263C-381.726 139.679 -376.449 131.939 -376.449 131.939C-376.449 131.939 -371.512 133.936 -368.189 133.836C-362.656 133.669 -355.798 127.512 -355.798 127.512C-355.798 127.512 -357.844 136.917 -353.733 136.998C-350.692 137.057 -348.226 131.939 -348.226 131.939C-348.226 131.939 -343.296 141.288 -337.212 143.322C-326.842 146.789 -313.807 128.777 -313.807 128.777C-313.807 128.777 -306.664 134.483 -301.416 133.836C-297.349 133.334 -292.467 128.777 -292.467 128.777C-292.467 128.777 -289.288 137.416 -284.207 138.263C-277.848 139.323 -272.504 127.512 -272.504 127.512C-272.504 127.512 -270.67 132.583 -267.686 133.836C-262.598 135.971 -255.983 126.247 -255.983 126.247C-255.983 126.247 -256.389 135.7 -251.853 136.365C-248.392 136.873 -244.281 131.939 -244.281 131.939C-244.281 131.939 -238.733 143.322 -231.89 143.322C-225.047 143.322 -219.499 131.939 -219.499 131.939C-219.499 131.939 -211.962 136.998 -206.42 136.998C-200.878 136.998 -193.341 131.939 -193.341 131.939C-193.341 131.939 -189.692 137.564 -185.769 138.263C-179.786 139.329 -174.066 128.777 -174.066 128.777C-174.066 128.777 -172.408 134.538 -169.248 136.365C-163.346 139.779 -153.415 128.777 -153.415 128.777C-153.415 128.777 -152.864 135.954 -149.285 136.365C-146.899 136.639 -143.778 133.836 -143.778 133.836C-143.778 133.836 -135.43 145.385 -128.634 143.322C-122.807 141.553 -121.061 130.674 -121.061 130.674C-121.061 130.674 -111.959 136.634 -105.229 136.998C-98.1846 137.379 -88.0193 131.939 -88.0193 131.939C-88.0193 131.939 -83.9533 138.445 -79.7589 138.263C-75.3875 138.072 -72.1867 130.674 -72.1867 130.674C-72.1867 130.674 -67.4709 136.012 -63.2378 136.365C-57.6667 136.83 -51.5354 128.777 -51.5354 128.777C-51.5354 128.777 -54.7085 135.652 -51.5354 136.998C-48.8064 138.155 -44.6516 133.836 -44.6516 133.836C-44.6516 133.836 -39.0282 142.92 -32.9492 143.322C-25.3653 143.824 -19.1817 130.674 -19.1817 130.674C-19.1817 130.674 -13.9233 137.349 -8.85602 138.263C-2.01266 139.497 6.97665 130.674 6.97665 130.674C6.97665 130.674 12.6255 138.584 17.9907 138.263C22.9371 137.966 27.628 130.674 27.628 130.674C27.628 130.674 32.3962 133.714 35.8885 133.836C40.694 134.003 46.9025 128.777 46.9025 128.777C46.9025 128.777 46.7165 136.147 50.3444 136.998C53.2565 137.681 57.2281 133.836 57.2281 133.836C57.2281 133.836 63.8124 143.695 70.3073 143.322C76.9502 142.94 82.0097 131.939 82.0097 131.939C82.0097 131.939 91.3869 136.653 97.8424 136.365C104.225 136.081 112.987 130.674 112.987 130.674C112.987 130.674 115.169 137.898 119.182 138.263C123.537 138.658 126.754 130.674 126.754 130.674C126.754 130.674 133.485 137.671 138.457 136.365C142.494 135.305 145.34 128.777 145.34 128.777C145.34 128.777 144.746 135.647 148.094 136.998C151.294 138.289 156.354 133.836 156.354 133.836C156.354 133.836 163.919 144.055 170.81 143.322C177.82 142.576 182.513 130.674 182.513 130.674C182.513 130.674 188.192 137.65 193.527 138.263C199.979 139.003 207.983 130.674 207.983 130.674C207.983 130.674 210.247 137.41 214.178 138.895C219.304 140.831 227.257 133.836 227.257 133.836C227.257 133.836 232.946 137.562 236.895 136.998C241.778 136.3 245.843 128.777 245.843 128.777C245.843 128.777 243.838 134.044 245.843 136.365C248.762 139.744 257.546 133.836 257.546 133.836C257.546 133.836 266.154 142.923 272.69 141.425C278.434 140.108 282.327 130.674 282.327 130.674C282.327 130.674 289.317 136.643 294.718 136.365C297.86 136.204 302.29 133.836 302.29 133.836C302.29 133.836 309.301 137.757 313.993 136.998C318.548 136.261 323.63 130.674 323.63 130.674C323.63 130.674 329.268 138.342 334.644 138.263C340.539 138.175 345.658 128.777 345.658 128.777C345.658 128.777 345.378 134.954 348.411 136.365C352.203 138.13 357.36 130.674 357.36 130.674C357.36 130.674 365.092 144.451 373.193 143.322C380.17 142.349 384.896 130.674 384.896 130.674C384.896 130.674 390.376 138.606 395.91 138.895C401.869 139.206 408.3 130.674 408.3 130.674C408.3 130.674 413.791 138.477 419.314 138.895C425.482 139.362 432.393 130.674 432.393 130.674C432.393 130.674 436.175 135.925 439.966 136.365C445.089 136.961 450.291 128.777 450.291 128.777C450.291 128.777 448.103 137.949 452.356 138.895C455.91 139.685 459.929 133.836 459.929 133.836C459.929 133.836 465.566 142.765 471.631 143.322C479.962 144.087 486.087 128.777 486.087 128.777C486.087 128.777 492.512 136.805 498.478 136.998C504.01 137.177 510.868 130.674 510.868 130.674C510.868 130.674 514.245 137.119 518.441 138.263C524.452 139.901 532.208 130.674 532.208 130.674C532.208 130.674 537.194 134.892 541.157 135.101C545.6 135.335 551.483 130.674 551.483 130.674C551.483 130.674 552.006 136.339 554.925 136.998C557.748 137.635 561.12 133.203 561.12 133.203C561.12 133.203 565.456 145.219 572.134 145.219C584.525 145.219 584.525 130.674 584.525 130.674C584.525 130.674 594.084 137.573 601.046 136.998C606.795 136.523 614.125 130.674 614.125 130.674C614.125 130.674 616.523 137.016 620.32 138.263C626.252 140.21 632.711 128.777 632.711 128.777C632.711 128.777 634.677 134.915 638.218 136.365C643.736 138.626 651.297 128.777 651.297 128.777L657.493 133.203C657.493 133.203 665.365 142.214 671.949 141.425C678.946 140.585 683.651 128.777 683.651 128.777C683.651 128.777 690.067 134.732 695.353 135.101C698.93 135.35 701.255 134.942 704.302 133.203C707.728 131.249 710.274 129.313 710.498 125.615C710.698 122.306 707.15 121.26 706.367 118.026C704.925 112.062 713.389 108.35 710.498 102.848C709.01 100.017 705.718 100.018 704.302 97.1566C701.451 91.3937 711.743 88.2051 710.498 81.979C709.648 77.7299 704.365 76.8127 704.302 72.493C704.265 69.9148 706.685 68.7308 706.367 66.169C706.136 64.3002 704.098 63.6136 704.302 61.7422C704.608 58.9404 708.721 59.6099 710.498 57.3154C715.378 51.0122 701.976 45.7776 704.302 38.3433C705.538 34.3929 711.448 33.5063 710.498 29.4897C709.771 26.4181 705.195 26.8326 704.302 23.7981C702.811 18.7293 713.316 18.8988 713.94 13.6795C714.885 5.77408 704.55 0.193862 696.042 1.6639C688.532 2.96152 683.651 15.5767 683.651 15.5767C683.651 15.5767 679.195 11.1132 675.391 9.88511C668.623 7.70039 657.493 13.6795 657.493 13.6795C657.493 13.6795 653.786 5.83157 649.232 6.09071C644.395 6.36598 642.348 15.5767 642.348 15.5767C642.348 15.5767 639.448 10.7327 636.153 9.88511C631.401 8.66268 625.139 15.5767 625.139 15.5767C623.992 14.9443 621.284 12.9206 619.632 9.88511C617.98 6.84959 614.813 11.1499 613.437 13.6795C609.306 10.3067 606.594 1.6639 598.981 1.6639C591.368 1.6639 588.655 9.04191 584.525 13.6795C584.525 13.6795 577.231 9.71168 572.134 9.88511C567.543 10.0413 561.12 13.6795 561.12 13.6795C561.12 13.6795 556.404 5.54455 551.483 6.09071C547.138 6.57288 543.911 13.6795 543.911 13.6795C543.911 13.6795 537.038 9.51849 532.208 9.88511C527.29 10.2584 521.194 15.5767 521.194 15.5767C521.194 15.5767 520.818 10.9558 518.441 9.88511C515.416 8.52289 510.868 13.6795 510.868 13.6795C510.868 13.6795 505.514 1.6639 498.478 1.6639C491.442 1.6639 486.087 13.6795 486.087 13.6795C486.087 13.6795 481.751 7.15505 477.138 6.09071C470.604 4.58309 461.994 13.6795 461.994 13.6795C461.994 13.6795 455.883 6.24236 450.291 6.09071C443.786 5.91428 437.212 15.5767 437.212 15.5767C437.212 15.5767 426.676 9.22815 419.314 9.88511C414.742 10.2931 408.3 13.6795 408.3 13.6795C408.3 13.6795 402.893 2.45035 395.91 1.6639C387.949 0.76747 380.077 13.6795 380.077 13.6795C380.077 13.6795 376.296 10.2953 373.193 9.88511C368.308 9.23941 362.179 15.5767 362.179 15.5767C362.179 15.5767 356.493 10.5881 351.853 9.88511C346.315 9.04593 338.086 13.6795 338.086 13.6795C338.086 13.6795 334.274 10.4605 331.202 9.88511C325.664 8.84784 318.123 15.5767 318.123 15.5767C318.123 15.5767 305.132 -1.25101 294.718 1.6639C287.988 3.54777 282.327 13.6795 282.327 13.6795C282.327 13.6795 275.208 8.4372 270.625 9.88511C267.389 10.9074 264.43 15.5767 264.43 15.5767C264.43 15.5767 254.098 6.91574 245.843 6.09071C236.459 5.15276 223.127 13.6795 223.127 13.6795C223.127 13.6795 220.425 6.43997 216.243 6.09071C211.7 5.71125 207.983 13.6795 207.983 13.6795C207.983 13.6795 205.918 1.6639 193.527 1.6639C185.712 1.6639 178.383 13.6795 178.383 13.6795C178.383 13.6795 174.136 10.3783 170.81 9.88511C166.026 9.17554 159.108 13.6795 159.108 13.6795C159.108 13.6795 149.325 3.72401 142.587 6.09071C138.499 7.52652 135.015 13.6795 135.015 13.6795C135.015 13.6795 130.341 10.232 126.754 9.88511C122.186 9.44332 115.74 13.6795 115.74 13.6795C115.74 13.6795 114.776 10.5701 112.987 9.88511C110.303 8.85766 106.791 13.6795 106.791 13.6795C106.791 13.6795 100.437 1.48927 93.0237 1.6639C85.8027 1.834 79.9446 13.6795 79.9446 13.6795C79.9446 13.6795 72.8766 6.64294 66.8654 6.09071C59.6878 5.43131 50.3444 13.6795 50.3444 13.6795C50.3444 13.6795 41.7488 9.55632 35.8885 9.88511C31.0511 10.1565 24.1861 13.6795 24.1861 13.6795C24.1861 13.6795 20.8224 10.4921 17.9907 9.88511C13.5171 8.92616 6.97665 13.6795 6.97665 13.6795C6.97665 13.6795 1.12091 1.6639 -6.10251 1.6639C-13.3259 1.6639 -19.1817 13.6795 -19.1817 13.6795C-19.1817 13.6795 -27.3916 9.16065 -32.9492 9.88511C-36.7601 10.3819 -41.8981 13.6795 -41.8981 13.6795C-41.8981 13.6795 -49.6546 4.45223 -55.6656 6.09071C-59.8611 7.23428 -63.2378 13.6795 -63.2378 13.6795C-63.2378 13.6795 -70.5358 10.145 -75.6286 9.88511C-81.7494 9.57272 -90.7729 13.6795 -90.7729 13.6795C-90.7729 13.6795 -100.952 1.52178 -110.047 1.6639C-118.922 1.80258 -128.634 13.6795 -128.634 13.6795C-128.634 13.6795 -147.52 -0.484959 -156.169 6.09071C-159.156 8.36161 -161.676 13.6795 -161.676 13.6795C-161.676 13.6795 -168.967 9.80291 -174.066 9.88511C-178.912 9.96321 -185.769 13.6795 -185.769 13.6795C-185.769 13.6795 -198.864 -1.54754 -208.485 1.6639C-214.761 3.75878 -219.499 13.6795 -219.499 13.6795C-219.499 13.6795 -226.789 9.88511 -231.89 9.88511C-236.991 9.88511 -244.281 13.6795 -244.281 13.6795C-244.281 13.6795 -250.389 6.09071 -255.983 6.09071C-261.577 6.09071 -267.686 13.6795 -267.686 13.6795C-267.686 13.6795 -271.463 10.2742 -274.57 9.88511C-278.627 9.37685 -284.207 13.6795 -284.207 13.6795C-284.207 13.6795 -283.94 7.52591 -286.96 6.09071C-290.379 4.46617 -295.909 9.88511 -295.909 9.88511C-295.909 9.88511 -306.397 -0.616406 -313.807 1.6639C-319.823 3.51527 -323.444 13.6795 -323.444 13.6795C-323.444 13.6795 -329.026 10.405 -333.082 9.88511C-339.153 9.10682 -348.226 13.6795 -348.226 13.6795C-348.226 13.6795 -353.39 5.92998 -358.551 6.09071C-363.506 6.24499 -368.189 13.6795 -368.189 13.6795C-368.189 13.6795 -372.904 10.4957 -376.449 9.88511C-382.22 8.89108 -390.905 13.6795 -390.905 13.6795C-390.905 13.6795 -389.937 11.0706 -390.905 9.88511C-392.518 7.90937 -396.412 13.6795 -396.412 13.6795C-396.412 13.6795 -400.857 2.76493 -407.426 1.6639C-415.316 0.341546 -423.259 13.6795 -423.259 13.6795Z" fill="#829F4F" stroke="#4F582B" stroke-width="2"/>
</svg>
