<svg width="250" height="90" viewBox="0 0 250 90" fill="none" xmlns="http://www.w3.org/2000/svg">
<mask id="mask0_3241_22766" style="mask-type:luminance" maskUnits="userSpaceOnUse" x="0" y="1" width="250" height="89">
<path d="M250 1H0V89.5998H250V1Z" fill="white"/>
</mask>
<g mask="url(#mask0_3241_22766)">
<path d="M36.9166 7.65647V1L3.97852 20.0895L9.64034 23.4178L36.9166 7.65647Z" fill="#F9AC58"/>
<path d="M42.6934 82.9813V89.5995L76.8173 69.8595L71.1554 66.5312L42.6934 82.9813Z" fill="#8770E8"/>
<path d="M73.8723 61.444L79.6106 64.8487L79.5723 24.5273L73.834 27.8939L73.8723 61.444Z" fill="#CE84C5"/>
<path d="M70.0842 23.4568L75.7461 20.0903L42.6934 1.03906V7.65728L70.0842 23.4568Z" fill="#FC866B"/>
<path d="M8.53015 66.5703L2.83008 69.9367L36.9158 89.5619V82.9437L8.53015 66.5703Z" fill="#41AEE5"/>
<path d="M5.73834 27.8169L0 24.4121L0.0382555 64.9249L5.77659 61.5201L5.73834 27.8169Z" fill="#3CC6C2"/>
<path d="M42.6934 67.6402L58.0337 58.7649L52.372 55.3984L42.6934 60.9837V67.6402Z" fill="#475370"/>
<path d="M27.3142 55.4375L21.6523 58.8039L36.9164 67.6026V60.9844L27.3142 55.4375Z" fill="#475370"/>
<path d="M51.2625 34.5875L56.9625 31.2209L42.6934 22.9961V29.6142L51.2625 34.5875Z" fill="#475370"/>
<path d="M36.9175 29.6142V22.9961L22.7246 31.1828L28.4248 34.5492L36.9175 29.6142Z" fill="#475370"/>
<path d="M24.7891 39.0649L19.0508 35.6602V53.6784L24.7891 50.2737V39.0649Z" fill="#475370"/>
<path d="M106.084 35.7363V38.5672C107.346 38.6438 108.685 38.988 109.565 40.0975C110.292 41.0155 110.751 42.4694 110.751 45.3002C110.751 48.0546 110.254 49.5849 109.565 50.4646C108.341 52.0332 106.351 52.0714 104.783 52.0714C102.679 52.0714 101.11 51.8801 100.001 50.4646C99.2358 49.4701 98.7769 47.9781 98.7769 45.3002C98.7769 42.431 99.2358 41.0538 100.001 40.0975C100.919 38.9498 102.182 38.6438 103.482 38.5672V35.7363C101.416 35.7746 99.0446 36.0807 97.3231 37.6874C95.2955 39.6002 95.1426 42.7371 95.1426 45.3002C95.1426 47.4042 95.1426 50.809 97.3231 52.913C99.3889 54.9024 102.564 54.9024 104.783 54.9024C106.887 54.9024 110.254 54.9024 112.243 52.913C114.27 50.8854 114.347 47.3278 114.347 45.3002C114.347 42.8518 114.117 39.5619 112.243 37.6874C110.636 36.0807 108.111 35.7746 106.084 35.7363Z" fill="#475370"/>
<path d="M131.522 43.7704H122.609V39.8684C122.609 39.6388 122.609 39.1798 122.876 38.912C123.106 38.7207 123.527 38.6824 123.871 38.6824H134.85V35.8516H121.614C120.619 35.8516 120.045 36.234 119.701 36.5401C119.127 37.114 119.051 37.9173 119.051 38.5676V52.1101C119.051 52.6457 119.089 53.3342 119.548 53.8698C119.892 54.2525 120.466 54.635 121.423 54.635H131.599C133.435 54.635 134.429 53.8698 134.812 53.4109C135.348 52.7988 135.845 51.6129 135.845 49.2027C135.845 47.4813 135.577 46.0275 134.889 45.1475C133.894 43.9235 132.479 43.7704 131.522 43.7704ZM132.173 49.1645C132.173 49.2027 132.173 49.2793 132.173 49.3558C132.173 49.9297 132.134 50.8861 131.599 51.4215C131.063 51.957 130.375 52.0337 129.762 52.0337H124.101C123.718 52.0337 123.029 51.9954 122.762 51.6129C122.723 51.5746 122.723 51.4981 122.685 51.345C122.647 51.1921 122.609 50.9625 122.609 50.4651V46.5631H129.762C130.336 46.5631 131.063 46.6014 131.599 47.0603C132.173 47.5959 132.173 48.3994 132.173 49.0879C132.173 49.1645 132.173 49.1645 132.173 49.1645Z" fill="#475370"/>
<path d="M129.763 51.8791H124.101C123.718 51.8791 123.03 51.9174 122.762 51.5349C122.724 51.4966 122.724 51.4583 122.686 51.3818C122.724 51.5347 122.724 51.6114 122.762 51.6495C123.03 52.0322 123.68 52.0703 124.101 52.0703H129.763C130.413 52.0703 131.063 51.9939 131.599 51.4583C132.135 50.9227 132.173 50.0046 132.173 49.3926C132.173 49.9663 132.135 50.8462 131.599 51.3435C131.063 51.8791 130.413 51.8791 129.763 51.8791Z" fill="#475370"/>
<path d="M152.18 35.9277H143.266C142.616 35.9277 141.774 36.0425 141.162 36.6546C140.512 37.3049 140.512 38.0317 140.512 38.7588V54.7113H144.031V48.0547H152.83C153.939 48.0547 155.011 47.7104 155.699 47.1367C157.191 45.9124 157.344 43.5024 157.344 42.0104C157.344 40.442 157.229 38.2996 155.929 37.0754C154.743 35.9277 153.174 35.9277 152.18 35.9277ZM153.672 41.9721C153.672 42.6991 153.633 43.8849 153.06 44.5352C152.447 45.2239 151.529 45.2239 150.764 45.2239H144.031V39.8681C144.031 39.6768 144.031 39.4473 144.108 39.256C144.146 39.1412 144.184 39.0265 144.299 38.9117C144.567 38.644 144.873 38.6057 145.141 38.6057H150.841C151.415 38.6057 152.409 38.6821 153.021 39.2943C153.595 39.9445 153.672 41.0923 153.672 41.9721C153.672 41.9339 153.672 41.9339 153.672 41.9721Z" fill="#475370"/>
<path d="M153.023 39.333C152.411 38.721 151.416 38.6445 150.842 38.6445H145.142C144.913 38.6445 144.569 38.6827 144.301 38.9506C144.186 39.0653 144.148 39.1801 144.109 39.2949C144.148 39.1801 144.186 39.1035 144.301 38.9887C144.569 38.721 144.875 38.7593 145.142 38.7593H150.842C151.416 38.7593 152.411 38.7974 153.023 39.4095C153.597 40.0217 153.673 41.131 153.673 41.9726C153.673 41.0929 153.597 39.9451 153.023 39.333Z" fill="#475370"/>
<path d="M165.99 50.0833C165.607 49.5096 165.11 48.3237 165.11 45.531C165.11 42.7383 165.607 41.3229 166.143 40.4811C167.214 38.8746 168.974 38.7215 171.078 38.7215H176.931V35.8906H169.395C168.056 35.8906 165.148 36.0435 163.274 38.2623C161.705 40.0987 161.438 42.853 161.438 45.531C161.438 47.5968 161.552 50.466 163.35 52.4552C165.11 54.4063 167.52 54.6357 169.318 54.6357H177.237V51.8813H170.887C168.668 51.8813 166.946 51.5372 165.99 50.0833Z" fill="#475370"/>
<path d="M192.042 35.7363V38.5672C193.304 38.6438 194.644 38.988 195.523 40.0975C196.252 41.0155 196.71 42.4694 196.71 45.3002C196.71 48.0546 196.213 49.5849 195.523 50.4648C194.299 52.0332 192.31 52.0714 190.742 52.0714C188.638 52.0714 187.069 51.8801 185.96 50.4648C185.195 49.4701 184.735 47.9781 184.735 45.3002C184.735 42.431 185.195 41.0538 185.96 40.0975C186.877 38.9498 188.14 38.6438 189.441 38.5672V35.7363C187.376 35.7746 185.003 36.0807 183.283 37.6874C181.254 39.6002 181.102 42.7371 181.102 45.3002C181.102 47.4042 181.102 50.809 183.283 52.9132C185.348 54.9024 188.523 54.9024 190.742 54.9024C192.846 54.9024 196.213 54.9024 198.202 52.9132C200.23 50.8856 200.306 47.3278 200.306 45.3002C200.306 42.8518 200.076 39.5619 198.202 37.6874C196.595 36.0807 194.071 35.7746 192.042 35.7363Z" fill="#475370"/>
<path d="M220.543 35.7363C218.286 35.7363 215.149 35.7363 213.083 37.7256C211.591 39.1411 210.903 41.6277 210.941 43.7318H208.569V35.9276H205.049V54.6728H208.569V46.5245H210.941C210.903 48.6285 211.514 51.3829 213.083 52.9132C215.149 54.9024 218.324 54.9024 220.543 54.9024C222.762 54.9024 225.938 54.9024 228.003 52.9132C230.031 51.0004 230.146 47.825 230.146 45.3002C230.146 42.0486 229.801 39.3706 228.003 37.6874C225.899 35.7363 222.839 35.7363 220.543 35.7363ZM225.324 50.4648C224.215 51.8801 222.647 52.0714 220.543 52.0714C218.593 52.0714 216.87 51.9568 215.761 50.4648C215.073 49.5465 214.574 48.0546 214.574 45.3002C214.574 42.4694 215.034 41.0155 215.761 40.0975C216.985 38.5672 218.936 38.529 220.543 38.529C222.188 38.529 224.062 38.5672 225.324 40.0975C226.089 41.0538 226.549 42.431 226.549 45.3002C226.511 47.9781 226.089 49.4701 225.324 50.4648Z" fill="#475370"/>
<path d="M249.428 46.5993C248.929 45.7577 247.973 45.2602 246.979 45.2221V45.1073C247.552 44.9542 248.127 44.6865 248.546 44.2657C249.541 43.3093 249.617 42.1617 249.617 40.9757C249.617 39.5985 249.502 38.1447 248.47 37.0735C247.285 35.8878 245.754 35.9259 244.53 35.9259H234.659V38.7569H243.727C244.3 38.7569 244.913 38.7951 245.371 39.1394C246.023 39.675 245.984 40.5549 245.984 41.2434C245.984 41.8173 246.023 42.6973 245.524 43.1945C245.105 43.6153 244.262 43.7683 243.077 43.7683H234.966V46.5993H243.535C245.028 46.5993 245.524 46.9818 245.678 47.0965C246.327 47.6704 246.366 48.6268 246.366 49.2006C246.366 49.9657 246.327 50.9985 245.448 51.496C244.875 51.802 243.535 51.8403 243.229 51.8403H234.621V54.6712H244.3C245.601 54.6712 247.247 54.5947 248.318 53.906C249.886 52.9113 250.001 50.9985 250.001 49.6597C249.962 48.1294 249.809 47.2113 249.428 46.5993Z" fill="#475370"/>
</g>
</svg>
