<svg width="56" height="56" viewBox="0 0 56 56" fill="none" xmlns="http://www.w3.org/2000/svg">
<rect width="56" height="56" rx="28" fill="#829F4F"/>
<g clip-path="url(#clip0_465_3489)">
<path d="M21.3525 22.4875C18.925 25.6075 18.9675 31.15 22.07 33.8975C25.5925 37.015 30.55 36.9825 33.6675 34.115C37.405 30.675 37.19 24.95 33.885 21.7075C30.5625 18.4475 24.625 18.2775 21.3525 22.4875Z" fill="#FFE35E"/>
<path d="M25.2501 21.4175C24.2901 20.9925 23.2401 22.15 22.7826 22.94C22.3251 23.7325 21.9001 25.285 22.8751 25.6825C23.8501 26.0775 24.5501 25.4075 25.2526 24.25C25.9501 23.0925 26.3476 21.905 25.2501 21.4175Z" fill="#FFFF90"/>
<path d="M27.75 17.0675C27.5175 17.5025 27.595 17.8375 28.0575 17.9475C28.52 18.0575 31.3975 18.525 31.64 18.54C31.9925 18.5625 32.1225 18.2975 32.08 17.99C32.035 17.6825 31.3325 13.375 31.2675 12.98C31.2025 12.585 30.785 12.19 30.3875 12.7175C29.99 13.245 27.925 16.74 27.75 17.0675ZM35.2 20.0575C34.7475 20.1975 34.76 20.475 35.0025 20.8275C35.245 21.18 36.915 23.7275 37.0675 23.905C37.2225 24.08 37.485 24.125 37.705 23.86C37.925 23.5975 40.67 19.7475 40.87 19.5075C41.2 19.1125 41.0025 18.695 40.4975 18.825C40.1125 18.9275 35.485 19.97 35.2 20.0575ZM38.65 27.465C38.325 27.28 37.9025 27.3325 37.7925 27.75C37.6825 28.1675 37.2 31.2 37.155 31.465C37.11 31.73 37.31 31.9925 37.6375 31.9275C37.965 31.8625 42.5 31.19 42.8025 31.115C43.33 30.9825 43.505 30.455 42.9575 30.06C42.6025 29.8025 38.9575 27.64 38.65 27.465ZM35.0225 34.65C35.3725 34.4625 35.6825 34.605 35.77 35.0025C35.8575 35.3975 36.825 39.4425 36.98 40.19C37.0575 40.565 36.6275 40.8725 36.2775 40.6525C35.925 40.4325 32.105 37.77 31.86 37.5525C31.5075 37.245 31.7525 36.925 31.925 36.7625C32.275 36.43 34.6925 34.8275 35.0225 34.65ZM24.385 36.87C23.9425 36.8275 23.8125 37.2225 23.88 37.5725C23.945 37.925 24.605 42.3825 24.65 42.715C24.715 43.1975 25.2225 43.3975 25.55 42.9125C25.8775 42.4275 28.1375 38.8125 28.32 38.4725C28.65 37.8575 28.4075 37.725 28.0775 37.5725C27.75 37.42 24.8475 36.915 24.385 36.87ZM18.0575 31.75C18.365 31.245 18.76 31.3775 19.0475 31.86C19.2425 32.19 20.8925 34.41 21.0475 34.65C21.2025 34.8925 21.2675 35.3525 20.785 35.4625C20.2975 35.575 16.365 36.6075 15.75 36.7175C15.135 36.8275 14.7825 36.345 15.1775 35.8175C15.4075 35.5075 17.8825 32.0375 18.0575 31.75ZM17.2225 27.925C17.785 28.175 18.05 28.085 18.1675 27.6825C18.3225 27.155 18.7825 24.7375 18.805 24.1875C18.82 23.83 18.6725 23.485 18.1225 23.5725C17.5725 23.66 13.6175 24.2125 13.1125 24.3875C12.525 24.5925 12.5675 25.2375 12.9575 25.4425C13.42 25.685 16.825 27.75 17.2225 27.925ZM24.0575 18.695C24.375 18.4425 24.2775 18.08 23.9925 17.8825C23.7075 17.685 20.1775 15.1325 19.73 14.7825C19.335 14.475 18.85 14.585 18.9825 15.2875C19.0775 15.7925 20.2025 20.2125 20.28 20.5175C20.3675 20.87 20.6325 21.045 20.94 20.825C21.2425 20.6075 23.7275 18.96 24.0575 18.695Z" fill="#FFE35E"/>
</g>
<defs>
<clipPath id="clip0_465_3489">
<rect width="32" height="32" fill="white" transform="translate(12 12)"/>
</clipPath>
</defs>
</svg>
