<svg width="141" height="21" viewBox="0 0 141 21" fill="none" xmlns="http://www.w3.org/2000/svg">
<g clip-path="url(#clip0_2001_381)">
<path fill-rule="evenodd" clip-rule="evenodd" d="M23.9593 5.23587L20.2526 7.73603C20.1571 7.80051 20.0998 7.90824 20.0998 8.02347V12.5633C20.0998 12.7547 20.255 12.91 20.4465 12.91C20.5156 12.91 20.583 12.8893 20.6404 12.8507L24.347 10.3505C24.4425 10.286 24.4998 10.1783 24.4998 10.0631V5.52331C24.4998 5.33179 24.3446 5.17664 24.1532 5.17664C24.0841 5.17664 24.0166 5.19725 23.9593 5.23586L23.9593 5.23587ZM13.1664 4.15624V20.1534C13.1664 20.3448 13.3216 20.5 13.5131 20.5C13.5822 20.5 13.6497 20.4794 13.707 20.4408L18.6136 17.1312C18.7092 17.0667 18.7664 16.959 18.7664 16.8438V0.846671C18.7664 0.6552 18.6112 0.5 18.4198 0.5C18.3507 0.5 18.2832 0.520638 18.2259 0.559309L13.3193 3.86886C13.2237 3.93332 13.1664 4.041 13.1664 4.15625V4.15624ZM6.2331 4.15624V20.1534C6.2331 20.3448 6.3883 20.5 6.57977 20.5C6.64886 20.5 6.71635 20.4794 6.77363 20.4408L11.6803 17.1312C11.7758 17.0667 11.8331 16.959 11.8331 16.8438V0.846671C11.8331 0.6552 11.6779 0.5 11.4864 0.5C11.4174 0.5 11.3498 0.520638 11.2926 0.559309L6.38592 3.86886C6.2904 3.93332 6.2331 4.041 6.2331 4.15625V4.15624ZM4.35925 5.23587L0.652555 7.73603C0.557061 7.80051 0.499756 7.90824 0.499756 8.02347V12.5633C0.499756 12.7547 0.654956 12.91 0.846427 12.91C0.915518 12.91 0.983011 12.8893 1.04029 12.8507L4.74696 10.3505C4.84248 10.286 4.89976 10.1783 4.89976 10.0631V5.52331C4.89976 5.33179 4.74456 5.17664 4.55309 5.17664C4.48402 5.17664 4.41653 5.19725 4.35925 5.23586V5.23587ZM38.1234 14.7804L38.9673 13.9365V12.2244H37.2674V13.0682H32.9992V7.9318H37.2674V8.78788H38.9673V7.08796L38.1234 6.21965H32.1309L31.2871 7.08796V13.9366L32.1309 14.7804H38.1234V14.7804ZM40.8662 6.21963V14.7804H48.1306V13.0682H42.5783V6.21963H40.8662ZM49.7848 6.21963V13.9365L50.6287 14.7804H56.6212L57.465 13.9365V6.21963H55.7651V13.0682H51.497V6.21963H49.7849H49.7848ZM61.1984 13.0682V11.3683H65.4665V13.0682H61.1984ZM61.1984 9.65617V7.93179H65.4665V9.65617H61.1984ZM66.3226 14.7804L67.1664 13.9365V11.3683L66.3226 10.5122L67.1664 9.65616V7.08794L66.3226 6.21962H59.4862V14.7804H66.3226V14.7804Z" fill="#315720"/>
</g>
<path d="M79.1667 2.5L79.1667 18.5" stroke="#315720" stroke-linecap="round"/>
<path d="M92.3347 3.176H94.1907V15H92.3347V3.176ZM98.1386 4.936H95.7706V3.176H102.347V4.936H99.9946V15H98.1386V4.936ZM103.687 6.168H105.495V15H103.687V6.168ZM103.687 3.176H105.495V5.176H103.687V3.176ZM108.24 7.816H106.928V6.168H108.24V3.176H110.064V6.168H111.568V7.816H110.064V15H108.24V7.816ZM112.615 10.616C112.615 9.944 112.727 9.32533 112.951 8.76C113.186 8.184 113.501 7.69333 113.895 7.288C114.301 6.872 114.781 6.54667 115.335 6.312C115.901 6.07733 116.509 5.96 117.159 5.96C117.842 5.96 118.429 6.08267 118.919 6.328C119.41 6.56267 119.847 6.94667 120.231 7.48V6.168H121.927V15H120.231V13.72C119.794 14.2533 119.341 14.6373 118.871 14.872C118.402 15.096 117.831 15.208 117.159 15.208C116.498 15.208 115.89 15.096 115.335 14.872C114.781 14.6373 114.301 14.3173 113.895 13.912C113.49 13.496 113.175 13.0107 112.951 12.456C112.727 11.8907 112.615 11.2773 112.615 10.616ZM114.439 10.632C114.439 11.048 114.509 11.4373 114.647 11.8C114.797 12.152 114.999 12.4613 115.255 12.728C115.522 12.984 115.831 13.1867 116.183 13.336C116.546 13.4747 116.935 13.544 117.351 13.544C117.767 13.544 118.146 13.4747 118.487 13.336C118.839 13.1867 119.143 12.984 119.399 12.728C119.655 12.4613 119.853 12.1467 119.991 11.784C120.13 11.4213 120.199 11.0267 120.199 10.6C120.199 10.1627 120.125 9.76267 119.975 9.4C119.837 9.03733 119.634 8.728 119.367 8.472C119.111 8.20533 118.802 7.99733 118.439 7.848C118.087 7.69867 117.698 7.624 117.271 7.624C116.866 7.624 116.487 7.704 116.135 7.864C115.794 8.01333 115.495 8.22133 115.239 8.488C114.994 8.75467 114.797 9.07467 114.647 9.448C114.509 9.81067 114.439 10.2053 114.439 10.632ZM124.069 6.168H125.781V7.112C126.155 6.70667 126.544 6.41333 126.949 6.232C127.355 6.05067 127.829 5.96 128.373 5.96C129.568 5.96 130.453 6.31733 131.029 7.032C131.605 7.736 131.893 8.824 131.893 10.296V15H130.085V10.584C130.085 9.54933 129.92 8.79733 129.589 8.328C129.269 7.85867 128.757 7.624 128.053 7.624C127.317 7.624 126.768 7.86933 126.405 8.36C126.053 8.84 125.877 9.592 125.877 10.616V15H124.069V6.168ZM135.182 12.264C135.342 13.1173 135.785 13.544 136.51 13.544C136.841 13.544 137.113 13.4427 137.326 13.24C137.54 13.0373 137.646 12.776 137.646 12.456C137.646 12.264 137.604 12.104 137.518 11.976C137.433 11.8373 137.316 11.72 137.166 11.624C137.028 11.528 136.862 11.4427 136.67 11.368C136.478 11.2933 136.281 11.2187 136.078 11.144C135.204 10.8347 134.585 10.488 134.222 10.104C133.86 9.70933 133.678 9.20267 133.678 8.584C133.678 8.21067 133.748 7.864 133.886 7.544C134.025 7.224 134.217 6.94667 134.462 6.712C134.718 6.47733 135.017 6.296 135.358 6.168C135.7 6.02933 136.068 5.96 136.462 5.96C136.857 5.96 137.22 6.024 137.55 6.152C137.881 6.28 138.169 6.456 138.414 6.68C138.66 6.904 138.852 7.176 138.99 7.496C139.14 7.80533 139.22 8.14667 139.23 8.52H137.438C137.353 7.92267 137.028 7.624 136.462 7.624C136.185 7.624 135.956 7.70933 135.774 7.88C135.593 8.05067 135.502 8.25867 135.502 8.504C135.502 8.67467 135.55 8.824 135.646 8.952C135.753 9.08 135.886 9.192 136.046 9.288C136.206 9.384 136.382 9.46933 136.574 9.544C136.766 9.61867 136.958 9.688 137.15 9.752C137.972 10.0187 138.564 10.3493 138.926 10.744C139.289 11.1387 139.47 11.6507 139.47 12.28C139.47 12.696 139.39 13.0853 139.23 13.448C139.081 13.8 138.873 14.1093 138.606 14.376C138.34 14.632 138.02 14.8347 137.646 14.984C137.284 15.1333 136.889 15.208 136.462 15.208C135.556 15.208 134.825 14.952 134.27 14.44C133.726 13.9173 133.422 13.192 133.358 12.264H135.182Z" fill="#315720"/>
<defs>
<clipPath id="clip0_2001_381">
<rect width="66.6668" height="20" fill="white" transform="translate(0.5 0.5)"/>
</clipPath>
</defs>
</svg>
