<svg width="20" height="20" viewBox="0 0 20 20" fill="none" xmlns="http://www.w3.org/2000/svg">
<path d="M5.83333 9.16669C2.5 9.16669 2.5 11.4917 2.5 13.3334V14.1667C2.5 16.4667 2.5 18.3334 6.66667 18.3334H13.3333C16.6667 18.3334 17.5 16.4667 17.5 14.1667V13.3334C17.5 11.4917 17.5 9.16669 14.1667 9.16669L11.6667 9.16674L8.33333 9.16673L5.83333 9.16669Z" stroke="#FBFBF1" stroke-width="1.5" stroke-miterlimit="10" stroke-linecap="round" stroke-linejoin="round"/>
<path d="M11.6654 13.3334C11.6654 14.2538 10.9192 15 9.9987 15C9.07822 15 8.33203 14.2538 8.33203 13.3334C8.33203 12.4129 9.07822 11.6667 9.9987 11.6667C10.9192 11.6667 11.6654 12.4129 11.6654 13.3334Z" stroke="#FBFBF1"/>
<path d="M15 9.16669V5.00002C15 3.15835 12.8571 1.66669 10 1.66669C7.14286 1.66669 5 3.15835 5 5.00002V9.16669" stroke="#FBFBF1" stroke-width="1.5" stroke-miterlimit="10" stroke-linecap="round" stroke-linejoin="round"/>
</svg>
