<?xml version="1.0" encoding="utf-8"?>
<!-- Generator: Adobe Illustrator 24.1.2, SVG Export Plug-In . SVG Version: 6.00 Build 0)  -->
<svg version="1.1" id="Слой_1" xmlns="http://www.w3.org/2000/svg" xmlns:xlink="http://www.w3.org/1999/xlink" x="0px" y="0px"
	 viewBox="0 0 49 48" style="enable-background:new 0 0 49 48;" xml:space="preserve">
<style type="text/css">
	.st0{fill-rule:evenodd;clip-rule:evenodd;fill:#315720;}
</style>
<path class="st0" d="M0.5,24c0,13.3,10.7,24,24,24s24-10.7,24-24S37.8,0,24.5,0S0.5,10.7,0.5,24z M20.1,35l0.4-6.1l0,0l11.1-10
	c0.5-0.4-0.1-0.6-0.8-0.3l-13.7,8.7l-5.9-1.9c-1.3-0.4-1.3-1.3,0.3-1.9l23.1-8.9c1.1-0.5,2.1,0.3,1.7,1.9L32.4,35
	c-0.3,1.3-1.1,1.6-2.2,1l-6-4.4l-2.9,2.8c0,0,0,0,0,0C21,34.7,20.7,35,20.1,35z"/>
</svg>
