<svg width="49" height="48" viewBox="0 0 49 48" fill="none" xmlns="http://www.w3.org/2000/svg">
<path fill-rule="evenodd" clip-rule="evenodd" d="M24.5 0C11.2452 0 0.5 10.7452 0.5 24C0.5 37.2548 11.2452 48 24.5 48C37.7548 48 48.5 37.2548 48.5 24C48.5 10.7452 37.7548 0 24.5 0ZM26.4541 31.5762C26.2175 31.8257 25.7555 31.8761 25.7555 31.8761H24.2254C24.2254 31.8761 20.8497 32.0752 17.876 29.037C14.6331 25.7222 11.7695 19.1455 11.7695 19.1455C11.7695 19.1455 11.6043 18.7141 11.7833 18.5064C11.9849 18.2717 12.5346 18.2569 12.5346 18.2569L16.1919 18.2336C16.1919 18.2336 16.5363 18.2889 16.7829 18.4671C16.987 18.6146 17.101 18.8887 17.101 18.8887C17.101 18.8887 17.692 20.3562 18.4745 21.6835C20.0033 24.2756 20.7145 24.8422 21.2329 24.5644C21.9892 24.1601 21.7625 20.9006 21.7625 20.9006C21.7625 20.9006 21.7763 19.7183 21.3819 19.191C21.0764 18.783 20.5004 18.6637 20.2462 18.6306C20.0396 18.6035 20.3777 18.134 20.8159 17.9239C21.4745 17.608 22.6365 17.5896 24.01 17.6031C25.0806 17.6141 25.3886 17.6793 25.8068 17.7788C26.7774 18.0087 26.7471 18.7455 26.6817 20.3357C26.6621 20.8113 26.6394 21.3631 26.6394 22.0006C26.6394 22.1439 26.6352 22.2966 26.6308 22.4537C26.6081 23.2683 26.5821 24.2012 27.129 24.5485C27.4095 24.7254 28.0944 24.5743 29.8085 21.7179C30.6211 20.3635 31.2296 18.7719 31.2296 18.7719C31.2296 18.7719 31.3636 18.488 31.5702 18.3663C31.7818 18.2422 32.0673 18.2803 32.0673 18.2803L35.9162 18.2569C35.9162 18.2569 37.0732 18.1205 37.2597 18.6343C37.4563 19.1713 36.8278 20.4274 35.2551 22.4849C33.7633 24.4371 33.0374 25.1558 33.104 25.7915C33.1527 26.256 33.6246 26.6761 34.5302 27.5006C36.4205 29.2235 36.9273 30.1299 37.049 30.3477C37.0591 30.3657 37.0665 30.379 37.0719 30.3877C37.9196 31.7679 36.1316 31.8761 36.1316 31.8761L32.7121 31.9228C32.7121 31.9228 31.9784 32.0654 31.0118 31.414C30.5054 31.073 30.0106 30.5162 29.5394 29.9858C28.8196 29.1758 28.1548 28.4276 27.5873 28.6043C26.6344 28.9018 26.6632 30.9162 26.6632 30.9162C26.6632 30.9162 26.6707 31.3476 26.4541 31.5762Z" fill="#315720"/>
</svg>
