<svg width="721" height="370" viewBox="0 0 721 370" fill="none" xmlns="http://www.w3.org/2000/svg">
<path opacity="0.2" d="M721 23H624C624 19.3929 628.822 18.838 630.807 19.9478C631.091 18.283 635.061 17.7281 638.181 18.838C640.734 14.676 646.69 16.0633 650.094 17.1732C648.392 -6.1341 680.158 -2.8045 680.158 9.95906C689.801 5.24209 695.757 13.5661 694.056 17.7281C698.877 16.6182 702.281 18.283 704.55 19.9478C706.535 18.283 711.924 18.838 713.626 20.7803C716.575 19.0045 719.771 21.5202 721 23Z" fill="#FBFBF1"/>
<path opacity="0.2" d="M292 370H155C155 364.825 161.81 364.028 164.614 365.621C165.015 363.232 170.623 362.436 175.029 364.028C178.635 358.057 187.047 360.047 191.854 361.64C189.45 328.199 234.316 332.976 234.316 351.289C247.936 344.521 256.348 356.464 253.944 362.436C260.754 360.844 265.561 363.232 268.766 365.621C271.57 363.232 279.181 364.028 281.585 366.815C285.751 364.267 290.264 367.877 292 370Z" fill="#FBFBF1"/>
<path opacity="0.2" d="M144 39H7C7 33.8246 13.8099 33.0284 16.614 34.6208C17.0146 32.2321 22.6228 31.436 27.0292 33.0284C30.6345 27.0568 39.0468 29.0474 43.8538 30.6398C41.4503 -2.80111 86.3158 1.97615 86.3158 20.2891C99.9357 13.5213 108.348 25.4645 105.944 31.436C112.754 29.8435 117.561 32.2322 120.766 34.6208C123.57 32.2322 131.181 33.0284 133.585 35.8151C137.751 33.2673 142.264 36.8768 144 39Z" fill="#FBFBF1"/>
<path opacity="0.2" d="M137 275H0C0 269.825 6.80994 269.028 9.61403 270.621C10.0146 268.232 15.6228 267.436 20.0292 269.028C23.6345 263.057 32.0468 265.047 36.8538 266.64C34.4503 233.199 79.3158 237.976 79.3158 256.289C92.9357 249.521 101.348 261.464 98.9444 267.436C105.754 265.844 110.561 268.232 113.766 270.621C116.57 268.232 124.181 269.028 126.585 271.815C130.751 269.267 135.264 272.877 137 275Z" fill="#FBFBF1"/>
<path opacity="0.2" d="M721 360H624C624 356.393 628.822 355.838 630.807 356.948C631.091 355.283 635.061 354.728 638.181 355.838C640.734 351.676 646.69 353.063 650.094 354.173C648.392 330.866 680.158 334.195 680.158 346.959C689.801 342.242 695.757 350.566 694.056 354.728C698.877 353.618 702.281 355.283 704.55 356.948C706.535 355.283 711.924 355.838 713.626 357.78C716.575 356.004 719.771 358.52 721 360Z" fill="#FBFBF1"/>
</svg>
