<svg width="730" height="1024" viewBox="0 0 730 1024" fill="none" xmlns="http://www.w3.org/2000/svg">
<g opacity="0.2">
<path d="M249 885H15C15 876.218 26.6316 874.866 31.4211 877.569C32.1053 873.515 41.6842 872.164 49.2105 874.866C55.3684 864.733 69.7368 868.111 77.9474 870.813C73.8421 814.065 150.474 822.172 150.474 853.248C173.737 841.763 188.105 862.031 184 872.164C195.632 869.462 203.842 873.515 209.316 877.569C214.105 873.515 227.105 874.866 231.211 879.595C238.326 875.272 246.035 881.397 249 885Z" fill="#FBFBF1"/>
<path d="M193 197H5C5 189.786 14.345 188.676 18.193 190.896C18.7427 187.566 26.4386 186.456 32.4854 188.676C37.4327 180.352 48.9766 183.127 55.5731 185.346C52.2749 138.732 113.842 145.391 113.842 170.918C132.532 161.484 144.076 178.132 140.778 186.456C150.123 184.236 156.719 187.566 161.117 190.896C164.965 187.566 175.409 188.676 178.708 192.561C184.425 189.009 190.618 194.04 193 197Z" fill="#FBFBF1"/>
<path d="M697 181H335C335 167.199 352.994 165.076 360.404 169.322C361.462 162.952 376.281 160.829 387.924 165.076C397.45 149.151 419.678 154.46 432.38 158.706C426.029 69.5304 544.579 82.2697 544.579 131.104C580.567 113.057 602.795 144.905 596.444 160.829C614.439 156.583 627.14 162.952 635.608 169.322C643.018 162.952 663.129 165.076 669.48 172.507C680.488 165.713 692.413 175.338 697 181Z" fill="#FBFBF1"/>
<path d="M406 59H263C263 53.6678 270.108 52.8474 273.035 54.4881C273.453 52.027 279.307 51.2068 283.906 52.8474C287.67 46.6949 296.45 48.7458 301.468 50.3864C298.959 15.9322 345.789 20.8542 345.789 39.7221C360.006 32.7492 368.787 45.0543 366.278 51.2068C373.386 49.5661 378.404 52.0271 381.749 54.4881C384.675 52.0271 392.62 52.8474 395.129 55.7186C399.477 53.0935 404.188 56.8124 406 59Z" fill="#FBFBF1"/>
<path d="M704 843H529C529 836.099 537.699 835.038 541.281 837.161C541.792 833.976 548.956 832.915 554.585 835.038C559.19 827.076 569.936 829.73 576.076 831.853C573.006 787.265 630.316 793.635 630.316 818.052C647.713 809.028 658.459 824.953 655.389 832.915C664.088 830.791 670.228 833.976 674.322 837.161C677.904 833.976 687.626 835.038 690.696 838.754C696.018 835.356 701.783 840.169 704 843Z" fill="#FBFBF1"/>
<path d="M589 1010H280C280 998.238 295.36 996.428 301.684 1000.05C302.588 994.618 315.237 992.809 325.175 996.428C333.307 982.856 352.281 987.38 363.123 991C357.702 914.997 458.895 925.855 458.895 967.475C489.614 952.094 508.588 979.237 503.167 992.809C518.526 989.19 529.368 994.619 536.596 1000.05C542.921 994.619 560.088 996.428 565.509 1002.76C574.905 996.971 585.085 1005.17 589 1010Z" fill="#FBFBF1"/>
</g>
</svg>
