<svg width="1440" height="1024" viewBox="0 0 1440 1024" fill="none" xmlns="http://www.w3.org/2000/svg">
<g opacity="0.2">
<path d="M864 905H630C630 896.218 641.632 894.866 646.421 897.569C647.105 893.515 656.684 892.164 664.211 894.866C670.368 884.733 684.737 888.111 692.947 890.813C688.842 834.065 765.474 842.172 765.474 873.248C788.737 861.763 803.105 882.031 799 892.164C810.632 889.462 818.842 893.515 824.316 897.569C829.105 893.515 842.105 894.866 846.211 899.595C853.326 895.272 861.035 901.397 864 905Z" fill="#FBFBF1"/>
<path d="M973 556H691C691 545.492 705.018 543.876 710.789 547.109C711.614 542.259 723.158 540.643 732.228 543.876C739.649 531.752 756.965 535.793 766.86 539.026C761.912 471.131 854.263 480.83 854.263 518.011C882.298 504.27 899.614 528.519 894.667 540.643C908.684 537.41 918.579 542.259 925.175 547.109C930.947 542.259 946.614 543.876 951.561 549.534C960.137 544.361 969.427 551.689 973 556Z" fill="#FBFBF1"/>
<path d="M273 141H39C39 132.218 50.6316 130.866 55.4211 133.569C56.1053 129.515 65.6842 128.164 73.2105 130.866C79.3684 120.733 93.7368 124.111 101.947 126.813C97.8421 70.0648 174.474 78.1716 174.474 109.248C197.737 97.7633 212.105 118.031 208 128.164C219.632 125.462 227.842 129.515 233.316 133.569C238.105 129.515 251.105 130.866 255.211 135.595C262.326 131.272 270.035 137.397 273 141Z" fill="#FBFBF1"/>
<path d="M747 208H559C559 200.786 568.345 199.676 572.193 201.896C572.743 198.566 580.439 197.456 586.485 199.676C591.433 191.352 602.977 194.127 609.573 196.346C606.275 149.732 667.842 156.391 667.842 181.918C686.532 172.484 698.076 189.132 694.778 197.456C704.123 195.236 710.719 198.566 715.117 201.896C718.965 198.566 729.409 199.676 732.708 203.561C738.425 200.009 744.618 205.04 747 208Z" fill="#FBFBF1"/>
<path d="M412 481H224C224 473.786 233.345 472.676 237.193 474.896C237.743 471.566 245.439 470.456 251.485 472.676C256.433 464.352 267.977 467.127 274.573 469.346C271.275 422.732 332.842 429.391 332.842 454.918C351.532 445.484 363.076 462.132 359.778 470.456C369.123 468.236 375.719 471.566 380.117 474.896C383.965 471.566 394.409 472.676 397.708 476.561C403.425 473.009 409.618 478.04 412 481Z" fill="#FBFBF1"/>
<path d="M1425 208H1063C1063 194.199 1080.99 192.076 1088.4 196.322C1089.46 189.952 1104.28 187.829 1115.92 192.076C1125.45 176.151 1147.68 181.46 1160.38 185.706C1154.03 96.5304 1272.58 109.27 1272.58 158.104C1308.57 140.057 1330.8 171.905 1324.44 187.829C1342.44 183.583 1355.14 189.952 1363.61 196.322C1371.02 189.952 1391.13 192.076 1397.48 199.507C1408.49 192.713 1420.41 202.338 1425 208Z" fill="#FBFBF1"/>
<path d="M383 829H21C21 815.199 38.9942 813.076 46.4035 817.322C47.462 810.952 62.2807 808.829 73.924 813.076C83.4503 797.151 105.678 802.46 118.38 806.706C112.029 717.53 230.579 730.27 230.579 779.104C266.567 761.057 288.795 792.905 282.444 808.829C300.439 804.583 313.14 810.952 321.608 817.322C329.018 810.952 349.129 813.076 355.48 820.507C366.488 813.713 378.413 823.338 383 829Z" fill="#FBFBF1"/>
<path d="M1116 59H973C973 53.6678 980.108 52.8474 983.035 54.4881C983.453 52.027 989.307 51.2068 993.906 52.8474C997.67 46.6949 1006.45 48.7458 1011.47 50.3864C1008.96 15.9322 1055.79 20.8542 1055.79 39.7221C1070.01 32.7492 1078.79 45.0543 1076.28 51.2068C1083.39 49.5661 1088.4 52.0271 1091.75 54.4881C1094.68 52.0271 1102.62 52.8474 1105.13 55.7186C1109.48 53.0935 1114.19 56.8124 1116 59Z" fill="#FBFBF1"/>
<path d="M1440 567H1265C1265 560.099 1273.7 559.038 1277.28 561.161C1277.79 557.976 1284.96 556.915 1290.58 559.038C1295.19 551.076 1305.94 553.73 1312.08 555.853C1309.01 511.265 1366.32 517.635 1366.32 542.052C1383.71 533.028 1394.46 548.953 1391.39 556.915C1400.09 554.791 1406.23 557.976 1410.32 561.161C1413.9 557.976 1423.63 559.038 1426.7 562.754C1432.02 559.356 1437.78 564.169 1440 567Z" fill="#FBFBF1"/>
<path d="M1425 980H1116C1116 968.238 1131.36 966.428 1137.68 970.047C1138.59 964.618 1151.24 962.809 1161.18 966.428C1169.31 952.856 1188.28 957.38 1199.12 961C1193.7 884.997 1294.89 895.855 1294.89 937.475C1325.61 922.094 1344.59 949.237 1339.17 962.809C1354.53 959.19 1365.37 964.619 1372.6 970.047C1378.92 964.619 1396.09 966.428 1401.51 972.762C1410.91 966.971 1421.08 975.174 1425 980Z" fill="#FBFBF1"/>
</g>
</svg>
