<svg width="730" height="1024" viewBox="0 0 730 1024" fill="none" xmlns="http://www.w3.org/2000/svg">
<path d="M315.5 103H65C65 95.5001 73.5 97 81 97.5C81 89.5 95 90.0002 100.5 94.0001C100.5 66.0001 125.5 76.5 133 83.5C144.5 30 199.5 48.4999 204.5 65.0001C217.5 58 234 65.0001 232 78.5001C252 67.0001 261 78.5001 263 90.0002C272.5 82.0002 285 86.5 289 94.0001C306.2 91.6001 313.833 99.0001 315.5 103Z" fill="#F8CB96"/>
<path d="M684 150H452C452 143.046 459.872 144.436 466.818 144.9C466.818 137.482 479.784 137.946 484.878 141.655C484.878 115.691 508.032 125.427 514.978 131.918C525.629 82.3092 576.567 99.4636 581.198 114.764C593.238 108.273 608.519 114.764 606.667 127.282C625.19 116.618 633.525 127.282 635.377 137.946C644.176 130.527 655.752 134.7 659.457 141.655C675.387 139.429 682.456 146.291 684 150Z" fill="#F8CB96"/>
<path d="M181 339.446H10C10 332.946 18.5 331.946 22 333.946C22.5 330.946 29.5 329.946 35 331.946C39.5 324.446 50 326.946 56 328.946C53 286.946 109 292.946 109 315.946C126 307.446 136.5 322.446 133.5 329.946C142 327.946 148 330.946 152 333.946C155.5 330.946 165 331.946 168 335.446C173.2 332.246 178.833 336.78 181 339.446Z" fill="#F8CB96"/>
<path d="M708 741.446H537C537 734.946 545.5 733.946 549 735.946C549.5 732.946 556.5 731.946 562 733.946C566.5 726.446 577 728.946 583 730.946C580 688.946 636 694.946 636 717.946C653 709.446 663.5 724.446 660.5 731.946C669 729.946 675 732.946 679 735.946C682.5 732.946 692 733.946 695 737.446C700.2 734.246 705.833 738.78 708 741.446Z" fill="#F8CB96"/>
<path d="M208 993.446H37C37 986.946 45.5 985.946 49 987.946C49.5 984.946 56.5 983.946 62 985.946C66.5 978.446 77 980.946 83 982.946C80 940.946 136 946.946 136 969.946C153 961.446 163.5 976.446 160.5 983.946C169 981.946 175 984.946 179 987.946C182.5 984.946 192 985.946 195 989.446C200.2 986.246 205.833 990.78 208 993.446Z" fill="#F8CB96"/>
<path d="M658 448H267C267 433.258 286.436 430.99 294.439 435.526C295.582 428.722 311.588 426.454 324.164 430.99C334.453 413.98 358.462 419.65 372.181 424.186C365.322 328.93 493.368 342.538 493.368 394.702C532.24 375.424 556.249 409.444 549.389 426.454C568.825 421.918 582.544 428.722 591.69 435.526C599.693 428.722 621.415 430.99 628.275 438.928C640.165 431.67 653.046 441.952 658 448Z" fill="#F8CB96"/>
</svg>
