<svg width="87" height="32" viewBox="0 0 87 32" fill="none" xmlns="http://www.w3.org/2000/svg">
<path d="M19.8152 0.150378C19.9313 0.11805 20.1404 0.0718664 20.2798 0.0464656C20.4424 0.0187556 20.6561 0.00259145 20.8721 0.000282289C21.123 -0.00202687 21.2763 0.00951894 21.4761 0.0464656C21.6224 0.0718664 21.8477 0.129595 21.9755 0.17116C22.1032 0.212725 22.4517 0.367439 22.7467 0.515226C23.044 0.663012 23.4621 0.8616 23.6758 0.958585C23.8919 1.05557 24.2798 1.21952 24.5423 1.32574C24.8048 1.42965 25.1068 1.54511 25.2159 1.57975C25.3251 1.61439 25.4273 1.65364 25.4436 1.66981C25.4598 1.68366 25.4668 1.71137 25.4622 1.72985C25.4552 1.74832 25.1857 1.97231 24.8629 2.22632C24.54 2.48032 23.9825 2.90752 23.6247 3.17307C23.267 3.44094 22.8141 3.76422 22.6212 3.89584C22.4261 4.02515 22.1892 4.16832 22.0986 4.21451C22.0057 4.26069 21.8617 4.32535 21.778 4.35537C21.6944 4.38769 21.5272 4.43619 21.4064 4.46851C21.2856 4.49853 21.0603 4.53548 20.9069 4.54934C20.6979 4.57012 20.5585 4.57012 20.3494 4.55164C20.1961 4.53548 19.9615 4.49622 19.8268 4.4639C19.6921 4.42926 19.483 4.35998 19.3622 4.30918C19.2414 4.25838 19.0533 4.18449 18.9441 4.14061C18.8349 4.09905 18.6584 4.04363 18.5492 4.01823C18.44 3.99052 18.2426 3.96281 18.1078 3.95126C17.9731 3.94202 17.7548 3.93972 17.62 3.94895C17.4853 3.95819 17.26 3.99052 17.1206 4.02285C16.9812 4.05286 16.7977 4.1129 16.7141 4.15216C16.6305 4.19372 16.512 4.26762 16.447 4.31611C16.3842 4.3646 16.2937 4.45466 16.2472 4.51701C16.2007 4.57704 16.145 4.66479 16.1218 4.70867C16.1009 4.75254 16.0916 4.79411 16.1032 4.80334C16.1125 4.81027 16.1984 4.87724 16.2937 4.95344C16.3889 5.02733 16.5352 5.16819 16.6165 5.26287C16.7002 5.35754 16.8233 5.51918 16.8906 5.62079C16.9557 5.72239 17.0625 5.90943 17.1276 6.03644C17.1903 6.16344 17.2809 6.37127 17.3273 6.49827C17.3738 6.62527 17.4574 6.84695 17.5109 6.99012C17.5643 7.13098 17.6154 7.24875 17.627 7.24875C17.6363 7.24875 17.634 7.20487 17.6224 7.15176C17.6084 7.09634 17.5805 6.95779 17.5596 6.84464C17.5387 6.73149 17.4853 6.53291 17.4412 6.4059C17.3947 6.2789 17.3088 6.07338 17.246 5.951C17.1833 5.8263 17.0927 5.66466 17.0463 5.59308C16.9998 5.51918 16.8999 5.37832 16.8256 5.28134C16.7513 5.18205 16.6955 5.08737 16.7025 5.07351C16.7071 5.05735 16.7257 5.03657 16.742 5.02733C16.7582 5.0204 16.893 5.03195 17.0393 5.05735C17.1856 5.08275 17.3994 5.12894 17.5155 5.16126C17.6316 5.19359 17.8082 5.26056 17.9104 5.30905C18.0126 5.35985 18.1682 5.45453 18.2588 5.52149C18.3494 5.58846 18.5051 5.72701 18.6073 5.83092C18.7095 5.93252 18.8535 6.09878 18.9255 6.20039C18.9975 6.29968 19.109 6.48211 19.1741 6.60218C19.2391 6.72226 19.3227 6.9093 19.3622 7.01783C19.404 7.12636 19.4598 7.3134 19.49 7.43348C19.5202 7.55356 19.562 7.76138 19.5806 7.89531C19.6015 8.02925 19.6293 8.35484 19.6456 8.6227C19.6665 8.99909 19.6665 9.19306 19.6456 9.48864C19.6293 9.69877 19.5922 9.99434 19.5597 10.1467C19.5295 10.2992 19.4784 10.5093 19.4458 10.6155C19.4063 10.7379 19.3715 10.8095 19.346 10.821C19.3227 10.828 19.2461 10.8164 19.1764 10.7933C19.1067 10.7702 18.9441 10.6986 18.8163 10.634C18.6886 10.567 18.4679 10.4377 18.3285 10.343C18.1891 10.2507 17.9685 10.0959 17.8407 9.99896C17.7129 9.90198 17.4876 9.72417 17.3413 9.60179C17.1949 9.48171 16.9696 9.27157 16.8419 9.13995C16.7141 9.00602 16.5515 8.82129 16.4772 8.72661C16.4052 8.63194 16.296 8.46568 16.2333 8.35715C16.1729 8.24862 16.0916 8.07312 16.0544 7.96459C16.0196 7.85606 15.9801 7.68518 15.9684 7.58358C15.9592 7.48197 15.9336 7.27415 15.9127 7.12174C15.8941 6.96934 15.8686 6.62066 15.8569 6.34817C15.843 6.02258 15.8221 5.81245 15.7989 5.73625C15.7803 5.6739 15.7315 5.5746 15.6943 5.51687C15.6572 5.45915 15.5945 5.39449 15.555 5.37371C15.4899 5.33676 15.476 5.33445 15.4017 5.36678C15.3575 5.38525 15.2669 5.44991 15.2019 5.51226C15.1345 5.57229 15.03 5.6993 14.965 5.79397C14.8999 5.88865 14.7977 6.07107 14.7373 6.19808C14.6769 6.32508 14.5793 6.56985 14.519 6.74073C14.4609 6.91161 14.361 7.26029 14.2983 7.5143C14.2332 7.76831 14.1519 8.15856 14.1148 8.38024C14.0753 8.60192 14.0288 8.93444 14.0102 9.11917C13.9917 9.3039 13.9684 9.59486 13.9591 9.76574C13.9522 9.94585 13.9568 10.223 13.9731 10.4238C13.987 10.6155 14.0195 10.8649 14.0428 10.978C14.066 11.0912 14.1171 11.2736 14.1566 11.3822C14.1961 11.4907 14.2797 11.6616 14.3424 11.7632C14.4051 11.8648 14.5073 12.0033 14.5677 12.0726C14.6305 12.1419 14.7791 12.2735 14.8976 12.3682C15.0137 12.4605 15.1578 12.5968 15.2158 12.6684C15.2739 12.7422 15.3506 12.86 15.3877 12.9293C15.4272 12.9986 15.4783 13.1394 15.5062 13.241C15.5341 13.3496 15.5526 13.4997 15.5526 13.6036C15.5526 13.7029 15.541 13.8045 15.5294 13.8299C15.5062 13.876 15.483 13.876 11.9057 13.876C9.92657 13.876 8.30518 13.8737 8.30518 13.8691C8.30518 13.8668 8.33305 13.7652 8.36557 13.6451C8.3981 13.5251 8.46314 13.3426 8.51192 13.241C8.55838 13.1394 8.65826 12.9639 8.73259 12.8485C8.80693 12.733 8.94862 12.5621 9.04619 12.4651C9.15304 12.3589 9.30403 12.2435 9.43179 12.1696C9.54561 12.1003 9.71286 11.9964 9.80345 11.9364C9.89405 11.8763 10.0218 11.8001 10.0892 11.7655C10.2007 11.7101 10.2123 11.6962 10.2448 11.5854C10.2657 11.5184 10.3075 11.3383 10.3377 11.1859C10.3679 11.0335 10.4121 10.7841 10.4353 10.6317C10.4655 10.4192 10.4748 10.2114 10.4748 9.7311C10.4748 9.20692 10.4655 9.05451 10.4237 8.77972C10.3958 8.5973 10.3633 8.42642 10.3517 8.39871C10.3377 8.35484 10.3006 8.33867 10.1728 8.31327C10.0683 8.29249 9.94051 8.28556 9.80345 8.2948C9.68963 8.30173 9.51077 8.32482 9.40856 8.3456C9.30635 8.36638 9.11355 8.41949 8.97882 8.46106C8.84409 8.50262 8.51656 8.61577 8.24711 8.71045C7.97765 8.80512 7.66406 8.90904 7.55023 8.94367C7.43641 8.976 7.2529 9.01988 7.14373 9.03835C7.03455 9.05913 6.8162 9.08915 6.65592 9.10763C6.49564 9.1261 6.1774 9.14226 5.94743 9.14226C5.71746 9.14226 5.38761 9.1261 5.21571 9.10763C5.04382 9.08684 4.80224 9.05682 4.68145 9.03835C4.56065 9.01988 4.24706 8.95984 3.98457 8.90904C3.72209 8.85593 3.40385 8.78203 3.27609 8.74509C3.14833 8.70814 2.94856 8.63886 2.83474 8.59499C2.72091 8.55112 2.49095 8.4472 2.3237 8.36638C2.15645 8.28556 1.8777 8.13316 1.70116 8.02924C1.52694 7.92302 1.25981 7.75215 1.10882 7.64823C0.96015 7.54432 0.697662 7.35035 0.530413 7.21642C0.36084 7.08249 0.168039 6.92316 0.105321 6.86312C0.0333107 6.79615 -0.00617876 6.73842 0.000789962 6.71764C0.00543577 6.69917 0.156425 6.62758 0.330643 6.55831C0.507183 6.48903 0.802193 6.35741 0.988025 6.26735C1.17386 6.17499 1.52462 5.98333 1.7662 5.84016C2.0101 5.69699 2.34228 5.51457 2.50953 5.43374C2.67678 5.35523 2.91139 5.25132 3.03218 5.20514C3.15297 5.15665 3.40385 5.06659 3.58968 5.00424C3.77551 4.94189 4.11466 4.83567 4.34462 4.76871C4.57459 4.69943 4.86728 4.62554 4.99504 4.60245C5.16229 4.57243 5.34115 4.56088 5.63384 4.56088C5.95672 4.56319 6.0868 4.57243 6.27264 4.61168C6.4004 4.63939 6.60017 4.6925 6.71399 4.73407C6.82781 4.77332 7.02758 4.85876 7.15534 4.92342C7.2831 4.99039 7.47126 5.10353 7.57346 5.17512C7.67567 5.24901 7.83595 5.37832 7.93119 5.46376C8.02643 5.55151 8.18207 5.70854 8.2773 5.81707C8.37254 5.9256 8.51192 6.1034 8.58625 6.21655C8.66291 6.32739 8.7233 6.44285 8.7233 6.47518C8.7233 6.50751 8.70936 6.53753 8.69543 6.54214C8.67917 6.54676 8.51889 6.52136 8.34002 6.48441C8.16116 6.44747 7.87776 6.39898 7.71284 6.37819C7.48984 6.34817 7.25523 6.33663 6.8069 6.33663C6.42362 6.33663 6.12629 6.34817 5.99389 6.36665C5.88006 6.38512 5.67333 6.42207 5.53628 6.4544C5.3969 6.48441 5.2854 6.51674 5.2854 6.52829C5.2854 6.53753 5.49679 6.53983 5.75463 6.53752C6.01479 6.53291 6.45615 6.53983 6.73722 6.55369C7.01829 6.56754 7.3946 6.59525 7.57346 6.61373C7.75233 6.6322 8.06127 6.67377 8.25872 6.7084C8.45617 6.74073 8.77673 6.8077 8.96721 6.85619C9.16001 6.90468 9.42017 6.98319 9.54793 7.02938C9.67569 7.07787 9.86153 7.15638 9.96141 7.20487C10.059 7.25568 10.1449 7.29493 10.1519 7.29493C10.1589 7.29493 10.1287 7.16331 10.0845 7.00167C10.0404 6.83772 9.9707 6.61142 9.93121 6.49827C9.8894 6.38512 9.79648 6.16113 9.72447 6.0018C9.65246 5.84247 9.53167 5.60924 9.45502 5.48224C9.38068 5.35523 9.24363 5.15203 9.15072 5.03195C9.06012 4.91187 8.89055 4.72021 8.77905 4.60937C8.66523 4.49622 8.45849 4.31842 8.31679 4.2122C8.1751 4.10598 7.92887 3.93048 7.76626 3.82195C7.60134 3.71342 7.39228 3.58641 7.30168 3.54023C7.20877 3.49405 7.01829 3.40861 6.87659 3.35088C6.73489 3.29546 6.47008 3.19386 6.28425 3.12689C6.09842 3.05992 5.90562 2.98603 5.85451 2.96063C5.80341 2.93523 5.73372 2.88443 5.7012 2.84748C5.66868 2.81053 5.63384 2.7505 5.62455 2.71124C5.61525 2.67198 5.61758 2.59809 5.63151 2.54498C5.64545 2.48956 5.68262 2.41798 5.71049 2.38334C5.74069 2.34639 5.82199 2.29328 5.89168 2.26326C5.96137 2.23555 6.0961 2.20092 6.19133 2.19168C6.29122 2.18013 6.46544 2.18013 6.59784 2.19399C6.7256 2.20553 6.93466 2.24017 7.06242 2.27019C7.19018 2.30021 7.38995 2.36256 7.50378 2.40643C7.6176 2.45031 7.82666 2.54267 7.96836 2.61195C8.11005 2.68353 8.31912 2.79437 8.43294 2.86134C8.54676 2.9283 8.76279 3.06454 8.90913 3.16384C9.05548 3.26082 9.30867 3.44786 9.76861 3.80809L9.97303 3.67647C10.0845 3.60489 10.2796 3.49636 10.4074 3.43632C10.5352 3.37628 10.7698 3.28391 10.9301 3.2308C11.0903 3.17769 11.39 3.10149 11.5967 3.06223C11.8058 3.02067 11.9754 2.98141 11.9754 2.97218C11.9754 2.96063 11.8941 2.95832 11.7965 2.96756C11.6966 2.97449 11.5271 2.99065 11.4179 3.0022C11.3087 3.01605 11.1252 3.04607 11.0114 3.07378C10.8975 3.09918 10.7233 3.15229 10.6281 3.18924C10.5328 3.22618 10.3888 3.29546 10.3075 3.34164C10.1774 3.41784 10.1565 3.42246 10.124 3.39244C10.0938 3.36243 10.0938 3.34395 10.1287 3.2308C10.1519 3.16153 10.2007 3.04145 10.2402 2.96525C10.2773 2.88905 10.347 2.76897 10.3958 2.69969C10.4423 2.63042 10.5375 2.51265 10.6072 2.43645C10.6769 2.36256 10.8 2.2471 10.8836 2.18244C10.9649 2.11779 11.1182 2.01387 11.2204 1.95384C11.3226 1.8938 11.5108 1.80374 11.6385 1.75294C11.7663 1.70445 11.9521 1.64903 12.052 1.62824C12.1496 1.60746 12.3772 1.58206 12.5561 1.5682C12.7768 1.55204 12.9858 1.55204 13.2019 1.5682C13.3761 1.58206 13.6293 1.6167 13.764 1.64672C13.8987 1.67674 14.138 1.75525 14.2983 1.82221C14.4586 1.88918 14.7257 1.98847 14.8906 2.04158C15.0555 2.09469 15.3691 2.18244 15.5875 2.23555L15.6981 2.26247C15.8725 2.30486 16.0213 2.34105 16.0521 2.3487C16.1032 2.36256 16.1241 2.38103 16.1287 2.4226C16.1334 2.46647 16.0892 2.53574 15.9615 2.68815C15.8686 2.80361 15.6665 3.01605 15.5155 3.16153C15.3622 3.30701 15.1508 3.49867 15.0416 3.5841C14.9324 3.67185 14.728 3.81964 14.5886 3.91201C14.4493 4.00668 14.1914 4.15447 14.0195 4.24453C13.8476 4.33227 13.6177 4.43157 13.5085 4.4639C13.3993 4.49622 13.1856 4.54934 13.0323 4.58166C12.879 4.61399 12.6118 4.65094 12.44 4.6671C12.1984 4.68788 12.0729 4.68788 11.8941 4.6671C11.7663 4.65325 11.5665 4.60937 11.4527 4.57243C11.3389 4.53548 11.1647 4.4893 11.0694 4.46851C10.9742 4.45004 10.8116 4.42695 10.7094 4.41771C10.6072 4.40848 10.4748 4.40848 10.3029 4.43157L10.4097 4.62323C10.4701 4.72714 10.5747 4.93727 10.6467 5.08968C10.7164 5.24208 10.8209 5.47993 10.8766 5.62079C10.9347 5.76165 11.0462 6.06646 11.1275 6.30199C11.2065 6.53753 11.3157 6.87928 11.3668 7.06401C11.4202 7.24875 11.5061 7.58127 11.5572 7.80295C11.6084 8.02463 11.6687 8.34329 11.6943 8.50724C11.7199 8.67119 11.7547 8.95291 11.7686 9.13072C11.7849 9.32469 11.7895 9.63411 11.7826 9.90429C11.7733 10.1606 11.7477 10.4839 11.7222 10.6548C11.6989 10.8187 11.6548 11.0496 11.6293 11.1628C11.6014 11.2759 11.5526 11.4537 11.5201 11.5553C11.4876 11.6569 11.4643 11.7424 11.469 11.7447C11.4736 11.747 11.5712 11.7955 11.685 11.8532C11.8523 11.9387 11.9173 11.9594 12.0102 11.9594C12.0822 11.9594 12.1496 11.9433 12.1868 11.9179C12.2216 11.8971 12.289 11.8509 12.3377 11.814C12.3958 11.7747 12.4864 11.7401 12.584 11.7216C12.7048 11.7008 12.7396 11.687 12.7303 11.6593C12.7257 11.6408 12.6978 11.463 12.6676 11.2667C12.6235 10.9757 12.6142 10.8187 12.6165 10.4238C12.6188 10.1098 12.6328 9.8327 12.6583 9.63873C12.6815 9.47478 12.7303 9.18845 12.7675 9.00371C12.8046 8.81898 12.8674 8.54881 12.9069 8.40333C12.9463 8.25785 13.0346 7.96228 13.1066 7.74522C13.1763 7.52816 13.3018 7.18178 13.3854 6.97165C13.469 6.76151 13.6084 6.44516 13.6966 6.26735C13.7826 6.08955 13.9266 5.82399 14.0126 5.67852C14.1008 5.53304 14.2263 5.33445 14.2913 5.23978C14.3563 5.1451 14.4864 4.96729 14.5793 4.84722C14.6746 4.72714 14.8233 4.55164 14.9138 4.45697C15.0021 4.36229 15.1647 4.20758 15.2739 4.1129C15.3831 4.01823 15.6339 3.83349 15.8314 3.70418C16.0288 3.57256 16.3331 3.38783 16.505 3.28853C16.6769 3.19155 17.023 3.01143 17.2716 2.88674C17.5341 2.75742 17.8454 2.62118 18.0149 2.56576C18.1752 2.51265 18.4354 2.43876 18.5957 2.40181C18.7559 2.36256 19.0115 2.31176 19.1648 2.28635C19.3181 2.25864 19.569 2.22401 19.7223 2.20322C19.8756 2.18475 20.1474 2.15935 20.3262 2.1455C20.5051 2.13395 20.7188 2.1224 20.8024 2.1224C20.886 2.1224 20.9441 2.11548 20.9325 2.10624C20.9232 2.097 20.7234 2.06006 20.4911 2.02311C20.2449 1.98616 19.9151 1.95384 19.699 1.9446C19.4714 1.93767 19.2275 1.94229 19.0718 1.95845C18.9325 1.97462 18.6886 2.01156 18.5329 2.04158C18.375 2.07391 18.1078 2.1455 17.9406 2.20092C17.706 2.27712 17.6247 2.29559 17.6014 2.27481C17.5852 2.26095 17.5713 2.22401 17.5736 2.19168C17.5736 2.15935 17.5945 2.05544 17.6224 1.96076C17.6479 1.86609 17.706 1.72061 17.7478 1.63748C17.7919 1.55435 17.8988 1.39964 17.9871 1.2911C18.0753 1.18257 18.2286 1.02324 18.3308 0.935494C18.4307 0.847745 18.598 0.720741 18.7002 0.656085C18.8024 0.589119 18.972 0.492134 19.0788 0.439023C19.1833 0.388222 19.346 0.314329 19.4365 0.277382C19.5295 0.242745 19.699 0.185015 19.8152 0.150378Z" fill="#FBFBF1"/>
<path fill-rule="evenodd" clip-rule="evenodd" d="M81.9613 0C81.9934 0 82.063 0.0540449 82.1058 0.124303C82.1486 0.189157 82.2181 0.367506 82.2609 0.513427C82.3037 0.664753 82.3732 0.816078 82.4107 0.85391C82.4588 0.90255 82.6353 0.918764 83.0419 0.90255C83.5126 0.886337 83.6463 0.864719 83.871 0.74582C84.0208 0.670157 84.1545 0.572876 84.1812 0.518831C84.2026 0.470191 84.2829 0.399932 84.3685 0.356697C84.4968 0.286438 84.5289 0.286438 84.6894 0.383719C84.7803 0.437764 84.8927 0.545854 84.9301 0.621517C84.9836 0.735011 84.9783 0.783651 84.9141 0.897146C84.8713 0.978213 84.6787 1.16197 84.4861 1.31329C84.2936 1.46462 84.0047 1.63216 83.8442 1.69161C83.6463 1.76186 83.4003 1.7997 83.0954 1.7997C82.7798 1.8051 82.5498 1.77808 82.3465 1.70242C82.1432 1.63216 81.972 1.51866 81.7795 1.32951C81.5869 1.12954 81.4799 0.972809 81.4157 0.756629C81.3462 0.551258 81.3355 0.426955 81.3676 0.351292C81.3943 0.291843 81.5281 0.189157 81.6564 0.124303C81.7848 0.0540449 81.9239 0 81.9613 0V0ZM36.2369 1.94562C36.3117 1.94562 36.4241 1.98345 36.4883 2.02668C36.5578 2.06992 36.638 2.19963 36.6701 2.31312C36.7183 2.48607 36.7129 2.5293 36.6273 2.61037C36.5738 2.66441 36.4027 2.75089 36.2476 2.79953C36.0229 2.87519 35.932 2.94004 35.7982 3.13461C35.7019 3.26972 35.5201 3.6102 35.3863 3.89123C35.2526 4.17227 34.8942 5.13427 34.5893 6.02601C34.2363 7.05827 33.9742 7.9392 33.8618 8.45803C33.7602 8.9066 33.5837 9.57136 33.466 9.94427C33.3483 10.3172 33.1664 11.0306 33.0648 11.5386C32.9578 12.0466 32.7867 12.9384 32.685 13.5274C32.578 14.1111 32.4925 14.6408 32.4925 14.7002C32.4925 14.7813 32.578 14.8461 32.8241 14.965C33.0113 15.0515 33.1932 15.1596 33.2253 15.2082C33.2788 15.2731 33.2788 15.3542 33.2413 15.5271C33.2092 15.6514 33.1397 15.8027 33.0755 15.8622C32.9685 15.9649 32.9471 15.9703 32.2892 15.8892C31.9147 15.846 31.3852 15.8189 31.1124 15.8244C30.7112 15.8352 30.5935 15.8568 30.4705 15.9433C30.3902 16.0081 30.2779 16.0567 30.2191 16.0567C30.1602 16.0567 30.0746 16.0135 30.0318 15.9649C29.9891 15.9108 29.9409 15.7703 29.9356 15.6514C29.9249 15.5271 29.9409 15.365 29.973 15.2839C30.0051 15.1974 30.1121 15.0839 30.203 15.0299C30.2993 14.9704 30.524 14.9056 31.0214 14.8624L31.1445 14.4678C31.214 14.2571 31.337 13.7004 31.428 13.241C31.5136 12.7816 31.6312 12.1871 31.781 11.4305L31.2514 10.2145C30.9626 9.54433 30.6149 8.658 30.4865 8.24185C30.3581 7.82571 30.08 6.89073 29.8714 6.16112C29.6574 5.43152 29.3685 4.46952 29.2188 4.02635C29.0743 3.58318 28.9299 3.18325 28.8925 3.14541C28.855 3.10218 28.7106 3.07516 28.5341 3.08056C28.288 3.08056 28.1971 3.05354 27.9724 2.90221C27.8012 2.78872 27.705 2.69144 27.705 2.62118C27.705 2.54552 27.7638 2.49688 27.8922 2.45364C27.9938 2.41581 28.3469 2.36176 28.6678 2.32934C28.9888 2.29691 29.5986 2.26989 30.0211 2.26989C30.7112 2.26989 30.7914 2.2807 30.8877 2.37798C30.9465 2.43743 31.0054 2.54552 31.0214 2.62118C31.0428 2.71846 31.0107 2.79412 30.9145 2.8914C30.8396 2.96707 30.7647 3.11839 30.7433 3.23189C30.7272 3.33998 30.7379 3.64803 30.7754 3.91826C30.8128 4.18848 30.8984 4.64786 30.9733 4.94511C31.0482 5.24236 31.2354 5.87468 31.3959 6.35028C31.551 6.82587 31.8559 7.63114 32.0752 8.14457C32.2892 8.65259 32.4764 9.06333 32.4925 9.05253C32.5085 9.04712 32.5352 8.91741 32.562 8.7769C32.5834 8.63097 32.6583 8.27968 32.7278 7.99865C32.7974 7.71762 32.8883 7.39875 32.9364 7.29607C32.9846 7.19338 33.113 6.80426 33.2199 6.43135C33.3269 6.05844 33.4553 5.66931 33.5088 5.56663C33.5623 5.46394 33.6907 5.12346 33.803 4.81C33.91 4.49654 34.033 4.08039 34.0758 3.87502C34.1186 3.67505 34.1507 3.41564 34.1507 3.29674C34.1507 3.10218 34.1346 3.08056 34.017 3.08056C33.9421 3.08056 33.819 3.02652 33.7442 2.95626C33.6425 2.86979 33.5997 2.7671 33.573 2.56713C33.5462 2.32934 33.5569 2.2861 33.6639 2.22665C33.7602 2.1672 33.8565 2.1672 34.1667 2.21584C34.3807 2.25367 34.6803 2.26448 34.8461 2.24286C35.0065 2.22665 35.3542 2.15099 35.6217 2.08073C35.8892 2.01047 36.162 1.95102 36.2369 1.94562V1.94562ZM39.5533 2.22125C39.8315 2.21584 39.9385 2.23746 40.0829 2.33474C40.1845 2.405 40.3182 2.54552 40.3771 2.6482C40.4573 2.78872 40.5215 3.13461 40.6338 4.02635C40.7194 4.68029 40.8478 5.61527 40.9227 6.10708C40.9976 6.59889 41.3346 8.70123 41.6716 10.782C42.0086 12.8627 42.2974 14.6246 42.3081 14.7002C42.3295 14.8029 42.383 14.8515 42.5595 14.9002C42.6879 14.938 42.8537 15.0245 42.9393 15.0893C43.0517 15.1866 43.1052 15.3001 43.164 15.592C43.2068 15.8027 43.2603 16.3 43.2817 16.6999C43.3191 17.4241 43.3138 17.4295 43.1854 17.5592C43.0731 17.6727 43.0249 17.6835 42.7896 17.6511C42.6398 17.6295 42.4793 17.57 42.4258 17.5214C42.3509 17.4511 42.3188 17.2836 42.276 16.781C42.2404 16.3486 42.1922 16.0838 42.1316 15.9865C42.0835 15.9054 41.9925 15.8135 41.9337 15.7865C41.8749 15.7541 40.6606 15.7271 36.3866 15.7001L36.4187 15.8892C36.4401 15.9919 36.4669 16.381 36.4829 16.7539C36.5043 17.1431 36.4936 17.4889 36.4615 17.5646C36.4294 17.6511 36.3545 17.7159 36.2422 17.7375C36.1406 17.7646 36.0229 17.7538 35.932 17.7105C35.8464 17.6727 35.7394 17.5538 35.6805 17.4295C35.6128 17.2854 35.5646 17.0242 35.5361 16.6458C35.5147 16.3324 35.4719 15.9324 35.4345 15.7541C35.4024 15.5757 35.381 15.3217 35.4077 14.9434L36.3973 14.8624L36.4829 14.657C36.5311 14.5489 36.6059 14.1057 36.6487 13.6734C36.6915 13.241 36.8092 12.4628 36.9108 11.9439C37.0125 11.4251 37.2585 10.3658 37.4458 9.59297C37.6383 8.82013 37.879 7.77707 37.9753 7.26904C38.077 6.76102 38.2214 5.92332 38.2909 5.40449C38.3658 4.88566 38.4514 4.17767 38.4835 3.83719C38.5102 3.49671 38.537 3.09137 38.537 2.94545C38.537 2.70765 38.5584 2.65361 38.7082 2.50768C38.8044 2.41581 38.9542 2.31312 39.0452 2.2807C39.1361 2.24827 39.3608 2.22125 39.5533 2.22125V2.22125ZM38.9649 7.18798C38.8526 7.76626 38.5637 9.06874 38.3284 10.0794C38.093 11.09 37.8309 12.2952 37.74 12.7546C37.6544 13.214 37.542 13.8733 37.4993 14.2138C37.4511 14.5543 37.419 14.8407 37.4297 14.8407C37.4351 14.8461 38.1144 14.8678 38.9382 14.8894L40.4359 14.9326C40.3717 13.976 40.3129 13.3491 40.2701 12.9167C40.2273 12.4844 40.1203 11.5602 40.0347 10.863C39.9492 10.1659 39.8422 9.22547 39.7994 8.7823C39.7566 8.33373 39.7031 7.66898 39.6871 7.29607C39.6657 6.92316 39.6282 6.47458 39.5961 6.29623C39.564 6.11789 39.4998 5.8909 39.4517 5.79362C39.4035 5.69634 39.3394 5.60986 39.3019 5.59905C39.2591 5.58284 39.227 5.67472 39.2056 5.85307C39.1896 6.0098 39.0826 6.60969 38.9649 7.18798V7.18798ZM57.2322 2.24286C57.4676 2.25908 57.933 2.26989 58.2646 2.26989C58.8102 2.26989 58.8744 2.2807 58.9921 2.38879C59.0563 2.45904 59.1419 2.61037 59.174 2.72927C59.2275 2.90762 59.2221 2.97788 59.1419 3.13461C59.0831 3.2535 59.0082 3.32917 58.9333 3.33457C58.853 3.34538 58.7835 3.41023 58.7354 3.52373C58.6926 3.62101 58.6337 3.88583 58.607 4.10741C58.5749 4.329 58.5321 4.96132 58.516 5.51258C58.4893 6.27462 58.5 6.72859 58.5695 7.40416C58.6444 8.13917 58.6498 8.40399 58.6016 8.89039C58.5695 9.21466 58.5428 9.93346 58.5428 10.4847C58.5428 11.0684 58.5856 11.9331 58.6444 12.5654C58.7033 13.1599 58.7675 13.8787 58.7835 14.1598C58.8156 14.6408 58.8263 14.6786 58.96 14.7651C59.0403 14.8137 59.1633 14.9164 59.3719 15.1326L59.2382 15.4082C59.1633 15.5649 59.051 15.7055 58.9868 15.7325C58.9172 15.7595 58.3235 15.7811 56.4566 15.7811L56.3764 15.646C56.3015 15.5163 56.3068 15.5001 56.4566 15.3217C56.5476 15.2191 56.6171 15.1056 56.6171 15.0785C56.6171 15.0515 56.7241 14.965 56.8578 14.8894C57.0985 14.7543 57.0985 14.7543 57.136 14.3868C57.1627 14.1868 57.1788 13.6139 57.1734 13.1059C57.1734 12.5979 57.1574 11.6899 57.1253 9.96588L56.8846 10.1496C56.7508 10.2469 56.4887 10.382 56.2961 10.4415C56.1036 10.5009 55.7452 10.5604 55.4938 10.5766C55.1461 10.5982 54.9375 10.582 54.6112 10.5009C54.3758 10.4415 54.0763 10.328 53.9425 10.2523C53.8088 10.1767 53.5788 9.9875 53.429 9.82537C53.2792 9.66864 53.0974 9.41463 53.0225 9.26871C52.9476 9.11738 52.8673 8.93903 52.8459 8.86337C52.8246 8.78771 52.739 8.57153 52.6587 8.37696C52.5731 8.1824 52.4662 7.83111 52.4127 7.59331C52.3271 7.22581 52.3164 6.89613 52.311 5.40449C52.311 3.98311 52.295 3.6048 52.2308 3.41564C52.1827 3.28053 52.1185 3.18865 52.0703 3.18865C52.0275 3.18865 51.9045 3.13461 51.8029 3.06435C51.7012 2.99409 51.5836 2.85898 51.5461 2.7671C51.4926 2.62658 51.4926 2.57254 51.5461 2.47526C51.6156 2.36176 51.6477 2.36176 52.8994 2.34555C54.0281 2.33474 54.226 2.34555 54.5309 2.43743C54.7235 2.49147 54.9321 2.59416 55.0017 2.65901C55.0837 2.74188 55.1283 2.85537 55.1354 2.99949C55.1461 3.19946 55.1354 3.21567 54.9589 3.28053C54.8572 3.31295 54.6647 3.34538 54.5309 3.34538C54.3223 3.34538 54.2795 3.367 54.2153 3.49671C54.1725 3.58858 54.1244 3.9723 54.103 4.48573C54.0763 4.94511 54.0121 5.51799 53.9586 5.75578C53.8997 6.02601 53.8623 6.38811 53.8676 6.72859C53.8676 7.15014 53.9051 7.43118 54.0442 7.99865C54.1404 8.39858 54.2849 8.84715 54.3598 8.99308C54.44 9.139 54.5737 9.32275 54.6647 9.40382C54.8037 9.52812 54.8893 9.55514 55.3066 9.58757C55.6061 9.60919 55.9003 9.60378 56.0822 9.56595C56.2427 9.53353 56.5422 9.41463 57.1039 9.10657L57.0718 7.24202C57.0557 6.21517 57.029 5.09644 57.0183 4.75595C57.0022 4.41547 56.9594 3.97771 56.9273 3.78314C56.8899 3.58318 56.8257 3.38862 56.7669 3.33457C56.7027 3.27332 56.585 3.2427 56.4138 3.2427C56.2748 3.2427 56.0715 3.21567 55.7612 3.13461V2.48607L56.0394 2.39959C56.1945 2.35095 56.4299 2.29151 56.5636 2.26448C56.6973 2.24286 56.9969 2.23206 57.2322 2.24286V2.24286ZM66.2723 2.25367C66.7109 2.26989 67.1175 2.30231 67.1656 2.32934C67.2191 2.35636 67.2993 2.45904 67.3475 2.55092C67.3956 2.6482 67.4384 2.80493 67.4438 2.8914C67.4438 2.97788 67.4063 3.11839 67.3528 3.19946C67.3047 3.28593 67.2138 3.35079 67.1549 3.35079C67.0854 3.35079 67.0212 3.41023 66.973 3.52373C66.9302 3.62101 66.8661 3.89664 66.8286 4.13444C66.7751 4.45871 66.7591 5.38828 66.7591 7.80949C66.7591 10.7117 66.7698 11.1873 66.8714 12.3222C66.9356 13.0194 66.9998 13.8409 67.0158 14.1436C67.0372 14.4516 67.064 14.7002 67.0854 14.7002C67.1121 14.7002 67.2298 14.7813 67.3528 14.8894C67.5775 15.0731 67.5828 15.0839 67.5828 15.4136C67.5882 15.6892 67.5721 15.7433 67.5187 15.6838C67.4652 15.6298 67.417 15.6352 67.2886 15.7001C67.1656 15.7595 66.9142 15.7811 66.2188 15.7811C65.4164 15.7865 65.2988 15.7757 65.2132 15.6892C65.1543 15.6298 65.1276 15.5487 65.1436 15.4839C65.1597 15.4244 65.2667 15.2785 65.379 15.1596C65.4913 15.0407 65.6572 14.884 65.9246 14.6732L65.9834 13.8625C66.0262 13.3437 66.0369 12.5114 66.0155 11.5386C65.9941 10.7063 65.9674 9.52812 65.9514 8.91741C65.93 8.30671 65.9086 7.75545 65.8925 7.68519C65.8765 7.59331 65.8069 7.54467 65.5609 7.47982C65.3095 7.40415 65.1008 7.39335 64.3199 7.42577C63.8063 7.44199 63.2661 7.47441 63.127 7.49603C62.897 7.53386 62.8489 7.56629 62.7151 7.78247C62.6295 7.91758 62.5226 8.17159 62.4744 8.34994C62.4102 8.62017 62.3942 9.06874 62.3942 10.9819C62.3942 12.5817 62.4102 13.3329 62.453 13.414C62.4851 13.4842 62.5226 13.7058 62.5386 13.9166C62.5546 14.1273 62.5867 14.3705 62.6135 14.457C62.6456 14.5597 62.7151 14.6408 62.8221 14.684C62.9077 14.7218 63.0307 14.8353 63.0896 14.9272C63.1484 15.0245 63.1965 15.138 63.1965 15.1704C63.1965 15.2082 63.1377 15.3001 63.0628 15.3758C62.9558 15.4893 62.8863 15.5109 62.6242 15.5109C62.453 15.5109 62.0465 15.5379 61.7255 15.5703C61.2762 15.619 61.0355 15.619 60.7092 15.5703C60.4738 15.5325 60.2492 15.4785 60.2117 15.4406C60.1743 15.4028 60.1154 15.2893 60.0887 15.1866C60.0566 15.0677 60.0619 14.9326 60.094 14.8191C60.1475 14.6516 60.1582 14.6462 60.7359 14.6462L60.7199 9.90103C60.7092 7.1015 60.6771 4.85323 60.6397 4.40466C60.6076 3.98852 60.5594 3.58858 60.5327 3.51292C60.5006 3.42645 60.4257 3.367 60.3294 3.34538C60.2438 3.32376 60.1047 3.2481 60.0138 3.17784C59.9229 3.10218 59.8373 2.97788 59.8105 2.90221C59.7891 2.82115 59.7998 2.70765 59.8266 2.6482C59.8747 2.55092 59.9336 2.54011 60.3722 2.54011C60.645 2.54011 61.196 2.50228 61.5918 2.45364C61.9876 2.4104 62.4102 2.38338 62.5279 2.405C62.6456 2.42121 62.8595 2.48066 63.004 2.5293C63.1484 2.57794 63.3142 2.68063 63.3677 2.75629C63.4319 2.83736 63.464 2.95626 63.4533 3.05354C63.4426 3.16163 63.3927 3.23729 63.3035 3.28053C63.2286 3.31836 63.0575 3.35079 62.913 3.35079C62.7044 3.35079 62.6509 3.3724 62.6028 3.46968C62.5546 3.56156 62.5546 3.68586 62.6081 3.9723C62.6563 4.24253 62.6616 4.49113 62.6295 4.83702C62.6028 5.10725 62.5814 5.53961 62.5814 5.79902C62.5814 6.21517 62.5974 6.28543 62.6884 6.35028C62.7472 6.39352 62.9879 6.45837 63.2233 6.4962C63.4587 6.53403 63.9615 6.56105 64.3466 6.56105C64.7318 6.55565 65.1971 6.52863 65.3897 6.4908C65.5823 6.45296 65.7855 6.40973 65.8444 6.39352C65.946 6.36109 65.9514 6.33407 65.9086 5.54501C65.8818 5.09644 65.839 4.54518 65.8123 4.32359C65.7855 4.10201 65.732 3.78855 65.6999 3.63722C65.6518 3.43185 65.5983 3.33998 65.5074 3.29674C65.4432 3.26972 65.2988 3.2427 65.1864 3.2427C65.0794 3.2427 64.8976 3.21567 64.5873 3.13461V2.48607L64.812 2.405C64.9404 2.36176 65.1383 2.30231 65.256 2.27529C65.3736 2.24286 65.8283 2.23746 66.2723 2.25367ZM85.8609 2.25908C86.4118 2.27529 86.567 2.29691 86.6472 2.36717C86.7007 2.41581 86.7809 2.54011 86.8184 2.63199C86.8612 2.72927 86.8933 2.86438 86.8933 2.92924C86.8986 2.99949 86.8505 3.11839 86.7863 3.19946C86.7274 3.28593 86.6365 3.35079 86.5884 3.35079C86.5349 3.35079 86.46 3.41023 86.4279 3.4859C86.3904 3.56156 86.3263 3.78314 86.2942 3.98311C86.2407 4.25334 86.2246 5.291 86.2246 7.89056C86.2246 10.9117 86.2407 11.5656 86.3209 12.3493C86.3744 12.8573 86.4332 13.5815 86.4921 14.657L87.0002 15.0245L86.9735 15.6406L86.7595 15.7055C86.6258 15.7487 86.1337 15.7757 84.3257 15.7811L84.2454 15.646C84.1705 15.5163 84.1759 15.5001 84.3257 15.3217C84.4166 15.2191 84.4861 15.1056 84.4861 15.0785C84.4861 15.0515 84.5931 14.965 84.7269 14.8894C84.9676 14.7543 84.9676 14.7543 85.0104 14.3868C85.0318 14.1868 85.0478 13.2086 85.0478 12.2142C85.0425 11.2197 85.0264 9.21466 84.9997 7.75545C84.9729 6.29623 84.9408 5.02077 84.9194 4.91809C84.8873 4.74514 84.8445 4.84243 84.4113 5.99899C84.1492 6.69617 83.7854 7.63114 83.6035 8.07972C83.4217 8.52289 83.1703 9.22006 83.0472 9.62C82.9188 10.0199 82.5818 10.9441 82.293 11.6737C82.0041 12.4033 81.6457 13.3383 81.4906 13.7544C81.3355 14.1706 81.1162 14.7272 81.0038 14.9975C80.8862 15.2677 80.715 15.5649 80.6187 15.6622C80.4957 15.7865 80.3994 15.8352 80.2764 15.8352C80.1426 15.8352 80.0624 15.7919 79.9501 15.6568C79.8645 15.5595 79.7735 15.365 79.7361 15.1974C79.6987 15.0353 79.6719 14.484 79.6719 13.9004C79.6719 13.3437 79.7094 12.4141 79.7575 11.8358C79.8056 11.2576 79.8484 10.5009 79.8484 10.1604C79.8484 9.81996 79.8217 8.5391 79.7896 7.32309C79.7575 6.10708 79.7094 4.77757 79.6773 4.37764C79.6505 3.97771 79.6024 3.58318 79.5703 3.49671C79.5382 3.41564 79.4686 3.35079 79.4205 3.35079C79.367 3.35079 79.2333 3.29134 79.1263 3.21567C79.014 3.14001 78.8963 3.02111 78.8695 2.94545C78.8374 2.86438 78.8321 2.7617 78.8642 2.68603C78.907 2.57254 78.9498 2.56713 79.6773 2.5293C80.0998 2.50768 80.6027 2.46445 80.7952 2.42662C81.0948 2.37257 81.1911 2.37798 81.4853 2.46445C81.6725 2.5239 81.8811 2.62118 81.9506 2.68603C82.0202 2.75629 82.0951 2.86438 82.1111 2.92924C82.1325 2.99949 82.1325 3.09677 82.1111 3.14541C82.0951 3.19946 82.0202 3.26972 81.9453 3.29674C81.8704 3.32376 81.7046 3.35079 81.5709 3.35079C81.4371 3.35079 81.3141 3.37781 81.2927 3.41564C81.266 3.45347 81.2499 5.10184 81.2446 7.07989C81.2392 9.05793 81.2178 10.9225 81.1911 11.2305C81.159 11.5926 81.159 11.7818 81.1964 11.7818C81.2232 11.7872 81.3997 11.3386 81.5816 10.7982C81.7634 10.2523 82.0095 9.57676 82.1325 9.29573C82.2556 9.01469 82.4749 8.47965 82.6139 8.10674C82.753 7.73383 83.2505 6.44756 83.7105 5.24236C84.1759 4.03716 84.5771 2.95626 84.6038 2.83736C84.6306 2.71846 84.7055 2.55633 84.7643 2.47526C84.8231 2.39419 84.9408 2.30772 85.0264 2.2861C85.1066 2.25908 85.4864 2.24827 85.8609 2.25908V2.25908ZM48.1654 2.26989C48.2403 2.26989 48.4062 2.32393 48.5345 2.39419C48.6683 2.45904 48.8662 2.62118 48.9785 2.75629C49.0908 2.8914 49.2834 3.19406 49.4011 3.43185C49.5188 3.66965 49.6311 3.98311 49.6579 4.13444C49.6793 4.28036 49.7541 4.53977 49.8183 4.70191C49.8879 4.86404 49.9735 5.14508 50.0163 5.32343C50.0537 5.50177 50.1232 5.97737 50.1714 6.3773C50.2142 6.77723 50.3639 8.40939 50.4977 9.99831C50.6368 11.5872 50.7651 13.3761 50.7812 13.9706C50.8133 14.965 50.824 15.0677 50.931 15.2407C50.9951 15.3434 51.054 15.4568 51.054 15.4839C51.054 15.5109 51.0272 15.5812 50.9898 15.6352C50.9256 15.7271 50.8133 15.7379 49.8772 15.7703C49.3048 15.7865 48.6629 15.8027 48.0852 15.8081V15.5866C48.0852 15.4136 48.1334 15.2893 48.2992 15.0515C48.4169 14.8786 48.572 14.711 48.7699 14.6192L48.7378 12.8897C48.7218 11.8737 48.6736 10.8576 48.6201 10.4307C48.5773 10.0307 48.5292 9.66323 48.5131 9.62C48.4971 9.56055 48.251 9.5011 47.5931 9.3876C47.0956 9.30654 46.5928 9.24168 46.4698 9.24168C46.2558 9.24168 46.2344 9.2579 46.1542 9.44165C46.106 9.55514 46.0472 9.90103 46.0258 10.2145C45.999 10.528 45.9402 10.9765 45.8974 11.2143C45.8546 11.4521 45.7904 11.9764 45.7583 12.3763C45.7316 12.7762 45.7048 13.4626 45.7048 13.9004C45.7048 14.684 45.7048 14.7002 45.8279 14.7218C45.8921 14.7381 46.0525 14.7597 46.1863 14.7759C46.32 14.7921 46.4591 14.8353 46.4912 14.8732C46.5393 14.9218 46.5447 15.0299 46.5179 15.2353C46.4805 15.5163 46.4698 15.5379 46.2665 15.6244C46.1488 15.6784 45.9349 15.7379 45.7851 15.7595C45.6406 15.7757 45.2876 15.7649 45.0094 15.7271C44.6297 15.6784 44.4424 15.6784 44.0466 15.7811L43.3994 15.2136L43.5224 15.0839C43.5919 15.0137 43.7524 14.884 43.8861 14.7975C44.0199 14.7164 44.191 14.6462 44.2766 14.6462C44.3783 14.6462 44.4371 14.6083 44.4692 14.5219C44.4959 14.457 44.5922 13.8679 44.6832 13.214C44.7687 12.56 44.9667 11.0252 45.1164 9.80915C45.2662 8.59314 45.4213 7.35551 45.4641 7.06367C45.5069 6.77723 45.6193 6.35028 45.7102 6.11789C45.8011 5.8909 45.9723 5.44773 46.0846 5.13427C46.2023 4.82081 46.4163 4.32359 46.5661 4.02635C46.7158 3.7291 46.9726 3.28053 47.1384 3.02652C47.4005 2.63739 47.4861 2.54552 47.7375 2.41581C47.898 2.33474 48.0906 2.26989 48.1654 2.26989V2.26989ZM47.24 4.5668C47.1598 4.80459 46.994 5.36126 46.8656 5.80983C46.7319 6.253 46.5447 7.00422 46.4484 7.46901C46.3253 8.03648 46.2825 8.33913 46.32 8.37156C46.3521 8.40399 46.5767 8.46344 46.8282 8.50667C47.0796 8.54991 47.5556 8.60395 47.8926 8.63097L48.4971 8.67421C48.449 6.20976 48.4222 5.87468 48.3259 5.43152C48.2617 5.13427 48.1334 4.65867 48.0424 4.37764C47.9087 3.9723 47.8498 3.85881 47.7643 3.848C47.7001 3.83719 47.5984 3.89664 47.5129 3.98311C47.438 4.06418 47.3149 4.329 47.24 4.5668ZM70.4607 2.29151C71.0972 2.29691 71.1293 2.30231 71.2256 2.43202C71.2845 2.50768 71.3326 2.60497 71.3326 2.6482C71.3326 2.69144 71.2738 2.81574 71.2042 2.91843C71.1293 3.03732 71.0009 3.13461 70.8619 3.18865C70.6586 3.26431 70.6372 3.28593 70.6105 3.51292C70.5944 3.64803 70.5784 4.40466 70.5784 6.64753L70.9689 6.63672C71.3379 6.6205 71.3754 6.63672 71.9157 6.90694C72.2259 7.06367 72.6431 7.31768 72.8464 7.47441C73.055 7.62574 73.3385 7.90137 73.483 8.07972C73.6274 8.25807 73.8146 8.5391 73.8948 8.70123C73.9751 8.86337 74.1088 9.20385 74.1837 9.45786C74.2853 9.77673 74.3442 10.1388 74.387 10.6469C74.4191 11.0468 74.4298 11.6305 74.4137 11.9439C74.3923 12.3276 74.3388 12.6681 74.2425 12.9978C74.1623 13.268 73.9965 13.6896 73.8681 13.9436C73.7344 14.1976 73.515 14.5489 73.376 14.7218C73.2369 14.9002 72.9694 15.1596 72.7876 15.3055C72.6003 15.446 72.3222 15.6028 72.1724 15.6514C71.9959 15.7055 71.6054 15.7487 71.14 15.7649C70.4767 15.7919 70.3163 15.7757 69.7225 15.6514C69.3534 15.5757 68.9041 15.5109 68.7222 15.5109C68.4334 15.5109 68.3638 15.4893 68.2515 15.3758C68.1392 15.2623 68.1178 15.1866 68.1178 14.6462H68.5189C68.8934 14.6462 68.9201 14.6354 68.9469 14.5219C68.9629 14.457 68.9736 14.0301 68.9736 13.5761C68.9736 13.1275 68.9469 12.3817 68.9148 11.9277C68.872 11.3062 68.872 10.6198 68.9308 9.07955C68.9683 7.96622 69.0004 6.68536 69.0004 6.24219C69.0004 5.79362 68.9736 4.93971 68.8934 3.2427H68.7597C68.6848 3.2427 68.5724 3.20486 68.5082 3.16163C68.4066 3.09137 68.3852 3.03192 68.3852 2.78331C68.3852 2.54011 68.4066 2.47526 68.4922 2.43202C68.551 2.405 68.7383 2.37798 68.9094 2.37257C69.0753 2.36717 69.3481 2.34555 69.5085 2.32393C69.669 2.30231 70.1023 2.2861 70.4607 2.29151V2.29151ZM70.5944 11.4413L70.5784 14.6462C71.0544 14.6462 71.3379 14.6083 71.5145 14.5651C71.798 14.5003 71.8782 14.4408 72.2045 14.1219C72.4078 13.9166 72.6271 13.6355 72.6966 13.4842C72.7662 13.3329 72.825 13.1383 72.825 13.0519C72.825 12.9654 72.8625 12.7816 72.9052 12.6465C72.9427 12.5114 73.0015 12.2898 73.0336 12.1439C73.0657 12.0034 73.0925 11.7223 73.0925 11.5116C73.0925 11.3008 73.0657 10.8955 73.039 10.6036C73.0069 10.3172 72.9213 9.8686 72.8518 9.60378C72.7769 9.34437 72.6485 9.00388 72.5629 8.84715C72.472 8.69583 72.274 8.45803 72.1189 8.32832C71.9638 8.19862 71.691 8.02027 71.5145 7.9392C71.3379 7.85273 71.1079 7.78247 70.9956 7.78247C70.8191 7.78247 70.7923 7.80409 70.7014 8.00946C70.6105 8.22564 70.6051 8.47424 70.5944 11.4413V11.4413ZM75.3017 2.25367L75.521 2.30231C75.644 2.32934 75.9115 2.34555 76.1147 2.34555C76.318 2.34555 76.7994 2.32393 77.1846 2.30231C77.6446 2.26989 77.9548 2.27529 78.0939 2.31312C78.2366 2.35276 78.3311 2.41761 78.3774 2.50768C78.4309 2.62118 78.4256 2.68063 78.3614 2.83736C78.3186 2.94004 78.2009 3.07516 78.11 3.13461C78.0137 3.19406 77.8906 3.2427 77.8425 3.2427C77.7676 3.2427 77.7302 3.31836 77.6874 3.55075C77.6392 3.78855 77.6392 4.06958 77.6981 4.72893C77.7569 5.48016 77.7516 5.90711 77.6713 7.91758C77.6232 9.19304 77.559 10.8468 77.5323 11.5926C77.5055 12.3331 77.4841 13.3275 77.4788 14.6462L77.8532 14.8624C78.0565 14.9813 78.2383 15.1056 78.2544 15.1326C78.2704 15.1596 78.2704 15.2299 78.2544 15.2785C78.2437 15.3325 78.1153 15.4568 77.9762 15.5541C77.8158 15.6676 77.6874 15.7217 77.6392 15.7001C77.5964 15.6784 77.1471 15.6406 76.6496 15.619C76.1522 15.592 75.6333 15.5487 75.4996 15.5109C75.3659 15.4785 75.2268 15.4082 75.1893 15.3596C75.1519 15.3109 75.1251 15.2245 75.1251 15.1704C75.1251 15.1218 75.1786 15.0029 75.2482 14.9164C75.3177 14.8137 75.414 14.7543 75.4889 14.7543C75.5584 14.7543 75.6868 14.684 75.7724 14.5921C75.9061 14.4516 75.9222 14.403 75.8954 14.2246C75.874 14.1165 75.8526 11.598 75.8205 3.2427H75.6868C75.6119 3.2427 75.4942 3.21027 75.4193 3.17244C75.291 3.11299 75.2856 3.08597 75.291 2.68063L75.3017 2.25367ZM27.7799 18.4401L29.0529 18.4455C30.2244 18.4563 30.3421 18.4617 30.5079 18.5644C30.6149 18.6293 30.7112 18.7374 30.7433 18.8347C30.77 18.9211 30.7807 19.0454 30.7647 19.1049C30.7486 19.1643 30.6256 19.2886 30.4919 19.3859C30.2512 19.5589 30.2458 19.5697 30.2458 19.8615C30.2458 20.0236 30.2993 20.5425 30.3581 21.0073C30.417 21.4775 30.4651 22.0774 30.4651 22.3476C30.4651 22.6124 30.4544 23.0015 30.4491 23.2123C30.433 23.569 30.4384 23.5906 30.5561 23.6014C30.6202 23.6122 30.7968 23.5474 30.9519 23.4663C31.1017 23.3852 31.3531 23.1799 31.5136 23.0069C31.6901 22.8178 31.8773 22.5259 32.011 22.2503C32.1234 22.0071 32.2571 21.6504 32.2999 21.4558C32.3427 21.2613 32.4443 20.8019 32.5192 20.429C32.5941 20.0561 32.6529 19.721 32.6529 19.6832C32.6529 19.6399 32.5638 19.6183 32.3855 19.6183C32.241 19.6183 32.118 19.5967 32.1234 19.5751C32.1234 19.5535 32.0592 19.44 31.9843 19.3211C31.904 19.2022 31.8506 19.0562 31.8613 19.0022C31.8719 18.9427 31.9629 18.8509 32.0645 18.7968C32.1662 18.7428 32.5352 18.6509 32.8829 18.5915C33.4286 18.4942 33.5302 18.4942 33.6586 18.559C33.7388 18.5969 33.8351 18.6671 33.8725 18.705C33.91 18.7482 33.9528 18.8779 33.9742 18.9968C34.0063 19.1859 33.9902 19.2292 33.8458 19.3859C33.7548 19.4832 33.6265 19.5643 33.5676 19.5643C33.466 19.5643 33.4553 19.5967 33.4553 19.8723C33.4553 20.0453 33.4125 20.429 33.3537 20.7262C33.2948 21.0235 33.1825 21.4829 33.1076 21.7531C33.0327 22.0233 32.7813 22.6286 32.5406 23.1312C32.2571 23.7041 32.118 24.0554 32.1394 24.1148C32.1555 24.1689 32.2196 24.2121 32.2785 24.2121C32.3373 24.2121 32.6101 24.3743 32.8829 24.5688C33.1557 24.7634 33.4339 24.9904 33.5034 25.066C33.5676 25.1471 33.7067 25.3795 33.8083 25.5903C33.91 25.7956 34.0491 26.2118 34.1239 26.509C34.1935 26.8063 34.3272 27.5467 34.4128 28.1574C34.5412 29.0113 34.5626 29.3194 34.5251 29.5085C34.4984 29.6436 34.477 29.8923 34.477 30.0598C34.4716 30.303 34.5037 30.4165 34.6 30.5732C34.6749 30.6867 34.83 30.8705 34.9477 30.9786C35.0921 31.1137 35.167 31.2272 35.167 31.319C35.167 31.3947 35.1349 31.5298 35.0226 31.8054L34.1988 31.8433C33.7495 31.8649 33.1771 31.8865 32.9364 31.8865C32.5352 31.8865 32.4871 31.8757 32.4122 31.7622C32.3694 31.6974 32.332 31.5893 32.332 31.519C32.332 31.4487 32.4604 31.2596 32.6529 31.0488C32.8562 30.8218 32.9846 30.6327 33.006 30.5192C33.022 30.4219 33.022 30.2111 33.006 30.049C32.9899 29.8868 32.9525 29.0221 32.9257 28.1304C32.8936 26.8603 32.8615 26.4334 32.7867 26.1577C32.7332 25.9632 32.6422 25.6984 32.5727 25.5633C32.5085 25.4281 32.3855 25.2552 32.2999 25.1795C32.2143 25.1039 32.011 25.0012 31.8506 24.9417C31.6366 24.8715 31.4547 24.8499 31.1819 24.8661C30.9465 24.8823 30.7379 24.9309 30.6202 25.0012C30.5186 25.0552 30.3956 25.1903 30.3421 25.293C30.294 25.3957 30.2298 25.6659 30.1977 25.8875C30.1602 26.1631 30.1602 26.6225 30.1977 27.3467C30.2458 28.352 30.2458 28.4168 30.1335 28.833C30.0693 29.0708 29.9997 29.3734 29.973 29.5085C29.9516 29.6436 29.9302 29.9733 29.9249 30.7516L30.1228 30.8705C30.2298 30.9407 30.3635 31.065 30.417 31.1569C30.4705 31.2434 30.5133 31.3785 30.5186 31.4541C30.5186 31.5298 30.4758 31.6433 30.4223 31.7136C30.3367 31.8325 30.2833 31.8433 29.7644 31.8541C29.4541 31.8649 28.9727 31.8865 28.1864 31.9568L27.9885 31.7838C27.8387 31.6595 27.7852 31.573 27.7852 31.4541C27.7852 31.3244 27.828 31.2596 28.0152 31.1353C28.1382 31.0542 28.2613 30.9461 28.2827 30.8921C28.3041 30.8434 28.3201 29.8544 28.3201 28.6979C28.3201 26.6225 28.3255 26.5793 28.4538 26.0605C28.5715 25.6065 28.5929 25.4227 28.5876 24.6715C28.5876 24.1959 28.5662 23.3096 28.5341 22.6989C28.502 22.0882 28.4431 21.3207 28.4004 20.9965C28.3576 20.6668 28.3201 20.2128 28.3201 19.5643L28.1008 19.5481C27.9457 19.5426 27.8601 19.5048 27.8173 19.4292C27.7852 19.3697 27.721 19.294 27.6782 19.2562C27.6247 19.213 27.6015 19.1103 27.6087 18.9482C27.6194 18.813 27.6568 18.6455 27.6996 18.5698L27.7799 18.4401ZM39.5587 18.4672C39.8368 18.4834 40.1952 18.5158 40.361 18.5428C40.5215 18.5752 40.7729 18.6509 40.9227 18.7212C41.0671 18.786 41.2971 18.9536 41.4309 19.0887C41.5593 19.2238 41.8909 19.5643 42.1584 19.8399C42.5702 20.2723 42.6826 20.4344 42.9179 20.9154C43.0677 21.2288 43.2389 21.6774 43.3031 21.9152C43.3619 22.153 43.4368 22.6286 43.4689 22.9691C43.5063 23.3474 43.517 24.1311 43.501 24.9688C43.4742 26.1848 43.4528 26.428 43.3298 27.0225C43.2549 27.3954 43.1159 27.9574 43.0303 28.2655C42.9393 28.579 42.7789 29.0546 42.6772 29.3194C42.5702 29.5896 42.3616 30.049 42.2172 30.3462C42.0246 30.7354 41.8642 30.9731 41.6502 31.1893C41.479 31.3569 41.2009 31.5622 41.0029 31.6595C40.8104 31.7514 40.4841 31.8703 40.2808 31.9189C40.024 31.9784 39.7833 32 39.5319 31.9784C39.3233 31.9622 38.9649 31.8865 38.7296 31.8108C38.4942 31.7406 38.1572 31.5839 37.9807 31.4704C37.8042 31.3515 37.5153 31.1029 37.3441 30.9137C37.1088 30.6543 36.9483 30.4003 36.7183 29.9139C36.5525 29.5572 36.3385 29.06 36.2529 28.8059C36.162 28.5573 36.0603 28.2169 36.0336 28.0493C36.0015 27.8872 35.9533 27.4981 35.9213 27.1846C35.8945 26.8765 35.8571 25.9632 35.8357 25.1579C35.8036 23.9311 35.8143 23.6068 35.8892 23.1042C35.9426 22.7799 36.0175 22.2935 36.0603 22.0233C36.0978 21.7585 36.1566 21.4504 36.1887 21.3369C36.2155 21.2234 36.2957 21.0667 36.3652 20.9856C36.4348 20.9046 36.6915 20.5317 36.9322 20.1588C37.173 19.7913 37.5206 19.3319 37.7025 19.1427C37.8844 18.959 38.1518 18.7428 38.3016 18.6725C38.446 18.5969 38.6761 18.5158 38.8098 18.4888C38.9382 18.4617 39.2752 18.4509 39.5587 18.4672V18.4672ZM38.553 20.1317C38.43 20.3425 38.2321 20.7641 38.1144 21.0667C37.9914 21.3748 37.8737 21.7909 37.8469 22.0125C37.8202 22.2287 37.7721 22.7583 37.74 23.1853C37.7079 23.6176 37.6811 24.3851 37.6865 24.8877C37.6865 25.3957 37.7079 26.0983 37.74 26.455C37.7667 26.8117 37.8416 27.471 37.9004 27.9142C37.9593 28.3628 38.0823 28.9681 38.1679 29.2653C38.2588 29.5626 38.3872 29.9247 38.4514 30.0706C38.5156 30.2165 38.6119 30.357 38.66 30.3787C38.7135 30.4057 38.7884 30.5138 38.8365 30.6165C38.8793 30.7299 38.9863 30.8434 39.0879 30.8975C39.2056 30.9623 39.3821 30.9894 39.6389 30.984C39.8422 30.9786 40.131 30.9353 40.2808 30.8921C40.4252 30.8434 40.6125 30.7408 40.6873 30.6597C40.7676 30.5786 40.9067 30.3246 40.9976 30.0922C41.0885 29.8598 41.2437 29.3896 41.3453 29.0383C41.4469 28.687 41.5753 28.1952 41.6395 27.9412C41.6983 27.6926 41.7732 27.1414 41.8107 26.7252C41.8428 26.3091 41.8749 25.2282 41.8749 24.3202C41.8802 23.1691 41.8642 22.6394 41.8214 22.5638C41.7839 22.5043 41.6823 22.1854 41.5913 21.8504C41.4951 21.4775 41.2971 20.964 41.0885 20.5263C40.8639 20.0615 40.6766 19.7426 40.5483 19.6183C40.3931 19.4724 40.2915 19.4237 40.0722 19.3967C39.9224 19.3751 39.6496 19.3589 39.4677 19.3535C39.1575 19.3481 39.1307 19.3589 38.9596 19.5535C38.8579 19.6669 38.6761 19.9264 38.553 20.1317V20.1317ZM50.4442 18.4672C50.8828 18.4834 51.2893 18.5212 51.3375 18.5482C51.391 18.5698 51.4712 18.6725 51.5194 18.7698C51.5675 18.8671 51.6103 19.0184 51.6103 19.1049C51.6156 19.1968 51.5729 19.3373 51.5247 19.4183C51.4712 19.4994 51.3856 19.5643 51.3268 19.5643C51.2573 19.5643 51.1931 19.6291 51.1449 19.7426C51.1021 19.8399 51.0379 20.1101 51.0005 20.3479C50.947 20.6722 50.9256 21.6018 50.9256 24.023C50.9256 26.9306 50.9363 27.4008 51.0433 28.5357C51.1075 29.2383 51.1717 30.0598 51.1877 30.3624C51.2038 30.6651 51.2359 30.9137 51.2573 30.9137C51.2786 30.9137 51.4017 31.0002 51.5247 31.1029C51.7494 31.292 51.7547 31.3028 51.7547 31.6325C51.7547 31.9081 51.744 31.9568 51.6905 31.9027C51.6317 31.8487 51.5889 31.8487 51.4605 31.9135C51.3375 31.9784 51.0861 31.9946 50.3907 32C49.5883 32 49.4706 31.9892 49.3851 31.9027C49.3262 31.8433 49.2995 31.7676 49.3155 31.6974C49.3316 31.6379 49.4385 31.492 49.5509 31.3731C49.6632 31.2542 49.829 31.0975 50.0911 30.8867L50.1553 30.076C50.1928 29.5572 50.2035 28.7249 50.1821 27.7521C50.166 26.9198 50.1339 25.7416 50.1179 25.1309C50.1018 24.5256 50.0751 23.9689 50.0644 23.9041C50.0483 23.8068 49.9735 23.7636 49.7327 23.6933C49.476 23.6176 49.2727 23.6122 48.4917 23.6393C47.9729 23.6555 47.438 23.6933 47.2935 23.7149C47.0635 23.7527 47.0207 23.7798 46.8817 23.9959C46.8014 24.1311 46.6944 24.3851 46.6463 24.5634C46.5767 24.8336 46.5661 25.2822 46.5661 27.2008C46.5661 28.7951 46.5821 29.5464 46.6249 29.6328C46.657 29.6977 46.6944 29.9247 46.7105 30.13C46.7212 30.3408 46.7533 30.584 46.78 30.6705C46.8121 30.7786 46.887 30.8597 46.994 30.9029C47.0796 30.9407 47.2026 31.0488 47.2614 31.1461C47.3203 31.2434 47.3684 31.3515 47.3684 31.3893C47.3684 31.4271 47.3096 31.519 47.2347 31.5893C47.1277 31.7028 47.0528 31.7244 46.7961 31.7244C46.6249 31.7244 46.2184 31.7568 45.8974 31.7892C45.4481 31.8325 45.2074 31.8325 44.8811 31.7838C44.6457 31.7514 44.421 31.6919 44.3783 31.6541C44.3408 31.6217 44.2873 31.5082 44.2606 31.4001C44.2285 31.2812 44.2285 31.1515 44.2659 31.038C44.3141 30.8651 44.3248 30.8597 44.9078 30.8597L44.8864 26.1199C44.8757 23.3204 44.849 21.0667 44.8115 20.6181C44.7794 20.202 44.7313 19.8021 44.7045 19.7264C44.6671 19.6399 44.5922 19.5805 44.4745 19.5481C44.3729 19.5264 44.2124 19.4237 44.1161 19.3211C44.0199 19.2184 43.945 19.0995 43.945 19.0508C43.945 19.0076 43.9664 18.9211 43.9985 18.8617C44.0466 18.7698 44.1054 18.7536 44.5441 18.7536C44.8169 18.7536 45.3625 18.7158 45.7637 18.6725C46.1595 18.6239 46.5821 18.6023 46.6998 18.6185C46.8175 18.6401 47.0314 18.6941 47.1759 18.7428C47.3203 18.7968 47.4808 18.8995 47.5396 18.9698C47.5984 19.0508 47.6359 19.1697 47.6252 19.267C47.6145 19.3751 47.5646 19.4526 47.4754 19.4994C47.4005 19.5318 47.224 19.5643 47.0849 19.5643C46.8763 19.5643 46.8228 19.5859 46.7693 19.6886C46.7265 19.7804 46.7265 19.9047 46.78 20.1858C46.8282 20.456 46.8335 20.7046 46.8014 21.0505C46.7747 21.3207 46.7533 21.7531 46.7533 22.0179C46.7533 22.434 46.764 22.5043 46.8603 22.5692C46.9191 22.607 47.1598 22.6718 47.3952 22.7097C47.6305 22.7475 48.1334 22.7799 48.5185 22.7745C48.8983 22.7745 49.369 22.7421 49.5616 22.7043C49.7488 22.6718 49.9574 22.6286 50.0163 22.607C50.1179 22.58 50.1179 22.5529 50.0751 21.7585C50.0537 21.3099 50.0109 20.7641 49.9842 20.5371C49.9574 20.3155 49.9039 20.0074 49.8665 19.8507C49.8183 19.6507 49.7648 19.5535 49.6793 19.5156C49.6151 19.4832 49.4706 19.4562 49.3583 19.4562C49.2513 19.4562 49.0695 19.4346 48.7592 19.3481V18.6995L48.9839 18.6185C49.1122 18.5752 49.3102 18.5158 49.4278 18.4888C49.5455 18.4617 50.0002 18.4509 50.4442 18.4672V18.4672ZM56.9701 18.4401C57.7297 18.4347 58.179 18.4563 58.5214 18.5158C58.7835 18.559 59.1098 18.6509 59.2435 18.7158C59.404 18.7968 59.511 18.8995 59.5752 19.0238C59.6233 19.1319 59.6929 19.3967 59.7303 19.6183C59.7784 19.9426 59.7784 20.0885 59.7249 20.3209C59.6768 20.5263 59.6019 20.6722 59.4789 20.7965C59.3612 20.9208 59.2542 20.9694 59.1419 20.9694C59.0313 20.9694 58.9654 20.9388 58.944 20.8776C58.9279 20.8235 58.8958 20.5533 58.8691 20.2668C58.8477 19.9858 58.8049 19.7048 58.7728 19.6453C58.7461 19.5859 58.6819 19.521 58.6337 19.4994C58.5856 19.4778 58.4572 19.4562 58.3449 19.4562C58.2379 19.4562 57.9062 19.4886 57.6174 19.5264C57.1306 19.5859 57.0825 19.6021 57.0343 19.7264C57.0076 19.8129 57.0022 20.0939 57.029 20.456C57.0504 20.7857 57.0718 23.3096 57.0718 26.0605C57.0718 29.3248 57.0932 31.092 57.1306 31.1299C57.1574 31.1623 57.2911 31.2109 57.4248 31.2434C57.5532 31.2758 57.719 31.3352 57.7832 31.3785C57.8581 31.4271 57.9062 31.5082 57.9062 31.5893C57.9062 31.6865 57.8527 31.7568 57.7297 31.8325C57.5692 31.9351 57.4623 31.9406 56.125 31.9406C54.7021 31.9406 54.6968 31.9406 54.6112 31.8217C54.5684 31.7568 54.5363 31.6325 54.547 31.546C54.5577 31.4217 54.6005 31.3785 54.777 31.3082C54.8947 31.265 55.0765 31.2001 55.3814 31.1029L55.3868 26.509C55.3868 23.877 55.3654 21.5801 55.3333 21.1316C55.3012 20.7046 55.2424 20.1804 55.1996 19.9696C55.1568 19.7642 55.1086 19.5805 55.0926 19.5643C55.0712 19.5535 54.793 19.5318 54.4614 19.521C54.0602 19.5048 53.7981 19.521 53.6537 19.5697C53.536 19.6075 53.3434 19.7264 53.2311 19.8345C53.1188 19.9372 52.9957 20.0723 52.969 20.1317C52.9369 20.1912 52.8941 20.4236 52.878 20.6398C52.8566 20.937 52.8246 21.0559 52.7604 21.0991C52.6962 21.1424 52.6213 21.1424 52.5197 21.1045C52.4127 21.0667 52.3592 21.0019 52.3324 20.8613C52.3057 20.7587 52.2736 20.3966 52.2522 20.0507C52.2361 19.7102 52.2361 19.3427 52.2522 19.2292C52.2843 19.0508 52.3217 19.0076 52.5571 18.8887C52.7015 18.8184 52.9957 18.7049 53.2097 18.6401C53.5253 18.5482 53.8195 18.5212 54.7502 18.4888C55.3814 18.4672 56.3817 18.4455 56.9701 18.4401V18.4401ZM66.3204 18.4563L66.4167 18.5915C66.4809 18.6833 66.5558 18.9698 66.6253 19.4292C66.7216 20.0291 66.727 20.1588 66.6681 20.2885C66.6307 20.3749 66.5344 20.4938 66.4649 20.5479C66.39 20.6073 66.2509 20.6506 66.1546 20.6506C66.0423 20.6506 65.9674 20.6127 65.9353 20.5533C65.9086 20.4992 65.8765 20.2885 65.8551 20.0777C65.839 19.8723 65.7909 19.667 65.7534 19.6291C65.716 19.5859 65.5716 19.494 65.4325 19.4237C65.2506 19.3319 65.0901 19.294 64.8708 19.2994C64.705 19.2994 64.3841 19.3211 64.1647 19.3535C63.9401 19.3805 63.6459 19.44 63.5068 19.4832C63.3196 19.5481 63.2286 19.6129 63.1591 19.7426C63.0789 19.8993 63.0682 20.0993 63.0682 21.5909C63.0682 22.5151 63.0789 23.4771 63.0949 23.7257C63.1056 23.9797 63.1003 24.2662 63.0789 24.3635C63.0414 24.531 63.0521 24.5418 63.2393 24.6229C63.3624 24.6769 63.6833 24.7256 64.6462 24.7796V24.5634C64.6408 24.4445 64.6676 24.2716 64.6943 24.1743C64.7264 24.0716 64.7959 23.9851 64.8601 23.9689C64.919 23.9581 65.0206 23.9581 65.0848 23.9797C65.1543 23.9959 65.256 24.0554 65.3148 24.1094C65.4111 24.2013 65.4218 24.277 65.4218 25.2714C65.4218 26.2712 65.4164 26.3361 65.3148 26.4064C65.2185 26.4712 65.1864 26.4658 65.0473 26.3901C64.9564 26.3415 64.8334 26.2442 64.7638 26.1794C64.6783 26.0875 64.6462 25.9848 64.6462 25.6173L63.2821 25.6443L63.2126 25.9686C63.1591 26.2064 63.1538 26.6117 63.1751 27.4548C63.1912 28.098 63.2286 29.1194 63.2554 29.7247C63.2928 30.503 63.3303 30.8434 63.3731 30.8705C63.4105 30.8921 63.6459 30.9461 63.8973 30.9894C64.1433 31.038 64.6034 31.092 64.9136 31.1083C65.4485 31.1407 65.4806 31.1407 65.5823 31.0218C65.6625 30.9299 65.6946 30.7894 65.7267 30.4381C65.7534 30.103 65.7909 29.9409 65.8604 29.8706C65.9193 29.8112 66.0102 29.7788 66.1118 29.7896C66.1974 29.8004 66.3044 29.8652 66.3632 29.9409C66.4167 30.0166 66.4916 30.2219 66.5237 30.4003C66.5558 30.5786 66.5719 30.8651 66.5612 31.0326C66.5451 31.2974 66.513 31.3731 66.0476 31.9676L64.3948 31.9622C63.4907 31.9622 62.3728 31.9243 61.9181 31.8919C61.4581 31.8541 60.9071 31.7946 60.2866 31.6974L60.2599 31.1299H61.3832L61.4206 30.7137C61.442 30.4813 61.4581 29.9787 61.4527 29.5896C61.4474 29.2059 61.4313 26.7901 61.3832 19.5643H60.2599L60.2545 18.9968L60.7252 18.9049C60.982 18.8563 61.6399 18.7536 62.1856 18.6779C62.7258 18.5969 63.2447 18.5158 63.3356 18.4888C63.4212 18.4617 64.1273 18.4455 66.3204 18.4563V18.4563ZM73.606 18.4672C74.0446 18.4834 74.4511 18.5212 74.4993 18.5482C74.5528 18.5698 74.633 18.6725 74.6812 18.7698C74.7293 18.8671 74.7721 19.0184 74.7721 19.1049C74.7774 19.1968 74.7347 19.3373 74.6865 19.4183C74.633 19.4994 74.5474 19.5643 74.4886 19.5643C74.4191 19.5643 74.3549 19.6291 74.3067 19.7426C74.2639 19.8399 74.1997 20.1101 74.1623 20.3479C74.1088 20.6722 74.0874 21.6018 74.0874 24.023C74.0874 26.9306 74.0981 27.4008 74.2051 28.5357C74.2693 29.2383 74.3335 30.0598 74.3495 30.3624C74.3656 30.6651 74.3977 30.9137 74.4191 30.9137C74.4404 30.9137 74.5635 31.0002 74.6865 31.1029C74.9112 31.292 74.9165 31.3028 74.9165 31.6325C74.9165 31.9081 74.9058 31.9568 74.8523 31.9027C74.7935 31.8487 74.7507 31.8487 74.6223 31.9135C74.4993 31.9784 74.2479 31.9946 73.5525 32C72.7501 32 72.6324 31.9892 72.5469 31.9027C72.488 31.8433 72.4613 31.7676 72.4773 31.6974C72.4934 31.6379 72.6003 31.492 72.7127 31.3731C72.825 31.2542 72.9908 31.0975 73.2529 30.8867L73.3171 30.076C73.3546 29.5572 73.3653 28.7249 73.3439 27.7521C73.3278 26.9198 73.2957 25.7416 73.2797 25.1309C73.2636 24.5256 73.2369 23.9689 73.2262 23.9041C73.2101 23.8068 73.1353 23.7636 72.8945 23.6933C72.6378 23.6176 72.4345 23.6122 71.6535 23.6393C71.1347 23.6555 70.5998 23.6933 70.4553 23.7149C70.2253 23.7527 70.1825 23.7798 70.0435 23.9959C69.9632 24.1311 69.8562 24.3851 69.8081 24.5634C69.7385 24.8336 69.7279 25.2822 69.7279 27.2008C69.7279 28.7951 69.7439 29.5464 69.7867 29.6328C69.8188 29.6977 69.8562 29.9247 69.8723 30.13C69.883 30.3408 69.9151 30.584 69.9418 30.6705C69.9739 30.7786 70.0488 30.8597 70.1558 30.9029C70.2414 30.9407 70.3644 31.0488 70.4232 31.1461C70.4821 31.2434 70.5302 31.3515 70.5302 31.3893C70.5302 31.4271 70.4714 31.519 70.3965 31.5893C70.2895 31.7028 70.2146 31.7244 69.9579 31.7244C69.7867 31.7244 69.3802 31.7568 69.0592 31.7892C68.6099 31.8325 68.3692 31.8325 68.0429 31.7838C67.8075 31.7514 67.5828 31.6919 67.5401 31.6541C67.5026 31.6217 67.4491 31.5082 67.4224 31.4001C67.3903 31.2812 67.3903 31.1515 67.4277 31.038C67.4759 30.8651 67.4866 30.8597 68.0696 30.8597L68.0482 26.1199C68.0375 23.3204 68.0108 21.0667 67.9733 20.6181C67.9412 20.202 67.8931 19.8021 67.8663 19.7264C67.8343 19.6453 67.7594 19.5805 67.6631 19.5589C67.5775 19.5372 67.4384 19.467 67.3528 19.3967C67.2672 19.3265 67.1763 19.213 67.1496 19.1481C67.1228 19.0779 67.1282 18.9698 67.1603 18.8887C67.2084 18.759 67.2298 18.7536 67.7059 18.7536C67.9787 18.7536 68.5243 18.7158 68.9255 18.6725C69.3213 18.6239 69.7439 18.6023 69.8616 18.6185C69.9793 18.6401 70.1932 18.6941 70.3377 18.7428C70.4821 18.7968 70.6426 18.8995 70.7014 18.9698C70.7602 19.0508 70.7977 19.1697 70.787 19.267C70.7763 19.3751 70.7264 19.4526 70.6372 19.4994C70.5623 19.5318 70.3858 19.5643 70.2467 19.5643C70.0381 19.5643 69.9846 19.5859 69.9311 19.6886C69.8883 19.7804 69.8883 19.9047 69.9418 20.1858C69.99 20.456 69.9953 20.7046 69.9632 21.0505C69.9365 21.3207 69.9151 21.7531 69.9151 22.0179C69.9151 22.434 69.9258 22.5043 70.0221 22.5692C70.0809 22.607 70.3216 22.6718 70.557 22.7097C70.7923 22.7475 71.2952 22.7799 71.6803 22.7745C72.0601 22.7745 72.5308 22.7421 72.7234 22.7043C72.9106 22.6718 73.1192 22.6286 73.1781 22.607C73.2797 22.58 73.2797 22.5529 73.2369 21.7585C73.2155 21.3099 73.1727 20.7641 73.146 20.5371C73.1192 20.3155 73.0657 20.0074 73.0283 19.8507C72.9801 19.6507 72.9266 19.5535 72.8411 19.5156C72.7769 19.4832 72.6324 19.4562 72.5201 19.4562C72.4131 19.4562 72.2313 19.4346 71.921 19.3481V18.6995L72.1457 18.6185C72.274 18.5752 72.472 18.5158 72.5896 18.4888C72.7073 18.4617 73.162 18.4509 73.606 18.4672V18.4672ZM80.1854 18.4401C80.945 18.4347 81.3943 18.4563 81.7367 18.5158C81.9988 18.559 82.3251 18.6509 82.4588 18.7158C82.6193 18.7968 82.7263 18.8995 82.7905 19.0238C82.8386 19.1319 82.9081 19.3967 82.9456 19.6183C82.9937 19.9426 82.9937 20.0885 82.9402 20.3209C82.8921 20.5263 82.8172 20.6722 82.6942 20.7965C82.5765 20.9208 82.4695 20.9694 82.3572 20.9694C82.2466 20.9694 82.1807 20.9388 82.1593 20.8776C82.1432 20.8235 82.1111 20.5533 82.0844 20.2668C82.063 19.9858 82.0202 19.7048 81.9881 19.6453C81.9613 19.5859 81.8972 19.521 81.849 19.4994C81.8009 19.4778 81.6725 19.4562 81.5602 19.4562C81.4532 19.4562 81.1215 19.4886 80.8327 19.5264C80.3459 19.5859 80.2978 19.6021 80.2496 19.7264C80.2229 19.8129 80.2175 20.0939 80.2443 20.456C80.2657 20.7857 80.2871 23.3096 80.2871 26.0605C80.2871 29.3248 80.3085 31.092 80.3459 31.1299C80.3727 31.1623 80.5064 31.2109 80.6401 31.2434C80.7685 31.2758 80.9343 31.3352 80.9985 31.3785C81.0734 31.4271 81.1215 31.5082 81.1215 31.5893C81.1215 31.6865 81.068 31.7568 80.945 31.8325C80.7845 31.9351 80.6776 31.9406 79.3403 31.9406C77.9174 31.9406 77.912 31.9406 77.8265 31.8217C77.7837 31.7568 77.7516 31.6325 77.7623 31.546C77.773 31.4217 77.8158 31.3785 77.9923 31.3082C78.11 31.265 78.2918 31.2001 78.5967 31.1029L78.6021 26.509C78.6021 23.877 78.5807 21.5801 78.5486 21.1316C78.5165 20.7046 78.4577 20.1804 78.4149 19.9696C78.3721 19.7642 78.3239 19.5805 78.3079 19.5643C78.2865 19.5535 78.0083 19.5318 77.6767 19.521C77.2755 19.5048 77.0134 19.521 76.869 19.5697C76.7513 19.6075 76.5587 19.7264 76.4464 19.8345C76.334 19.9372 76.211 20.0723 76.1843 20.1317C76.1522 20.1912 76.1094 20.4236 76.0933 20.6398C76.0719 20.937 76.0398 21.0559 75.9757 21.0991C75.9115 21.1424 75.8366 21.1424 75.7349 21.1045C75.628 21.0667 75.5745 21.0019 75.5424 20.8613C75.521 20.7587 75.4889 20.3587 75.4675 19.9696C75.4514 19.5102 75.4568 19.2184 75.4996 19.1211C75.537 19.0184 75.6387 18.9373 75.8098 18.8617C75.9489 18.7968 76.2324 18.6995 76.441 18.6401C76.7352 18.5482 77.0455 18.5212 77.9655 18.4888C78.5967 18.4672 79.597 18.4455 80.1854 18.4401V18.4401Z" fill="#FBFBF1"/>
<path fill-rule="evenodd" clip-rule="evenodd" d="M21.5805 13.8821L21.6711 13.9398C21.7222 13.9722 21.7896 14.0391 21.8825 14.1777L21.8895 14.9882C21.8941 15.5147 21.8895 15.8333 21.8732 15.8957C21.8593 15.9511 21.8128 16.0319 21.7733 16.0781C21.7315 16.1243 21.6641 16.1797 21.627 16.2005C21.5619 16.2351 20.7838 16.2374 12.1147 16.2374C6.92066 16.2374 2.64419 16.2305 2.60702 16.2213C2.57218 16.2097 2.51178 16.1751 2.47229 16.1405C2.43048 16.1035 2.37938 16.0365 2.35615 15.9904C2.31433 15.9095 2.31201 15.8356 2.31201 15.0598C2.31201 14.5194 2.3213 14.1938 2.33756 14.1523C2.34918 14.1176 2.38867 14.0599 2.42351 14.023C2.45835 13.986 2.52804 13.9375 2.57915 13.9144C2.66974 13.8729 2.96243 13.8705 21.5805 13.8821V13.8821ZM5.50136 16.4684C6.65352 16.4753 10.5816 16.4845 14.2285 16.4914C17.8755 16.4984 20.8627 16.5053 20.8627 16.5099C20.8651 16.5122 20.8116 17.2304 20.742 18.1079C20.6746 18.9853 20.5375 20.7034 20.4423 21.9295C20.3447 23.1557 20.1821 25.197 20.0799 26.467C19.9777 27.7371 19.8685 29.0718 19.836 29.4343C19.8058 29.7969 19.764 30.1594 19.7477 30.2425C19.7292 30.3256 19.6943 30.4434 19.6711 30.5081C19.6479 30.5704 19.5875 30.6974 19.5364 30.7852C19.4806 30.8891 19.3784 31.0138 19.2576 31.1315C19.1531 31.2331 19.0114 31.3509 18.9417 31.3902C18.872 31.4317 18.7326 31.501 18.6304 31.5472C18.5282 31.5911 18.3401 31.6557 17.98 31.755L12.2076 31.7619C7.99849 31.7666 6.37245 31.7619 6.20288 31.7412C6.07512 31.7273 5.88232 31.6904 5.77314 31.6603C5.66397 31.6303 5.47581 31.5564 5.35502 31.4964C5.17151 31.4063 5.10182 31.3555 4.9369 31.1916C4.82772 31.0831 4.70461 30.9353 4.66279 30.866C4.6233 30.7967 4.55594 30.6466 4.51645 30.5312C4.47696 30.4157 4.43283 30.2356 4.42121 30.1271C4.4096 30.0185 4.17266 26.9058 3.89391 23.2111C3.61516 19.5165 3.39216 16.4845 3.39681 16.4753C3.40145 16.466 4.3492 16.4614 5.50136 16.4684V16.4684ZM6.64423 18.2302C6.59313 18.2557 6.5188 18.3111 6.47698 18.3549C6.43517 18.3965 6.38407 18.4727 6.36084 18.5235C6.32599 18.602 6.31902 18.699 6.31206 19.2163C6.30973 19.5465 6.31438 19.8236 6.32367 19.8328C6.33296 19.842 6.39568 19.7797 6.46072 19.6943C6.52576 19.6088 6.67675 19.431 6.79754 19.2994C6.91833 19.1655 7.12043 18.9646 7.24819 18.8514C7.37595 18.736 7.5641 18.5789 7.66631 18.5004C7.76852 18.4196 7.93112 18.3018 8.02636 18.2372L8.20058 18.1194C7.22031 18.1217 6.96712 18.1333 6.87652 18.154C6.79987 18.1702 6.69534 18.2048 6.64423 18.2302V18.2302ZM16.0404 18.3642C16.1612 18.4519 16.3702 18.6205 16.505 18.736C16.6397 18.8491 16.8488 19.0477 16.9719 19.1724C17.0927 19.2971 17.2785 19.5072 17.383 19.6365L17.5735 19.8744C17.5735 18.9138 17.5642 18.6505 17.548 18.5928C17.534 18.542 17.4922 18.4565 17.455 18.4011C17.4063 18.3319 17.3482 18.2857 17.2437 18.2349C17.1624 18.1979 17.0392 18.1564 16.9696 18.1425C16.8999 18.1286 16.5863 18.1194 16.2727 18.1194C15.7291 18.1217 15.7059 18.124 15.7616 18.161C15.7918 18.1818 15.9173 18.2741 16.0404 18.3642V18.3642ZM10.9648 19.0546C10.8115 19.0893 10.5676 19.1585 10.4259 19.207C10.2819 19.2578 10.045 19.3525 9.90327 19.4195C9.75925 19.4887 9.5409 19.6042 9.4201 19.6804C9.29931 19.7543 9.0949 19.8928 8.96714 19.9875C8.83938 20.0822 8.63264 20.26 8.50488 20.3801C8.37944 20.5025 8.21219 20.6803 8.13089 20.7749C8.05191 20.8696 7.93577 21.0197 7.87305 21.1098C7.80801 21.1998 7.70115 21.3638 7.63147 21.4792C7.56178 21.5947 7.45493 21.7956 7.39221 21.9295C7.32949 22.0635 7.23193 22.3082 7.17618 22.4722C7.12043 22.6361 7.05074 22.9017 7.01822 23.061C6.9857 23.2204 6.94853 23.4513 6.93692 23.5737C6.92298 23.6983 6.91137 23.9454 6.91137 24.1232C6.91137 24.301 6.92298 24.5481 6.93692 24.6705C6.94853 24.7952 6.9857 25.0261 7.01822 25.1855C7.05074 25.3448 7.12043 25.5988 7.16921 25.7512C7.22031 25.9036 7.33878 26.183 7.43402 26.3747C7.52694 26.564 7.6756 26.8296 7.76387 26.9635C7.85214 27.0974 7.99152 27.2891 8.07514 27.3884C8.15644 27.49 8.3144 27.6632 8.42822 27.7763C8.53972 27.8872 8.73252 28.0604 8.85796 28.1573C8.98108 28.2566 9.18317 28.4021 9.30396 28.4806C9.42475 28.5568 9.65007 28.6838 9.80338 28.76C9.9567 28.8362 10.1867 28.9378 10.3144 28.984C10.4422 29.0325 10.6838 29.1041 10.8487 29.1457C11.0159 29.1872 11.2784 29.238 11.4364 29.2588C11.6013 29.2796 11.8894 29.2958 12.1263 29.2958C12.3632 29.2958 12.6513 29.2796 12.8185 29.2588C12.9742 29.238 13.239 29.1872 13.4039 29.1457C13.5711 29.1041 13.8104 29.0325 13.9382 28.984C14.0659 28.9355 14.2657 28.8524 14.3795 28.7993C14.4957 28.7439 14.6885 28.64 14.8092 28.5661C14.93 28.4945 15.1507 28.3444 15.2971 28.2359C15.4434 28.1273 15.6734 27.9287 15.8081 27.7948C15.9428 27.6609 16.1217 27.4646 16.2053 27.3561C16.2913 27.2475 16.4283 27.0559 16.5119 26.9289C16.5956 26.8019 16.7256 26.5733 16.8023 26.4209C16.879 26.2684 16.9812 26.0398 17.0276 25.9128C17.0741 25.7858 17.1391 25.5896 17.1693 25.4741C17.1995 25.3586 17.2483 25.137 17.2762 24.9776C17.3226 24.7282 17.3296 24.6082 17.3296 24.1117C17.3296 23.606 17.3226 23.4975 17.2739 23.2342C17.2437 23.0703 17.1902 22.8278 17.1531 22.6962C17.1159 22.5669 17.0439 22.3567 16.9928 22.2297C16.9417 22.1027 16.8557 21.9134 16.8046 21.8071C16.7512 21.7032 16.656 21.53 16.5909 21.4215C16.5236 21.313 16.3935 21.1213 16.2982 20.9943C16.203 20.8673 16.0241 20.6595 15.9033 20.5348C15.7802 20.4101 15.5874 20.2277 15.4713 20.133C15.3575 20.036 15.1368 19.8767 14.9835 19.7751C14.8302 19.6735 14.57 19.5257 14.4027 19.4449C14.2378 19.364 13.9591 19.2532 13.7872 19.1955C13.6153 19.1378 13.3435 19.0662 13.1832 19.0338C13.0229 19.0015 12.7837 18.9646 12.6489 18.9507C12.5142 18.9392 12.2587 18.9276 12.0798 18.9299C11.901 18.9322 11.6408 18.9461 11.4991 18.9623C11.3597 18.9807 11.1181 19.0223 10.9648 19.0546V19.0546ZM17.4202 28.2243C17.3412 28.3259 17.1902 28.5014 17.0834 28.6192C16.9765 28.7346 16.7953 28.9171 16.6792 29.021C16.5654 29.1249 16.3772 29.2865 16.2611 29.3766C16.1472 29.4689 15.973 29.5983 15.8778 29.6629L15.7036 29.7807C16.7117 29.7807 16.9533 29.7691 17.0392 29.7507C17.1089 29.7345 17.2158 29.6929 17.2785 29.656C17.3389 29.6214 17.4202 29.5498 17.4574 29.4967C17.4968 29.4435 17.5387 29.3466 17.5526 29.2842C17.5665 29.2173 17.5735 28.9355 17.5689 28.6053L17.5619 28.0442L17.4202 28.2243ZM6.31206 28.767C6.31902 29.305 6.32367 29.3604 6.36781 29.4551C6.39568 29.5128 6.44678 29.589 6.48395 29.626C6.52112 29.6629 6.60474 29.7183 6.66746 29.7484C6.7325 29.7761 6.84168 29.8107 6.91137 29.8246C6.98105 29.8384 7.29697 29.85 7.61521 29.8477H8.18896C7.9288 29.6698 7.75226 29.5405 7.63147 29.4435C7.51068 29.3466 7.30626 29.1734 7.18082 29.0556C7.05306 28.9401 6.86026 28.7462 6.75341 28.6238C6.64423 28.5037 6.50718 28.3398 6.44678 28.2589C6.36548 28.1481 6.33529 28.1204 6.32367 28.1458C6.31438 28.1666 6.30973 28.446 6.31206 28.767ZM9.66401 19.9206C9.70815 19.9206 9.87075 19.9945 10.0937 20.1145C10.2912 20.2231 11.8917 21.1028 13.6478 22.0727C16.3702 23.5737 16.8488 23.8438 16.8929 23.9131C16.9277 23.9639 16.9486 24.0286 16.9486 24.0863C16.9486 24.144 16.9277 24.2087 16.8929 24.2595C16.8488 24.3288 16.3819 24.5943 13.7523 26.0445C12.052 26.982 10.4654 27.8572 10.2215 27.9911C9.9474 28.1412 9.74531 28.2382 9.68724 28.2451C9.6222 28.2543 9.56877 28.2451 9.51302 28.2151C9.46889 28.192 9.40849 28.1389 9.32487 28.0119V20.1607L9.37829 20.0799C9.40849 20.036 9.46889 19.9806 9.51302 19.9598C9.55716 19.9367 9.62684 19.9182 9.66401 19.9206V19.9206Z" fill="#FBFBF1"/>
</svg>
