<svg width="135" height="48" viewBox="0 0 135 48" fill="none" xmlns="http://www.w3.org/2000/svg">
<path d="M30.7477 0.225567C30.9279 0.177074 31.2523 0.1078 31.4686 0.0696983C31.7209 0.0281334 32.0525 0.00388718 32.3877 0.000423434C32.777 -0.00304031 33.0149 0.0142784 33.3249 0.0696983C33.552 0.1078 33.9016 0.194393 34.0999 0.256741C34.2981 0.319088 34.8388 0.551159 35.2966 0.772839C35.758 0.994519 36.4068 1.2924 36.7384 1.43788C37.0736 1.58336 37.6756 1.82928 38.0829 1.98861C38.4902 2.14448 38.9588 2.31767 39.1282 2.36963C39.2976 2.42158 39.4562 2.48047 39.4814 2.50471C39.5067 2.52549 39.5175 2.56706 39.5103 2.59477C39.4994 2.62248 39.0813 2.95846 38.5803 3.33947C38.0793 3.72049 37.2142 4.36128 36.6591 4.75961C36.104 5.16141 35.4011 5.64633 35.1019 5.84376C34.7992 6.03773 34.4315 6.25248 34.2909 6.32176C34.1467 6.39103 33.9233 6.48802 33.7935 6.53305C33.6637 6.58154 33.4042 6.65428 33.2168 6.70277C33.0293 6.7478 32.6797 6.80322 32.4418 6.824C32.1174 6.85518 31.9011 6.85518 31.5767 6.82747C31.3388 6.80322 30.9748 6.74434 30.7657 6.69584C30.5567 6.64389 30.2322 6.53998 30.0448 6.46377C29.8574 6.38757 29.5654 6.27673 29.396 6.21092C29.2266 6.14857 28.9526 6.06544 28.7832 6.02734C28.6138 5.98578 28.3074 5.94421 28.0984 5.92689C27.8893 5.91304 27.5505 5.90957 27.3414 5.92343C27.1324 5.93728 26.7827 5.98578 26.5665 6.03427C26.3502 6.0793 26.0654 6.16935 25.9357 6.22824C25.8059 6.29059 25.6221 6.40143 25.5212 6.47416C25.4238 6.5469 25.2833 6.68199 25.2112 6.77551C25.1391 6.86557 25.0526 6.99719 25.0165 7.063C24.9841 7.12881 24.9697 7.19116 24.9877 7.20501C25.0021 7.21541 25.1355 7.31585 25.2833 7.43016C25.431 7.541 25.6581 7.75229 25.7843 7.8943C25.914 8.03631 26.1051 8.27878 26.2096 8.43118C26.3105 8.58359 26.4763 8.86415 26.5773 9.05466C26.6746 9.24516 26.8152 9.5569 26.8873 9.7474C26.9594 9.93791 27.0891 10.2704 27.172 10.4852C27.2549 10.6965 27.3342 10.8731 27.3522 10.8731C27.3667 10.8731 27.3631 10.8073 27.345 10.7276C27.3234 10.6445 27.2802 10.4367 27.2477 10.267C27.2153 10.0972 27.1324 9.79936 27.0639 9.60885C26.9918 9.41835 26.8584 9.11007 26.7611 8.9265C26.6638 8.73945 26.5232 8.49699 26.4511 8.38962C26.379 8.27878 26.224 8.06749 26.1087 7.92201C25.9933 7.77307 25.9068 7.63106 25.9177 7.61027C25.9249 7.58603 25.9537 7.55485 25.9789 7.541C26.0042 7.53061 26.2132 7.54793 26.4403 7.58603C26.6674 7.62413 26.999 7.6934 27.1792 7.7419C27.3595 7.79039 27.6334 7.89084 27.792 7.96358C27.9506 8.03978 28.1921 8.18179 28.3327 8.28224C28.4732 8.38269 28.7148 8.59051 28.8733 8.74638C29.0319 8.89879 29.2554 9.14818 29.3672 9.30058C29.4789 9.44952 29.6519 9.72316 29.7528 9.90327C29.8538 10.0834 29.9835 10.364 30.0448 10.5267C30.1097 10.6895 30.1962 10.9701 30.2431 11.1502C30.2899 11.3303 30.3548 11.6421 30.3836 11.843C30.4161 12.0439 30.4593 12.5323 30.4846 12.9341C30.517 13.4986 30.517 13.7896 30.4846 14.233C30.4593 14.5482 30.4017 14.9915 30.3512 15.2201C30.3043 15.4487 30.225 15.7639 30.1746 15.9233C30.1133 16.1068 30.0592 16.2142 30.0196 16.2315C29.9835 16.2419 29.8646 16.2246 29.7565 16.19C29.6483 16.1553 29.396 16.048 29.1978 15.951C28.9995 15.8505 28.6571 15.6566 28.4408 15.5145C28.2245 15.376 27.8821 15.1439 27.6839 14.9984C27.4856 14.853 27.136 14.5863 26.9089 14.4027C26.6818 14.2226 26.3322 13.9074 26.1339 13.7099C25.9357 13.509 25.6834 13.2319 25.568 13.0899C25.4563 12.9479 25.2869 12.6985 25.1895 12.5357C25.0958 12.3729 24.9697 12.1097 24.912 11.9469C24.8579 11.7841 24.7966 11.5278 24.7786 11.3754C24.7642 11.223 24.7246 10.9112 24.6921 10.6826C24.6633 10.454 24.6236 9.93098 24.6056 9.52226C24.584 9.03387 24.5515 8.71867 24.5155 8.60437C24.4867 8.51085 24.411 8.36191 24.3533 8.27531C24.2956 8.18872 24.1983 8.09173 24.137 8.06056C24.0361 8.00514 24.0145 8.00168 23.8991 8.05017C23.8306 8.07788 23.6901 8.17486 23.5891 8.26838C23.4846 8.35844 23.3224 8.54895 23.2215 8.69096C23.1206 8.83298 22.962 9.10661 22.8682 9.29712C22.7745 9.48762 22.6231 9.85478 22.5294 10.1111C22.4393 10.3674 22.2843 10.8904 22.187 11.2715C22.0861 11.6525 21.9599 12.2378 21.9022 12.5704C21.841 12.9029 21.7689 13.4017 21.74 13.6788C21.7112 13.9559 21.6751 14.3923 21.6607 14.6486C21.6499 14.9188 21.6571 15.3344 21.6824 15.6358C21.704 15.9233 21.7544 16.2973 21.7905 16.4671C21.8265 16.6368 21.9058 16.9104 21.9671 17.0732C22.0284 17.236 22.1581 17.4923 22.2555 17.6447C22.3528 17.7971 22.5114 18.005 22.6051 18.1089C22.7024 18.2128 22.9331 18.4102 23.1169 18.5522C23.2972 18.6908 23.5207 18.8952 23.6108 19.0025C23.7009 19.1134 23.8198 19.29 23.8775 19.3939C23.9388 19.4978 24.0181 19.7091 24.0613 19.8615C24.1046 20.0243 24.1334 20.2495 24.1334 20.4054C24.1334 20.5543 24.1154 20.7067 24.0974 20.7448C24.0613 20.8141 24.0253 20.8141 18.4743 20.8141C15.4033 20.8141 12.8873 20.8106 12.8873 20.8037C12.8873 20.8002 12.9306 20.6478 12.9811 20.4677C13.0315 20.2876 13.1325 20.0139 13.2081 19.8615C13.2802 19.7091 13.4352 19.4459 13.5506 19.2727C13.6659 19.0995 13.8858 18.8432 14.0372 18.6977C14.203 18.5384 14.4373 18.3652 14.6355 18.2544C14.8122 18.1505 15.0717 17.9946 15.2123 17.9045C15.3528 17.8145 15.5511 17.7002 15.6556 17.6482C15.8286 17.5651 15.8467 17.5443 15.8971 17.378C15.9296 17.2776 15.9944 17.0074 16.0413 16.7788C16.0882 16.5502 16.1566 16.1761 16.1927 15.9475C16.2395 15.6288 16.254 15.3171 16.254 14.5966C16.254 13.8104 16.2395 13.5818 16.1747 13.1696C16.1314 12.8959 16.0809 12.6396 16.0629 12.5981C16.0413 12.5323 15.9836 12.508 15.7854 12.4699C15.6232 12.4387 15.4249 12.4283 15.2123 12.4422C15.0356 12.4526 14.7581 12.4872 14.5995 12.5184C14.4409 12.5496 14.1417 12.6292 13.9327 12.6916C13.7236 12.7539 13.2154 12.9237 12.7972 13.0657C12.3791 13.2077 11.8925 13.3636 11.7159 13.4155C11.5393 13.464 11.2545 13.5298 11.0851 13.5575C10.9157 13.5887 10.5769 13.6337 10.3281 13.6614C10.0794 13.6891 9.58562 13.7134 9.22877 13.7134C8.87192 13.7134 8.36008 13.6891 8.09335 13.6614C7.82662 13.6303 7.45175 13.5852 7.26431 13.5575C7.07688 13.5298 6.59027 13.4398 6.18296 13.3636C5.77565 13.2839 5.28183 13.173 5.08358 13.1176C4.88534 13.0622 4.57535 12.9583 4.39873 12.8925C4.22211 12.8267 3.86526 12.6708 3.60574 12.5496C3.34621 12.4283 2.91367 12.1997 2.63973 12.0439C2.36939 11.8845 1.95487 11.6282 1.72058 11.4723C1.48989 11.3165 1.08258 11.0255 0.823054 10.8246C0.559925 10.6237 0.260751 10.3847 0.163429 10.2947C0.0516889 10.1942 -0.00958773 10.1076 0.0012258 10.0765C0.00843482 10.0488 0.242728 9.94137 0.513066 9.83746C0.787009 9.73355 1.24478 9.53612 1.53314 9.40103C1.8215 9.26248 2.36578 8.97499 2.74065 8.76024C3.11913 8.54548 3.63457 8.27185 3.8941 8.15062C4.15362 8.03285 4.51768 7.87698 4.70511 7.80771C4.89255 7.73497 5.28183 7.59988 5.57019 7.50636C5.85855 7.41284 6.38481 7.25351 6.74166 7.15306C7.09851 7.04915 7.55267 6.93831 7.75092 6.90367C8.01045 6.85864 8.28799 6.84132 8.74216 6.84132C9.24319 6.84479 9.44504 6.85864 9.7334 6.91752C9.93165 6.95909 10.2416 7.03875 10.4183 7.1011C10.5949 7.15999 10.9049 7.28814 11.1031 7.38513C11.3014 7.48558 11.5933 7.6553 11.7519 7.76268C11.9105 7.87352 12.1592 8.06749 12.307 8.19565C12.4548 8.32727 12.6963 8.5628 12.8441 8.7256C12.9919 8.8884 13.2081 9.1551 13.3235 9.32483C13.4424 9.49109 13.5362 9.66427 13.5362 9.71277C13.5362 9.76126 13.5145 9.80629 13.4929 9.81322C13.4677 9.82014 13.219 9.78204 12.9414 9.72662C12.6639 9.6712 12.2241 9.59846 11.9682 9.56729C11.6222 9.52226 11.2581 9.50494 10.5624 9.50494C9.96769 9.50494 9.50632 9.52226 9.30086 9.54997C9.12424 9.57768 8.80344 9.6331 8.59077 9.68159C8.3745 9.72662 8.20149 9.77511 8.20149 9.79243C8.20149 9.80629 8.5295 9.80975 8.9296 9.80629C9.3333 9.79936 10.0182 9.80975 10.4543 9.83053C10.8904 9.85132 11.4744 9.89288 11.7519 9.92059C12.0295 9.9483 12.5089 10.0106 12.8153 10.0626C13.1216 10.1111 13.6191 10.2115 13.9146 10.2843C14.2138 10.357 14.6175 10.4748 14.8158 10.5441C15.014 10.6168 15.3024 10.7346 15.4574 10.8073C15.6088 10.8835 15.7421 10.9424 15.7529 10.9424C15.7637 10.9424 15.7169 10.745 15.6484 10.5025C15.5799 10.2566 15.4718 9.91713 15.4105 9.7474C15.3456 9.57768 15.2014 9.2417 15.0897 9.0027C14.978 8.7637 14.7905 8.41386 14.6716 8.22336C14.5562 8.03285 14.3436 7.72804 14.1994 7.54793C14.0588 7.36781 13.7957 7.08032 13.6227 6.91406C13.446 6.74434 13.1252 6.47763 12.9054 6.3183C12.6855 6.15896 12.3034 5.89572 12.0511 5.73292C11.7952 5.57013 11.4708 5.37962 11.3302 5.31035C11.186 5.24107 10.8904 5.11291 10.6706 5.02632C10.4507 4.94319 10.0398 4.79078 9.75142 4.69034C9.46306 4.58989 9.16389 4.47905 9.08459 4.44095C9.00529 4.40284 8.89716 4.32664 8.84669 4.27122C8.79623 4.2158 8.74216 4.12574 8.72774 4.06686C8.71333 4.00798 8.71693 3.89714 8.73856 3.81747C8.76018 3.73434 8.81786 3.62697 8.86111 3.57501C8.90797 3.51959 9.03413 3.43992 9.14226 3.39489C9.2504 3.35333 9.45946 3.30137 9.60724 3.28752C9.76224 3.2702 10.0326 3.2702 10.238 3.29098C10.4363 3.3083 10.7607 3.36026 10.9589 3.40529C11.1572 3.45031 11.4672 3.54384 11.6438 3.60965C11.8204 3.67546 12.1448 3.81401 12.3647 3.91792C12.5846 4.0253 12.909 4.19156 13.0856 4.292C13.2622 4.39245 13.5974 4.59681 13.8245 4.74576C14.0516 4.89123 14.4445 5.1718 15.1582 5.71214L15.4754 5.51471C15.6484 5.40733 15.9512 5.24453 16.1494 5.15448C16.3477 5.06442 16.7117 4.92587 16.9604 4.8462C17.2092 4.76654 17.6741 4.65223 17.9949 4.59335C18.3193 4.531 18.5825 4.47212 18.5825 4.45826C18.5825 4.44095 18.4563 4.43748 18.3049 4.45134C18.1499 4.46173 17.8868 4.48597 17.7174 4.50329C17.548 4.52408 17.2632 4.5691 17.0866 4.61067C16.91 4.64877 16.6396 4.72844 16.4919 4.78386C16.3441 4.83928 16.1206 4.94319 15.9944 5.01246C15.7926 5.12677 15.7601 5.1337 15.7097 5.08867C15.6628 5.04364 15.6628 5.01593 15.7169 4.8462C15.7529 4.74229 15.8286 4.56218 15.8899 4.44787C15.9476 4.33357 16.0557 4.15345 16.1314 4.04954C16.2035 3.94563 16.3513 3.76898 16.4594 3.65468C16.5676 3.54384 16.7586 3.37065 16.8884 3.27366C17.0145 3.17668 17.2524 3.02081 17.411 2.93075C17.5696 2.8407 17.8616 2.70561 18.0598 2.62941C18.2581 2.55667 18.5464 2.47354 18.7014 2.44236C18.8528 2.41119 19.2061 2.37309 19.4836 2.35231C19.826 2.32806 20.1504 2.32806 20.4857 2.35231C20.756 2.37309 21.1489 2.42505 21.3579 2.47007C21.567 2.5151 21.9383 2.63287 22.187 2.73332C22.4357 2.83377 22.8502 2.98271 23.1061 3.06237C23.3621 3.14204 23.8487 3.27366 24.1875 3.35333L24.3588 3.3936C24.6295 3.45724 24.8606 3.51157 24.9084 3.52305C24.9877 3.54384 25.0201 3.57155 25.0273 3.63389C25.0345 3.6997 24.9661 3.80362 24.7678 4.03222C24.6236 4.20541 24.31 4.52408 24.0757 4.74229C23.8378 4.96051 23.5098 5.248 23.3404 5.37616C23.171 5.50778 22.8538 5.72946 22.6375 5.86801C22.4213 6.01002 22.0212 6.2317 21.7544 6.36679C21.4877 6.49841 21.1309 6.64735 20.9614 6.69584C20.792 6.74434 20.4604 6.824 20.2225 6.8725C19.9846 6.92099 19.5701 6.97641 19.3034 7.00065C18.9285 7.03183 18.7339 7.03183 18.4563 7.00065C18.2581 6.97987 17.9481 6.91406 17.7715 6.85864C17.5948 6.80322 17.3245 6.73395 17.1767 6.70277C17.0289 6.67506 16.7766 6.64042 16.618 6.62657C16.4594 6.61271 16.254 6.61271 15.9872 6.64735L16.153 6.93484C16.2467 7.09071 16.409 7.40591 16.5207 7.63452C16.6288 7.86313 16.791 8.21989 16.8775 8.43118C16.9677 8.64247 17.1407 9.09968 17.2668 9.45299C17.3894 9.80629 17.5588 10.3189 17.6381 10.596C17.721 10.8731 17.8544 11.3719 17.9337 11.7044C18.013 12.0369 18.1067 12.5149 18.1463 12.7609C18.186 13.0068 18.24 13.4294 18.2617 13.6961C18.2869 13.987 18.2941 14.4512 18.2833 14.8564C18.2689 15.2409 18.2292 15.7258 18.1896 15.9821C18.1535 16.2281 18.0851 16.5744 18.0454 16.7442C18.0021 16.9139 17.9265 17.1806 17.876 17.333C17.8255 17.4854 17.7895 17.6136 17.7967 17.617C17.8039 17.6205 17.9553 17.6932 18.1319 17.7798C18.3914 17.908 18.4924 17.9392 18.6365 17.9392C18.7483 17.9392 18.8528 17.9149 18.9105 17.8768C18.9646 17.8456 19.0691 17.7764 19.1448 17.7209C19.2349 17.6621 19.3755 17.6101 19.5269 17.5824C19.7143 17.5512 19.7684 17.5304 19.7539 17.4889C19.7467 17.4612 19.7035 17.1945 19.6566 16.9C19.5881 16.4636 19.5737 16.2281 19.5773 15.6358C19.5809 15.1647 19.6026 14.7491 19.6422 14.4581C19.6782 14.2122 19.7539 13.7827 19.8116 13.5056C19.8693 13.2285 19.9666 12.8232 20.0279 12.605C20.0892 12.3868 20.2261 11.9434 20.3379 11.6178C20.446 11.2922 20.6406 10.7727 20.7704 10.4575C20.9002 10.1423 21.1164 9.66774 21.2534 9.40103C21.3868 9.13432 21.6103 8.73599 21.7436 8.51777C21.8806 8.29956 22.0752 8.00168 22.1762 7.85966C22.2771 7.71765 22.4789 7.45094 22.6231 7.27083C22.7709 7.09071 23.0016 6.82747 23.1422 6.68545C23.2791 6.54344 23.5315 6.31137 23.7009 6.16935C23.8703 6.02734 24.2596 5.75024 24.566 5.55627C24.8723 5.35884 25.3445 5.08174 25.6113 4.9328C25.878 4.78732 26.4151 4.51715 26.8008 4.33011C27.2081 4.13614 27.6911 3.93178 27.9542 3.84865C28.2029 3.76898 28.6066 3.65814 28.8553 3.60272C29.104 3.54384 29.5005 3.46763 29.7384 3.42953C29.9763 3.38797 30.3656 3.33601 30.6035 3.30484C30.8414 3.27713 31.2631 3.23903 31.5407 3.21824C31.8182 3.20092 32.1498 3.18361 32.2796 3.18361C32.4094 3.18361 32.4995 3.17321 32.4815 3.15936C32.467 3.1455 32.1571 3.09008 31.7966 3.03466C31.4145 2.97924 30.9027 2.93075 30.5675 2.9169C30.2142 2.90651 29.8358 2.91343 29.5942 2.93768C29.378 2.96193 28.9995 3.01735 28.758 3.06237C28.5129 3.11087 28.0984 3.21824 27.8389 3.30137C27.4748 3.41568 27.3486 3.44339 27.3126 3.41221C27.2874 3.39143 27.2657 3.33601 27.2693 3.28752C27.2693 3.23903 27.3018 3.08316 27.345 2.94114C27.3847 2.79913 27.4748 2.58091 27.5397 2.45622C27.6082 2.33152 27.774 2.09945 27.9109 1.93666C28.0479 1.77386 28.2858 1.53486 28.4444 1.40324C28.5994 1.27162 28.8589 1.08111 29.0175 0.984127C29.1761 0.883679 29.4393 0.738201 29.6051 0.658535C29.7673 0.582333 30.0196 0.471493 30.1602 0.416073C30.3043 0.364117 30.5675 0.277523 30.7477 0.225567Z" fill="#315720"/>
<path fill-rule="evenodd" clip-rule="evenodd" d="M127.181 0C127.231 0 127.339 0.0810674 127.405 0.186455C127.471 0.283736 127.579 0.551258 127.646 0.77014C127.712 0.997129 127.82 1.22412 127.878 1.28086C127.953 1.35383 128.227 1.37815 128.858 1.35383C129.588 1.32951 129.796 1.29708 130.144 1.11873C130.377 1.00524 130.584 0.859314 130.626 0.778247C130.659 0.705286 130.783 0.599899 130.916 0.535045C131.115 0.429657 131.165 0.429657 131.414 0.575578C131.555 0.656646 131.73 0.818781 131.788 0.932275C131.871 1.10252 131.862 1.17548 131.763 1.34572C131.696 1.46732 131.398 1.74295 131.099 1.96994C130.8 2.19693 130.352 2.44824 130.103 2.53741C129.796 2.6428 129.414 2.69954 128.941 2.69954C128.451 2.70765 128.094 2.66712 127.779 2.55362C127.463 2.44824 127.198 2.27799 126.899 1.99426C126.6 1.69431 126.434 1.45921 126.334 1.13494C126.226 0.826887 126.21 0.640432 126.26 0.526938C126.301 0.437764 126.509 0.283736 126.708 0.186455C126.907 0.0810674 127.123 0 127.181 0ZM56.2291 2.91843C56.3453 2.91843 56.5196 2.97517 56.6192 3.04003C56.7271 3.10488 56.8516 3.29944 56.9014 3.46968C56.9762 3.7291 56.9679 3.79395 56.835 3.91556C56.752 3.99662 56.4864 4.12633 56.2457 4.19929C55.8971 4.31279 55.756 4.41007 55.5485 4.70191C55.3991 4.90458 55.1169 5.4153 54.9094 5.83685C54.7018 6.2584 54.1457 7.7014 53.6726 9.03901C53.1248 10.5874 52.718 11.9088 52.5437 12.687C52.386 13.3599 52.1121 14.357 51.9295 14.9164C51.7469 15.4758 51.4647 16.5459 51.307 17.3079C51.141 18.0699 50.8754 19.4075 50.7177 20.2912C50.5516 21.1667 50.4188 21.9612 50.4188 22.0503C50.4188 22.1719 50.5516 22.2692 50.9335 22.4476C51.224 22.5773 51.5062 22.7394 51.556 22.8124C51.639 22.9096 51.639 23.0312 51.5809 23.2907C51.5311 23.4771 51.4232 23.7041 51.3236 23.7933C51.1576 23.9473 51.1244 23.9554 50.1034 23.8338C49.5224 23.769 48.7007 23.7284 48.2773 23.7365C47.6548 23.7527 47.4722 23.7852 47.2813 23.9149C47.1568 24.0122 46.9825 24.0851 46.8912 24.0851C46.7999 24.0851 46.6671 24.0203 46.6007 23.9473C46.5343 23.8662 46.4595 23.6555 46.4512 23.4771C46.4346 23.2907 46.4595 23.0475 46.5094 22.9259C46.5592 22.7962 46.7252 22.6259 46.8663 22.5448C47.0157 22.4557 47.3643 22.3584 48.1362 22.2935L48.3271 21.7017C48.435 21.3856 48.626 20.5506 48.7671 19.8615C48.8999 19.1724 49.0825 18.2807 49.3149 17.1458L48.4931 15.3217C48.0449 14.3165 47.5054 12.987 47.3062 12.3628C47.107 11.7386 46.6754 10.3361 46.3516 9.24168C46.0196 8.14727 45.5714 6.70427 45.339 6.03952C45.1149 5.37477 44.8908 4.77487 44.8327 4.71812C44.7746 4.65327 44.5505 4.61273 44.2765 4.62084C43.8947 4.62084 43.7536 4.58031 43.405 4.35332C43.1394 4.18308 42.99 4.03716 42.99 3.93177C42.99 3.81827 43.0813 3.74531 43.2805 3.68046C43.4382 3.62371 43.986 3.54264 44.4841 3.494C44.9821 3.44536 45.9283 3.40483 46.5841 3.40483C47.6548 3.40483 47.7793 3.42104 47.9287 3.56697C48.02 3.65614 48.1113 3.81827 48.1362 3.93177C48.1694 4.07769 48.1196 4.19118 47.9702 4.33711C47.854 4.4506 47.7378 4.67759 47.7046 4.84783C47.6797 5.00996 47.6963 5.47205 47.7544 5.87739C47.8125 6.28272 47.9453 6.9718 48.0615 7.41767C48.1777 7.86354 48.4682 8.81203 48.7173 9.52542C48.958 10.2388 49.4311 11.4467 49.7714 12.2169C50.1034 12.9789 50.3939 13.595 50.4188 13.5788C50.4437 13.5707 50.4852 13.3761 50.5267 13.1653C50.5599 12.9465 50.6762 12.4195 50.7841 11.998C50.892 11.5764 51.0331 11.0981 51.1078 10.9441C51.1825 10.7901 51.3817 10.2064 51.5477 9.64702C51.7137 9.08765 51.9129 8.50397 51.9959 8.34994C52.0789 8.19591 52.2781 7.68519 52.4524 7.215C52.6184 6.74481 52.8094 6.12059 52.8758 5.81253C52.9422 5.51258 52.992 5.12346 52.992 4.94511C52.992 4.65327 52.9671 4.62084 52.7845 4.62084C52.6682 4.62084 52.4773 4.53977 52.3611 4.43439C52.2034 4.30468 52.137 4.15065 52.0955 3.8507C52.054 3.494 52.0706 3.42915 52.2366 3.33998C52.386 3.2508 52.5354 3.2508 53.0169 3.32376C53.3489 3.38051 53.8137 3.39672 54.071 3.3643C54.32 3.33998 54.8596 3.22648 55.2746 3.12109C55.6896 3.01571 56.1129 2.92653 56.2291 2.91843ZM61.3754 3.33187C61.807 3.32376 61.973 3.35619 62.1971 3.50211C62.3548 3.6075 62.5623 3.81827 62.6536 3.9723C62.7781 4.18308 62.8777 4.70191 63.052 6.03952C63.1849 7.02044 63.3841 8.4229 63.5003 9.16061C63.6165 9.89833 64.1394 13.0519 64.6623 16.1729C65.1852 19.294 65.6335 21.9368 65.6501 22.0503C65.6833 22.2044 65.7663 22.2773 66.0402 22.3503C66.2394 22.407 66.4967 22.5367 66.6295 22.634C66.8038 22.7799 66.8868 22.9502 66.9781 23.3879C67.0445 23.7041 67.1275 24.4499 67.1607 25.0498C67.2188 26.1361 67.2105 26.1442 67.0113 26.3388C66.837 26.509 66.7623 26.5253 66.3971 26.4766C66.1647 26.4442 65.9157 26.355 65.8327 26.282C65.7165 26.1767 65.6667 25.9254 65.6003 25.1714C65.5449 24.5229 65.4702 24.1257 65.3762 23.9797C65.3015 23.8581 65.1603 23.7203 65.069 23.6798C64.9777 23.6311 63.0935 23.5906 56.4615 23.5501L56.5113 23.8338C56.5445 23.9878 56.586 24.5715 56.6109 25.1309C56.6441 25.7146 56.6275 26.2334 56.5777 26.3469C56.5279 26.4766 56.4117 26.5739 56.2374 26.6063C56.0797 26.6469 55.8971 26.6306 55.756 26.5658C55.6232 26.509 55.4572 26.3307 55.3659 26.1442C55.2607 25.9281 55.186 25.5362 55.1418 24.9688C55.1086 24.4986 55.0422 23.8987 54.9841 23.6311C54.9343 23.3636 54.9011 22.9826 54.9426 22.4151L56.4781 22.2935L56.6109 21.9855C56.6856 21.8233 56.8018 21.1586 56.8682 20.51C56.9347 19.8615 57.1173 18.6941 57.275 17.9159C57.4327 17.1376 57.8145 15.5487 58.105 14.3895C58.4038 13.2302 58.7773 11.6656 58.9267 10.9036C59.0845 10.1415 59.3086 8.88499 59.4165 8.10674C59.5327 7.32849 59.6655 6.26651 59.7153 5.75578C59.7568 5.24506 59.7983 4.63705 59.7983 4.41817C59.7983 4.06148 59.8315 3.98041 60.0639 3.76153C60.2133 3.62371 60.4457 3.46968 60.5868 3.42104C60.7279 3.3724 61.0765 3.33187 61.3754 3.33187ZM60.4623 10.782C60.288 11.6494 59.8398 13.6031 59.4746 15.1191C59.1094 16.635 58.7026 18.4428 58.5615 19.1319C58.4287 19.821 58.2544 20.81 58.188 21.3207C58.1133 21.8314 58.0635 22.2611 58.0801 22.2611C58.0884 22.2692 59.1426 22.3016 60.4208 22.3341L62.7449 22.3989C62.6453 20.964 62.554 20.0236 62.4876 19.3751C62.4212 18.7266 62.2552 17.3403 62.1224 16.2945C61.9896 15.2488 61.8236 13.8382 61.7572 13.1735C61.6908 12.5006 61.6078 11.5035 61.5829 10.9441C61.5497 10.3847 61.4916 9.71187 61.4418 9.44435C61.392 9.17683 61.2924 8.83635 61.2177 8.69042C61.143 8.5445 61.0433 8.41479 60.9852 8.39858C60.9188 8.37426 60.869 8.51208 60.8358 8.7796C60.8109 9.01469 60.6449 9.91454 60.4623 10.782ZM88.8082 3.3643C89.1734 3.38862 89.8955 3.40483 90.4102 3.40483C91.2568 3.40483 91.3564 3.42104 91.539 3.58318C91.6386 3.68857 91.7714 3.91556 91.8212 4.0939C91.9042 4.36143 91.8959 4.46681 91.7714 4.70191C91.6801 4.88026 91.5639 4.99375 91.4477 5.00186C91.3232 5.01807 91.2153 5.11535 91.1406 5.28559C91.0742 5.43151 90.9829 5.82875 90.9414 6.16112C90.8916 6.4935 90.8252 7.44199 90.8003 8.26887C90.7588 9.41192 90.7754 10.0929 90.8833 11.1062C90.9995 12.2087 91.0078 12.606 90.9331 13.3356C90.8833 13.822 90.8418 14.9002 90.8418 15.7271C90.8418 16.6026 90.9082 17.8997 90.9995 18.8482C91.0908 19.7399 91.1904 20.8181 91.2153 21.2397C91.2651 21.9612 91.2817 22.0179 91.4892 22.1476C91.6137 22.2206 91.8046 22.3746 92.1283 22.6989L91.9208 23.1123C91.8046 23.3474 91.6303 23.5582 91.5307 23.5987C91.4228 23.6393 90.5015 23.6717 87.6046 23.6717L87.4801 23.469C87.3639 23.2744 87.3722 23.2501 87.6046 22.9826C87.7457 22.8286 87.8536 22.6583 87.8536 22.6178C87.8536 22.5773 88.0196 22.4476 88.2271 22.3341C88.6007 22.1314 88.6007 22.1314 88.6588 21.5801C88.7003 21.2802 88.7252 20.4209 88.7169 19.6588C88.7169 18.8968 88.692 17.5349 88.6422 14.9488L88.2687 15.2245C88.0611 15.3704 87.6544 15.573 87.3556 15.6622C87.0568 15.7514 86.5007 15.8406 86.1105 15.8649C85.571 15.8973 85.2473 15.873 84.741 15.7514C84.3758 15.6622 83.9109 15.492 83.7034 15.3785C83.4959 15.265 83.139 14.9813 82.9066 14.7381C82.6742 14.503 82.392 14.1219 82.2758 13.9031C82.1596 13.6761 82.0351 13.4085 82.0019 13.2951C81.9687 13.1816 81.8358 12.8573 81.7113 12.5654C81.5785 12.2736 81.4125 11.7467 81.3295 11.39C81.1967 10.8387 81.1801 10.3442 81.1718 8.10674C81.1718 5.97467 81.1469 5.4072 81.0473 5.12346C80.9726 4.92079 80.873 4.78298 80.7983 4.78298C80.7319 4.78298 80.541 4.70191 80.3833 4.59652C80.2256 4.49113 80.043 4.28847 79.9849 4.15065C79.9019 3.93988 79.9019 3.85881 79.9849 3.71289C80.0928 3.54264 80.1426 3.54265 82.0849 3.51832C83.8362 3.50211 84.1434 3.51832 84.6165 3.65614C84.9153 3.73721 85.239 3.89123 85.3469 3.98852C85.4742 4.11282 85.5434 4.28306 85.5544 4.49924C85.571 4.79919 85.5544 4.82351 85.2805 4.92079C85.1228 4.96943 84.824 5.01807 84.6165 5.01807C84.2928 5.01807 84.2264 5.0505 84.1268 5.24506C84.0603 5.38287 83.9856 5.95845 83.9524 6.72859C83.9109 7.41767 83.8113 8.27698 83.7283 8.63368C83.637 9.03901 83.5789 9.58217 83.5872 10.0929C83.5872 10.7252 83.6453 11.1468 83.8611 11.998C84.0105 12.5979 84.2347 13.2707 84.3509 13.4896C84.4754 13.7085 84.6829 13.9841 84.824 14.1057C85.0398 14.2922 85.1726 14.3327 85.82 14.3814C86.2849 14.4138 86.7414 14.4057 87.0236 14.3489C87.2726 14.3003 87.7374 14.1219 88.609 13.6599L88.5592 10.863C88.5343 9.32275 88.4928 7.64465 88.4762 7.13393C88.4513 6.62321 88.3849 5.96656 88.3351 5.67472C88.277 5.37477 88.1773 5.08293 88.086 5.00186C87.9864 4.90998 87.8038 4.86404 87.5382 4.86404C87.3224 4.86404 87.007 4.82351 86.5256 4.70191V3.7291L86.9572 3.59939C87.1979 3.52643 87.5631 3.43726 87.7706 3.39672C87.9781 3.3643 88.443 3.34808 88.8082 3.3643ZM102.836 3.38051C103.516 3.40483 104.147 3.45347 104.222 3.494C104.305 3.53454 104.43 3.68857 104.504 3.82638C104.579 3.9723 104.645 4.2074 104.654 4.33711C104.654 4.46681 104.596 4.67759 104.513 4.79919C104.438 4.9289 104.297 5.02618 104.205 5.02618C104.098 5.02618 103.998 5.11535 103.923 5.28559C103.857 5.43151 103.757 5.84496 103.699 6.20166C103.616 6.68806 103.591 8.08242 103.591 11.7142C103.591 16.0676 103.608 16.781 103.765 18.4834C103.865 19.5291 103.965 20.7614 103.99 21.2153C104.023 21.6774 104.064 22.0503 104.098 22.0503C104.139 22.0503 104.322 22.1719 104.513 22.3341C104.861 22.6097 104.869 22.6259 104.869 23.1204C104.878 23.5339 104.853 23.6149 104.77 23.5258C104.687 23.4447 104.612 23.4528 104.413 23.5501C104.222 23.6393 103.832 23.6717 102.753 23.6717C101.508 23.6798 101.325 23.6636 101.192 23.5339C101.101 23.4447 101.06 23.3231 101.084 23.2258C101.109 23.1366 101.275 22.9178 101.45 22.7394C101.624 22.5611 101.881 22.326 102.296 22.0098L102.388 20.7938C102.454 20.0155 102.471 18.7671 102.437 17.3079C102.404 16.0595 102.363 14.2922 102.338 13.3761C102.305 12.4601 102.271 11.6332 102.247 11.5278C102.222 11.39 102.114 11.317 101.732 11.2197C101.342 11.1062 101.018 11.09 99.8062 11.1387C99.0094 11.163 98.171 11.2116 97.9552 11.244C97.5983 11.3008 97.5236 11.3494 97.3161 11.6737C97.1833 11.8764 97.0173 12.2574 96.9426 12.5249C96.843 12.9302 96.8181 13.6031 96.8181 16.4729C96.8181 18.8725 96.843 19.9993 96.9094 20.1209C96.9592 20.2263 97.0173 20.5587 97.0422 20.8749C97.0671 21.191 97.1169 21.5558 97.1584 21.6855C97.2082 21.8396 97.3161 21.9612 97.4821 22.026C97.6149 22.0828 97.8058 22.253 97.8971 22.3908C97.9884 22.5367 98.0631 22.707 98.0631 22.7556C98.0631 22.8124 97.9718 22.9502 97.8556 23.0637C97.6896 23.2339 97.5817 23.2663 97.175 23.2663C96.9094 23.2663 96.2785 23.3069 95.7805 23.3555C95.0833 23.4285 94.7098 23.4285 94.2034 23.3555C93.8382 23.2988 93.4896 23.2177 93.4315 23.161C93.3734 23.1042 93.2821 22.934 93.2406 22.7799C93.1908 22.6016 93.1991 22.3989 93.2489 22.2287C93.3319 21.9774 93.3485 21.9693 94.2449 21.9693L94.22 14.8515C94.2034 10.6523 94.1536 7.27985 94.0955 6.60699C94.0457 5.98277 93.971 5.38287 93.9295 5.26938C93.8797 5.13967 93.7635 5.0505 93.6141 5.01807C93.4813 4.98564 93.2655 4.87215 93.1244 4.76676C92.9833 4.65327 92.8505 4.46681 92.809 4.35332C92.7758 4.23172 92.7924 4.06148 92.8339 3.9723C92.9086 3.82638 92.9999 3.81017 93.6805 3.81017C94.1038 3.81017 94.9588 3.75342 95.573 3.68046C96.1872 3.61561 96.843 3.57507 97.0256 3.6075C97.2082 3.63182 97.5402 3.72099 97.7643 3.79395C97.9884 3.86691 98.2457 4.02094 98.3287 4.13444C98.4283 4.25604 98.4781 4.43439 98.4615 4.58031C98.4449 4.74244 98.3675 4.85594 98.2291 4.92079C98.1129 4.97754 97.8473 5.02618 97.6232 5.02618C97.2995 5.02618 97.2165 5.0586 97.1418 5.20453C97.0671 5.34234 97.0671 5.5288 97.1501 5.95845C97.2248 6.36379 97.2331 6.7367 97.1833 7.25553C97.1418 7.66087 97.1086 8.30941 97.1086 8.69853C97.1086 9.32275 97.1335 9.42814 97.2746 9.52542C97.3659 9.59027 97.7394 9.68755 98.1046 9.7443C98.4698 9.80105 99.2501 9.84158 99.8477 9.84158C100.445 9.83347 101.167 9.79294 101.466 9.73619C101.765 9.67945 102.081 9.61459 102.172 9.59027C102.33 9.54163 102.338 9.5011 102.271 8.31751C102.23 7.64465 102.164 6.81777 102.122 6.48539C102.081 6.15302 101.998 5.68282 101.948 5.45584C101.873 5.14778 101.79 5.00996 101.649 4.94511C101.549 4.90458 101.325 4.86404 101.151 4.86404C100.985 4.86404 100.703 4.82351 100.221 4.70191V3.7291L100.57 3.6075C100.769 3.54264 101.076 3.45347 101.259 3.41294C101.441 3.3643 102.147 3.35619 102.836 3.38051ZM133.232 3.38862C134.087 3.41294 134.328 3.44536 134.452 3.55075C134.535 3.62371 134.66 3.81017 134.718 3.94798C134.784 4.0939 134.834 4.29657 134.834 4.39385C134.842 4.49924 134.767 4.67759 134.668 4.79919C134.577 4.9289 134.435 5.02618 134.361 5.02618C134.278 5.02618 134.162 5.11535 134.112 5.22885C134.054 5.34234 133.954 5.67472 133.904 5.97467C133.821 6.38 133.796 7.9365 133.796 11.8358C133.796 16.3675 133.821 17.3484 133.946 18.5239C134.029 19.2859 134.12 20.3722 134.211 21.9855L135 22.5367L134.958 23.4609L134.626 23.5582C134.419 23.623 133.655 23.6636 130.85 23.6717L130.725 23.469C130.609 23.2744 130.617 23.2501 130.85 22.9826C130.991 22.8286 131.099 22.6583 131.099 22.6178C131.099 22.5773 131.265 22.4476 131.472 22.3341C131.846 22.1314 131.846 22.1314 131.912 21.5801C131.945 21.2802 131.97 19.8129 131.97 18.3212C131.962 16.8296 131.937 13.822 131.896 11.6332C131.854 9.44435 131.804 7.53116 131.771 7.37713C131.721 7.11772 131.655 7.26364 130.983 8.99848C130.576 10.0442 130.011 11.4467 129.729 12.1196C129.447 12.7843 129.057 13.8301 128.866 14.43C128.667 15.0299 128.144 16.4161 127.696 17.5106C127.247 18.605 126.691 20.0074 126.45 20.6317C126.21 21.2559 125.869 22.0909 125.695 22.4962C125.513 22.9015 125.247 23.3474 125.098 23.4933C124.907 23.6798 124.757 23.7527 124.566 23.7527C124.359 23.7527 124.234 23.6879 124.06 23.4852C123.927 23.3393 123.786 23.0475 123.728 22.7962C123.67 22.5529 123.628 21.7261 123.628 20.8505C123.628 20.0155 123.686 18.6212 123.761 17.7538C123.836 16.8863 123.902 15.7514 123.902 15.2407C123.902 14.7299 123.861 12.8086 123.811 10.9846C123.761 9.16061 123.686 7.16636 123.637 6.56646C123.595 5.96656 123.52 5.37477 123.471 5.24506C123.421 5.12346 123.313 5.02618 123.238 5.02618C123.155 5.02618 122.948 4.937 122.782 4.82351C122.607 4.71002 122.425 4.53167 122.383 4.41817C122.333 4.29657 122.325 4.14254 122.375 4.02905C122.441 3.85881 122.508 3.8507 123.637 3.79395C124.292 3.76153 125.073 3.69667 125.371 3.63993C125.836 3.55886 125.986 3.56697 126.442 3.69667C126.733 3.78585 127.056 3.93177 127.164 4.02905C127.272 4.13444 127.388 4.29657 127.413 4.39385C127.447 4.49924 127.447 4.64516 127.413 4.71812C127.388 4.79919 127.272 4.90458 127.156 4.94511C127.04 4.98564 126.783 5.02618 126.575 5.02618C126.367 5.02618 126.177 5.06671 126.143 5.12346C126.102 5.18021 126.077 7.65276 126.069 10.6198C126.06 13.5869 126.027 16.3837 125.986 16.8458C125.936 17.389 125.936 17.6727 125.994 17.6727C126.035 17.6808 126.309 17.0079 126.592 16.1973C126.874 15.3785 127.256 14.3651 127.447 13.9436C127.637 13.522 127.978 12.7195 128.194 12.1601C128.409 11.6007 129.181 9.67134 129.895 7.86354C130.617 6.05573 131.24 4.43439 131.281 4.25604C131.323 4.07769 131.439 3.83449 131.53 3.71289C131.622 3.59129 131.804 3.46158 131.937 3.42915C132.062 3.38862 132.651 3.3724 133.232 3.38862ZM74.739 3.40483C74.8552 3.40483 75.1125 3.4859 75.3117 3.59129C75.5192 3.68857 75.8264 3.93177 76.0007 4.13444C76.175 4.33711 76.4738 4.79108 76.6564 5.14778C76.839 5.50448 77.0133 5.97467 77.0548 6.20166C77.088 6.42054 77.2042 6.80966 77.3038 7.05286C77.4117 7.29607 77.5445 7.71762 77.6109 7.98514C77.669 8.25266 77.7769 8.96605 77.8517 9.56595C77.9181 10.1659 78.1505 12.6141 78.358 14.9975C78.5738 17.3808 78.773 20.0642 78.7979 20.9559C78.8477 22.4476 78.8643 22.6016 79.0303 22.861C79.1299 23.015 79.2212 23.1853 79.2212 23.2258C79.2212 23.2663 79.1797 23.3717 79.1216 23.4528C79.022 23.5906 78.8477 23.6068 77.3951 23.6555C76.507 23.6798 75.5109 23.7041 74.6145 23.7122V23.3798C74.6145 23.1204 74.6892 22.934 74.9465 22.5773C75.1291 22.3179 75.3698 22.0665 75.6769 21.9287L75.6271 19.3346C75.6022 17.8105 75.5275 16.2864 75.4445 15.646C75.3781 15.0461 75.3034 14.4948 75.2785 14.43C75.2536 14.3408 74.8718 14.2516 73.8509 14.0814C73.0789 13.9598 72.2987 13.8625 72.1078 13.8625C71.7758 13.8625 71.7426 13.8868 71.6181 14.1625C71.5434 14.3327 71.452 14.8515 71.4188 15.3217C71.3773 15.7919 71.286 16.4648 71.2196 16.8215C71.1532 17.1782 71.0536 17.9645 71.0038 18.5644C70.9623 19.1643 70.9208 20.1939 70.9208 20.8505C70.9208 22.026 70.9208 22.0503 71.1117 22.0828C71.2113 22.1071 71.4603 22.1395 71.6679 22.1638C71.8754 22.1881 72.0912 22.253 72.141 22.3097C72.2157 22.3827 72.224 22.5448 72.1825 22.8529C72.1244 23.2744 72.1078 23.3069 71.7924 23.4366C71.6098 23.5177 71.2777 23.6068 71.0453 23.6393C70.8212 23.6636 70.2734 23.6474 69.8418 23.5906C69.2524 23.5177 68.9619 23.5177 68.3477 23.6717L67.3434 22.8205L67.5343 22.6259C67.6422 22.5205 67.8912 22.326 68.0987 22.1963C68.3062 22.0746 68.5718 21.9693 68.7046 21.9693C68.8623 21.9693 68.9536 21.9125 69.0034 21.7828C69.0449 21.6855 69.1943 20.8019 69.3354 19.821C69.4683 18.8401 69.7754 16.5377 70.0078 14.7137C70.2402 12.8897 70.4809 11.0333 70.5473 10.5955C70.6137 10.1659 70.788 9.52542 70.9291 9.17683C71.0702 8.83635 71.3358 8.17159 71.5101 7.7014C71.6928 7.23121 72.0248 6.48539 72.2572 6.03952C72.4896 5.59365 72.888 4.92079 73.1453 4.53977C73.552 3.95609 73.6849 3.81827 74.075 3.62371C74.324 3.50211 74.6228 3.40483 74.739 3.40483ZM73.303 6.85019C73.1785 7.20689 72.9212 8.04189 72.722 8.71474C72.5145 9.3795 72.224 10.5063 72.0746 11.2035C71.8837 12.0547 71.8173 12.5087 71.8754 12.5573C71.9252 12.606 72.2738 12.6952 72.6639 12.76C73.054 12.8249 73.7928 12.9059 74.3157 12.9465L75.2536 13.0113C75.1789 9.31464 75.1374 8.81203 74.988 8.14727C74.8884 7.7014 74.6892 6.98801 74.5481 6.56646C74.3406 5.95845 74.2493 5.78821 74.1165 5.772C74.0169 5.75578 73.8592 5.84496 73.7264 5.97467C73.6101 6.09627 73.4192 6.4935 73.303 6.85019ZM109.335 3.43726C110.323 3.44536 110.373 3.45347 110.522 3.64803C110.613 3.76153 110.688 3.90745 110.688 3.9723C110.688 4.03716 110.597 4.22361 110.489 4.37764C110.373 4.55599 110.173 4.70191 109.958 4.78298C109.642 4.89647 109.609 4.9289 109.567 5.26938C109.543 5.47205 109.518 6.60699 109.518 9.97129L110.124 9.95508C110.696 9.93076 110.754 9.95508 111.593 10.3604C112.074 10.5955 112.722 10.9765 113.037 11.2116C113.361 11.4386 113.801 11.8521 114.025 12.1196C114.249 12.3871 114.539 12.8086 114.664 13.0519C114.788 13.2951 114.996 13.8058 115.112 14.1868C115.27 14.6651 115.361 15.2082 115.428 15.9703C115.477 16.5702 115.494 17.4457 115.469 17.9159C115.436 18.4915 115.353 19.0022 115.203 19.4967C115.079 19.902 114.822 20.5344 114.622 20.9154C114.415 21.2964 114.075 21.8233 113.859 22.0828C113.643 22.3503 113.228 22.7394 112.946 22.9583C112.655 23.1691 112.224 23.4042 111.991 23.4771C111.717 23.5582 111.111 23.623 110.389 23.6474C109.36 23.6879 109.111 23.6636 108.19 23.4771C107.617 23.3636 106.92 23.2663 106.637 23.2663C106.189 23.2663 106.081 23.2339 105.907 23.0637C105.733 22.8934 105.699 22.7799 105.699 21.9693H106.322C106.903 21.9693 106.945 21.9531 106.986 21.7828C107.011 21.6855 107.028 21.0451 107.028 20.3641C107.028 19.6913 106.986 18.5725 106.936 17.8916C106.87 16.9593 106.87 15.9297 106.961 13.6193C107.019 11.9493 107.069 10.028 107.069 9.36328C107.069 8.69042 107.028 7.40956 106.903 4.86404H106.696C106.579 4.86404 106.405 4.8073 106.305 4.74244C106.148 4.63705 106.115 4.54788 106.115 4.17497C106.115 3.81017 106.148 3.71289 106.281 3.64803C106.372 3.6075 106.662 3.56697 106.928 3.55886C107.185 3.55075 107.609 3.51832 107.858 3.4859C108.107 3.45347 108.779 3.42915 109.335 3.43726ZM109.543 17.162L109.518 21.9693C110.256 21.9693 110.696 21.9125 110.97 21.8477C111.41 21.7504 111.535 21.6612 112.041 21.1829C112.356 20.8749 112.697 20.4533 112.805 20.2263C112.913 19.9993 113.004 19.7075 113.004 19.5778C113.004 19.4481 113.062 19.1724 113.128 18.9698C113.186 18.7671 113.278 18.4347 113.328 18.2158C113.377 18.0051 113.419 17.5835 113.419 17.2674C113.419 16.9512 113.377 16.3432 113.336 15.9054C113.286 15.4758 113.153 14.8029 113.045 14.4057C112.929 14.0166 112.73 13.5058 112.597 13.2707C112.456 13.0437 112.149 12.687 111.908 12.4925C111.667 12.2979 111.244 12.0304 110.97 11.9088C110.696 11.7791 110.339 11.6737 110.165 11.6737C109.891 11.6737 109.85 11.7061 109.709 12.0142C109.567 12.3385 109.559 12.7114 109.543 17.162ZM116.847 3.38051L117.187 3.45347C117.378 3.494 117.793 3.51832 118.109 3.51832C118.424 3.51832 119.171 3.4859 119.769 3.45347C120.482 3.40483 120.964 3.41294 121.18 3.46968C121.401 3.52913 121.548 3.62641 121.62 3.76153C121.703 3.93177 121.694 4.02094 121.595 4.25604C121.528 4.41007 121.346 4.61273 121.205 4.70191C121.055 4.79108 120.864 4.86404 120.79 4.86404C120.673 4.86404 120.615 4.97754 120.549 5.32613C120.474 5.68282 120.474 6.10437 120.565 7.0934C120.657 8.22023 120.648 8.86067 120.524 11.8764C120.449 13.7896 120.35 16.2702 120.308 17.389C120.267 18.4996 120.233 19.9912 120.225 21.9693L120.806 22.2935C121.122 22.4719 121.404 22.6583 121.429 22.6989C121.454 22.7394 121.454 22.8448 121.429 22.9178C121.412 22.9988 121.213 23.1853 120.997 23.3312C120.748 23.5014 120.549 23.5825 120.474 23.5501C120.408 23.5177 119.711 23.4609 118.939 23.4285C118.167 23.3879 117.362 23.3231 117.154 23.2663C116.947 23.2177 116.731 23.1123 116.673 23.0394C116.615 22.9664 116.573 22.8367 116.573 22.7556C116.573 22.6827 116.656 22.5043 116.764 22.3746C116.872 22.2206 117.021 22.1314 117.137 22.1314C117.245 22.1314 117.445 22.026 117.577 21.8882C117.785 21.6774 117.81 21.6045 117.768 21.3369C117.735 21.1748 117.702 17.3971 117.652 4.86404H117.445C117.328 4.86404 117.146 4.8154 117.03 4.75866C116.83 4.66948 116.822 4.62895 116.83 4.02094L116.847 3.38051ZM43.1062 27.6602L45.0817 27.6683C46.8995 27.6845 47.0821 27.6926 47.3394 27.8466C47.5054 27.9439 47.6548 28.1061 47.7046 28.252C47.7461 28.3817 47.7627 28.5681 47.7378 28.6573C47.7129 28.7465 47.522 28.933 47.3145 29.0789C46.941 29.3383 46.9327 29.3545 46.9327 29.7923C46.9327 30.0355 47.0157 30.8137 47.107 31.5109C47.1983 32.2162 47.273 33.116 47.273 33.5214C47.273 33.9186 47.2564 34.5023 47.2481 34.8184C47.2232 35.3535 47.2315 35.3859 47.4141 35.4021C47.5137 35.4183 47.7876 35.3211 48.0283 35.1995C48.2607 35.0779 48.6509 34.7698 48.8999 34.5104C49.1738 34.2267 49.4643 33.7889 49.6718 33.3754C49.8461 33.0106 50.0536 32.4756 50.12 32.1838C50.1864 31.8919 50.3441 31.2028 50.4603 30.6435C50.5765 30.0841 50.6679 29.5815 50.6679 29.5247C50.6679 29.4599 50.5295 29.4275 50.2528 29.4275C50.0287 29.4275 49.8378 29.395 49.8461 29.3626C49.8461 29.3302 49.7465 29.1599 49.6303 28.9816C49.5058 28.8032 49.4228 28.5844 49.4394 28.5033C49.456 28.4141 49.5971 28.2763 49.7548 28.1952C49.9125 28.1142 50.4852 27.9764 51.0248 27.8872C51.8714 27.7413 52.0291 27.7413 52.2283 27.8385C52.3528 27.8953 52.5022 28.0007 52.5603 28.0574C52.6184 28.1223 52.6848 28.3168 52.718 28.4952C52.7679 28.7789 52.743 28.8438 52.5188 29.0789C52.3777 29.2248 52.1785 29.3464 52.0872 29.3464C51.9295 29.3464 51.9129 29.395 51.9129 29.8085C51.9129 30.0679 51.8465 30.6435 51.7552 31.0893C51.6639 31.5352 51.4896 32.2243 51.3734 32.6296C51.2572 33.035 50.8671 33.9429 50.4935 34.6968C50.0536 35.5562 49.8378 36.0831 49.871 36.1723C49.8959 36.2533 49.9955 36.3182 50.0868 36.3182C50.1781 36.3182 50.6014 36.5614 51.0248 36.8532C51.4481 37.1451 51.8797 37.4856 51.9876 37.5991C52.0872 37.7207 52.303 38.0692 52.4607 38.3854C52.6184 38.6935 52.8343 39.3177 52.9505 39.7636C53.0584 40.2094 53.2659 41.32 53.3987 42.2361C53.5979 43.517 53.6311 43.9791 53.573 44.2628C53.5315 44.4655 53.4983 44.8384 53.4983 45.0897C53.49 45.4545 53.5398 45.6247 53.6892 45.8598C53.8054 46.0301 54.0461 46.3057 54.2287 46.4678C54.4528 46.6705 54.569 46.8407 54.569 46.9786C54.569 47.092 54.5192 47.2947 54.3449 47.7082L53.0667 47.7649C52.3694 47.7973 51.4813 47.8298 51.1078 47.8298C50.4852 47.8298 50.4105 47.8135 50.2943 47.6433C50.2279 47.546 50.1698 47.3839 50.1698 47.2785C50.1698 47.1731 50.369 46.8894 50.6679 46.5732C50.9833 46.2327 51.1825 45.949 51.2157 45.7788C51.2406 45.6328 51.2406 45.3167 51.2157 45.0735C51.1908 44.8303 51.1327 43.5332 51.0912 42.1956C51.0414 40.2905 50.9916 39.6501 50.8754 39.2366C50.7924 38.9448 50.6513 38.5475 50.5433 38.3449C50.4437 38.1422 50.2528 37.8828 50.12 37.7693C49.9872 37.6558 49.6718 37.5018 49.4228 37.4126C49.0908 37.3072 48.8086 37.2748 48.3852 37.2991C48.02 37.3234 47.6963 37.3964 47.5137 37.5018C47.356 37.5828 47.1651 37.7855 47.0821 37.9395C47.0074 38.0936 46.9078 38.4989 46.858 38.8313C46.7999 39.2447 46.7999 39.9338 46.858 41.0201C46.9327 42.528 46.9327 42.6252 46.7584 43.2495C46.6588 43.6061 46.5509 44.0601 46.5094 44.2628C46.4762 44.4655 46.4429 44.96 46.4346 46.1273L46.7418 46.3057C46.9078 46.4111 47.1153 46.5975 47.1983 46.7354C47.2813 46.8651 47.3477 47.0677 47.356 47.1812C47.356 47.2947 47.2896 47.465 47.2066 47.5703C47.0738 47.7487 46.9908 47.7649 46.1856 47.7811C45.7042 47.7973 44.9572 47.8298 43.737 47.9351L43.4299 47.6757C43.1975 47.4893 43.1145 47.3596 43.1145 47.1812C43.1145 46.9867 43.1809 46.8894 43.4714 46.7029C43.6623 46.5813 43.8532 46.4192 43.8864 46.3381C43.9196 46.2652 43.9445 44.7816 43.9445 43.0468C43.9445 39.9338 43.9528 39.8689 44.152 39.0907C44.3346 38.4097 44.3678 38.1341 44.3595 37.0073C44.3595 36.2939 44.3263 34.9644 44.2765 34.0483C44.2267 33.1322 44.1354 31.9811 44.069 31.4947C44.0026 31.0002 43.9445 30.3192 43.9445 29.3464L43.6042 29.3221C43.3635 29.314 43.2307 29.2572 43.1643 29.1437C43.1145 29.0546 43.0149 28.9411 42.9485 28.8843C42.8655 28.8195 42.8295 28.6654 42.8406 28.4222C42.8572 28.2196 42.9153 27.9683 42.9817 27.8548L43.1062 27.6602ZM61.3837 27.7007C61.8153 27.725 62.3714 27.7737 62.6287 27.8142C62.8777 27.8629 63.2679 27.9764 63.5003 28.0817C63.7244 28.179 64.0813 28.4303 64.2888 28.633C64.488 28.8357 65.0026 29.3464 65.4177 29.7598C66.0568 30.4084 66.2311 30.6516 66.5963 31.3731C66.8287 31.8433 67.0943 32.5161 67.1939 32.8728C67.2852 33.2295 67.4015 33.9429 67.4513 34.4536C67.5094 35.0211 67.526 36.1966 67.5011 37.4531C67.4596 39.2771 67.4264 39.642 67.2354 40.5337C67.1192 41.0931 66.9034 41.9362 66.7706 42.3982C66.6295 42.8684 66.3805 43.5818 66.2228 43.9791C66.0568 44.3844 65.7331 45.0735 65.509 45.5193C65.2101 46.103 64.9611 46.4597 64.6291 46.784C64.3635 47.0353 63.9319 47.3434 63.6248 47.4893C63.326 47.6271 62.8196 47.8054 62.5042 47.8784C62.1058 47.9676 61.7323 48 61.3422 47.9676C61.0184 47.9433 60.4623 47.8298 60.0971 47.7163C59.7319 47.6109 59.209 47.3758 58.935 47.2055C58.6611 47.0272 58.2129 46.6543 57.9473 46.3705C57.5821 45.9814 57.3331 45.6004 56.9762 44.8708C56.7188 44.3358 56.3868 43.5899 56.254 43.2089C56.1129 42.836 55.9552 42.3253 55.9137 42.074C55.8639 41.8308 55.7892 41.2471 55.7394 40.7769C55.6979 40.3148 55.6398 38.9448 55.6066 37.7369C55.5568 35.8966 55.5734 35.4102 55.6896 34.6563C55.7726 34.1699 55.8888 33.4403 55.9552 33.035C56.0133 32.6377 56.1046 32.1756 56.1544 32.0054C56.1959 31.8352 56.3204 31.6001 56.4283 31.4785C56.5362 31.3569 56.9347 30.7975 57.3082 30.2381C57.6817 29.6869 58.2212 28.9978 58.5034 28.7141C58.7856 28.4384 59.2007 28.1142 59.4331 28.0088C59.6572 27.8953 60.0141 27.7737 60.2216 27.7332C60.4208 27.6926 60.9437 27.6764 61.3837 27.7007ZM59.8232 30.1976C59.6323 30.5138 59.3252 31.1461 59.1426 31.6001C58.9516 32.0622 58.769 32.6864 58.7275 33.0187C58.686 33.343 58.6113 34.1375 58.5615 34.7779C58.5117 35.4264 58.4702 36.5776 58.4785 37.3315C58.4785 38.0936 58.5117 39.1474 58.5615 39.6825C58.603 40.2175 58.7192 41.2066 58.8105 41.8713C58.9018 42.5442 59.0928 43.4521 59.2256 43.898C59.3667 44.3439 59.5659 44.887 59.6655 45.1059C59.7651 45.3248 59.9145 45.5356 59.9892 45.568C60.0722 45.6085 60.1884 45.7706 60.2631 45.9247C60.3295 46.0949 60.4955 46.2652 60.6532 46.3462C60.8358 46.4435 61.1098 46.484 61.5082 46.4759C61.8236 46.4678 62.2718 46.403 62.5042 46.3381C62.7283 46.2652 63.0188 46.1111 63.135 45.9895C63.2596 45.8679 63.4754 45.4869 63.6165 45.1383C63.7576 44.7897 63.9983 44.0844 64.156 43.5575C64.3137 43.0306 64.5129 42.2929 64.6125 41.9118C64.7038 41.5389 64.82 40.712 64.8781 40.0878C64.9279 39.4636 64.9777 37.8423 64.9777 36.4803C64.986 34.7536 64.9611 33.9591 64.8947 33.8456C64.8366 33.7565 64.6789 33.2782 64.5378 32.7755C64.3884 32.2162 64.0813 31.446 63.7576 30.7894C63.409 30.0922 63.1184 29.6139 62.9192 29.4275C62.6785 29.2086 62.5208 29.1356 62.1805 29.0951C61.9481 29.0627 61.5248 29.0383 61.2426 29.0302C60.7611 29.0221 60.7196 29.0383 60.454 29.3302C60.2963 29.5004 60.0141 29.8895 59.8232 30.1976ZM78.275 27.7007C78.9556 27.725 79.5864 27.7818 79.6611 27.8223C79.7441 27.8548 79.8686 28.0088 79.9434 28.1547C80.0181 28.3006 80.0845 28.5276 80.0845 28.6573C80.0928 28.7951 80.0264 29.0059 79.9517 29.1275C79.8686 29.2491 79.7358 29.3464 79.6445 29.3464C79.5366 29.3464 79.437 29.4437 79.3623 29.6139C79.2959 29.7598 79.1963 30.1652 79.1382 30.5219C79.0552 31.0083 79.022 32.4026 79.022 36.0345C79.022 40.3959 79.0386 41.1012 79.2046 42.8036C79.3042 43.8575 79.4038 45.0897 79.4287 45.5437C79.4536 45.9976 79.5034 46.3705 79.5366 46.3705C79.5698 46.3705 79.7607 46.5003 79.9517 46.6543C80.3003 46.938 80.3086 46.9542 80.3086 47.4487C80.3086 47.8622 80.292 47.9351 80.209 47.8541C80.1177 47.773 80.0513 47.773 79.852 47.8703C79.6611 47.9676 79.271 47.9919 78.192 48C76.9469 48 76.7643 47.9838 76.6315 47.8541C76.5402 47.7649 76.4987 47.6514 76.5236 47.546C76.5485 47.4569 76.7145 47.238 76.8888 47.0596C77.0631 46.8813 77.3204 46.6462 77.7271 46.33L77.8268 45.114C77.8849 44.3358 77.9015 43.0873 77.8683 41.6281C77.8434 40.3797 77.7935 38.6124 77.7686 37.6963C77.7437 36.7884 77.7022 35.9534 77.6856 35.8561C77.6607 35.7102 77.5445 35.6453 77.171 35.5399C76.7726 35.4264 76.4572 35.4183 75.2453 35.4589C74.4402 35.4832 73.6101 35.5399 73.386 35.5724C73.0291 35.6291 72.9627 35.6697 72.7469 35.9939C72.6224 36.1966 72.4564 36.5776 72.3817 36.8451C72.2738 37.2505 72.2572 37.9233 72.2572 40.8012C72.2572 43.1927 72.2821 44.3195 72.3485 44.4492C72.3983 44.5465 72.4564 44.887 72.4813 45.1951C72.4979 45.5112 72.5477 45.876 72.5892 46.0057C72.639 46.1679 72.7552 46.2895 72.9212 46.3543C73.054 46.4111 73.2449 46.5732 73.3362 46.7191C73.4275 46.8651 73.5022 47.0272 73.5022 47.0839C73.5022 47.1407 73.4109 47.2785 73.2947 47.3839C73.1287 47.5541 73.0125 47.5866 72.6141 47.5866C72.3485 47.5866 71.7177 47.6352 71.2196 47.6838C70.5224 47.7487 70.1489 47.7487 69.6426 47.6757C69.2773 47.6271 68.9287 47.5379 68.8623 47.4812C68.8042 47.4325 68.7212 47.2623 68.6797 47.1002C68.6299 46.9218 68.6299 46.7272 68.688 46.557C68.7627 46.2976 68.7793 46.2895 69.6841 46.2895L69.6509 39.1799C69.6343 34.9806 69.5928 31.6001 69.5347 30.9272C69.4849 30.303 69.4101 29.7031 69.3686 29.5896C69.3105 29.4599 69.1943 29.3707 69.0117 29.3221C68.854 29.2896 68.605 29.1356 68.4556 28.9816C68.3062 28.8276 68.19 28.6492 68.19 28.5763C68.19 28.5114 68.2232 28.3817 68.273 28.2925C68.3477 28.1547 68.439 28.1304 69.1196 28.1304C69.543 28.1304 70.3896 28.0736 71.0121 28.0088C71.6264 27.9358 72.2821 27.9034 72.4647 27.9277C72.6473 27.9601 72.9793 28.0412 73.2034 28.1142C73.4275 28.1952 73.6766 28.3493 73.7679 28.4547C73.8592 28.5763 73.9173 28.7546 73.9007 28.9005C73.8841 29.0627 73.8066 29.1789 73.6683 29.2491C73.552 29.2978 73.2781 29.3464 73.0623 29.3464C72.7386 29.3464 72.6556 29.3788 72.5726 29.5329C72.5062 29.6707 72.5062 29.8571 72.5892 30.2787C72.6639 30.684 72.6722 31.0569 72.6224 31.5757C72.5809 31.9811 72.5477 32.6296 72.5477 33.0269C72.5477 33.6511 72.5643 33.7565 72.7137 33.8537C72.805 33.9105 73.1785 34.0078 73.5437 34.0645C73.909 34.1213 74.6892 34.1699 75.2868 34.1618C75.8762 34.1618 76.6066 34.1132 76.9054 34.0564C77.1959 34.0078 77.5196 33.9429 77.6109 33.9105C77.7687 33.87 77.7687 33.8294 77.7022 32.6377C77.669 31.9649 77.6026 31.1461 77.5611 30.8056C77.5196 30.4732 77.4366 30.0111 77.3785 29.7761C77.3038 29.4761 77.2208 29.3302 77.088 29.2734C76.9884 29.2248 76.7643 29.1843 76.59 29.1843C76.424 29.1843 76.1418 29.1518 75.6603 29.0221V28.0493L76.009 27.9277C76.2082 27.8629 76.5153 27.7737 76.6979 27.7332C76.8805 27.6926 77.586 27.6764 78.275 27.7007ZM88.4015 27.6602C89.5801 27.6521 90.2773 27.6845 90.8086 27.7737C91.2153 27.8385 91.7216 27.9764 91.9291 28.0736C92.1781 28.1952 92.3441 28.3493 92.4438 28.5357C92.5185 28.6979 92.6264 29.0951 92.6845 29.4275C92.7592 29.9139 92.7592 30.1327 92.6762 30.4813C92.6015 30.7894 92.4853 31.0083 92.2943 31.1947C92.1117 31.3812 91.9457 31.4541 91.7714 31.4541C91.5999 31.4541 91.4975 31.4082 91.4643 31.3163C91.4394 31.2353 91.3896 30.8299 91.3481 30.4003C91.3149 29.9787 91.2485 29.5572 91.1987 29.468C91.1572 29.3788 91.0576 29.2815 90.9829 29.2491C90.9082 29.2167 90.709 29.1843 90.5347 29.1843C90.3687 29.1843 89.854 29.2329 89.4058 29.2896C88.6505 29.3788 88.5758 29.4031 88.5011 29.5896C88.4596 29.7193 88.4513 30.1409 88.4928 30.684C88.526 31.1785 88.5592 34.9644 88.5592 39.0907C88.5592 43.9872 88.5924 46.6381 88.6505 46.6948C88.692 46.7435 88.8995 46.8164 89.107 46.8651C89.3062 46.9137 89.5635 47.0029 89.6631 47.0677C89.7793 47.1407 89.854 47.2623 89.854 47.3839C89.854 47.5298 89.771 47.6352 89.5801 47.7487C89.3311 47.9027 89.1651 47.9108 87.09 47.9108C84.8821 47.9108 84.8738 47.9108 84.741 47.7325C84.6746 47.6352 84.6248 47.4487 84.6414 47.319C84.658 47.1326 84.7244 47.0677 84.9983 46.9623C85.1809 46.8975 85.4631 46.8002 85.9362 46.6543L85.9445 39.7636C85.9445 35.8156 85.9113 32.3702 85.8615 31.6973C85.8117 31.0569 85.7204 30.2706 85.654 29.9544C85.5876 29.6463 85.5129 29.3707 85.488 29.3464C85.4548 29.3302 85.0232 29.2978 84.5086 29.2815C83.886 29.2572 83.4793 29.2815 83.2552 29.3545C83.0726 29.4112 82.7738 29.5896 82.5995 29.7517C82.4252 29.9058 82.2343 30.1084 82.1928 30.1976C82.143 30.2868 82.0766 30.6354 82.0517 30.9596C82.0185 31.4055 81.9687 31.5839 81.869 31.6487C81.7694 31.7136 81.6532 31.7136 81.4955 31.6568C81.3295 31.6001 81.2465 31.5028 81.205 31.292C81.1635 31.138 81.1137 30.5948 81.0805 30.076C81.0556 29.5653 81.0556 29.014 81.0805 28.8438C81.1303 28.5763 81.1884 28.5114 81.5536 28.3331C81.7777 28.2277 82.2343 28.0574 82.5663 27.9601C83.056 27.8223 83.5125 27.7818 84.9568 27.7332C85.9362 27.7007 87.4884 27.6683 88.4015 27.6602ZM102.911 27.6845L103.06 27.8872C103.16 28.025 103.276 28.4547 103.384 29.1437C103.533 30.0436 103.541 30.2381 103.45 30.4327C103.392 30.5624 103.243 30.7408 103.135 30.8218C103.018 30.911 102.803 30.9759 102.653 30.9759C102.479 30.9759 102.363 30.9191 102.313 30.8299C102.271 30.7489 102.222 30.4327 102.188 30.1165C102.164 29.8085 102.089 29.5004 102.031 29.4437C101.973 29.3788 101.748 29.241 101.533 29.1356C101.25 28.9978 101.001 28.9411 100.661 28.9492C100.404 28.9492 99.9058 28.9816 99.5655 29.0302C99.2169 29.0708 98.7604 29.1599 98.5445 29.2248C98.254 29.3221 98.1129 29.4194 98.005 29.6139C97.8805 29.849 97.8639 30.149 97.8639 32.3864C97.8639 33.7727 97.8805 35.2157 97.9054 35.5886C97.922 35.9696 97.9137 36.3993 97.8805 36.5452C97.8224 36.7965 97.839 36.8127 98.1295 36.9343C98.3204 37.0154 98.8185 37.0883 100.313 37.1694V36.8451C100.304 36.6668 100.346 36.4074 100.387 36.2614C100.437 36.1074 100.545 35.9777 100.645 35.9534C100.736 35.9372 100.894 35.9372 100.993 35.9696C101.101 35.9939 101.259 36.0831 101.35 36.1642C101.499 36.302 101.516 36.4155 101.516 37.9071C101.516 39.4069 101.508 39.5041 101.35 39.6095C101.201 39.7068 101.151 39.6987 100.935 39.5852C100.794 39.5122 100.603 39.3663 100.495 39.269C100.362 39.1312 100.313 38.9772 100.313 38.4259L98.1959 38.4665L98.088 38.9529C98.005 39.3096 97.9967 39.9176 98.0299 41.1822C98.0548 42.1469 98.1129 43.6791 98.1544 44.5871C98.2125 45.7544 98.2706 46.2652 98.337 46.3057C98.3951 46.3381 98.7604 46.4192 99.1505 46.484C99.5323 46.557 100.246 46.6381 100.728 46.6624C101.558 46.711 101.607 46.711 101.765 46.5327C101.89 46.3949 101.939 46.1841 101.989 45.6572C102.031 45.1545 102.089 44.9113 102.197 44.8059C102.288 44.7168 102.429 44.6681 102.587 44.6843C102.72 44.7006 102.886 44.7978 102.977 44.9113C103.06 45.0248 103.176 45.3329 103.226 45.6004C103.276 45.8679 103.301 46.2976 103.284 46.5489C103.259 46.9461 103.209 47.0596 102.487 47.9514L99.9224 47.9433C98.5196 47.9433 96.7849 47.8865 96.0793 47.8379C95.3655 47.7811 94.5106 47.6919 93.5477 47.546L93.5062 46.6948H95.2493L95.3074 46.0706C95.3406 45.722 95.3655 44.9681 95.3572 44.3844C95.3489 43.8088 95.324 40.1851 95.2493 29.3464H93.5062L93.4979 28.4952L94.2283 28.3574C94.6268 28.2844 95.6477 28.1304 96.4943 28.0169C97.3327 27.8953 98.1378 27.7737 98.2789 27.7332C98.4117 27.6926 99.5074 27.6683 102.911 27.6845ZM114.216 27.7007C114.896 27.725 115.527 27.7818 115.602 27.8223C115.685 27.8548 115.809 28.0088 115.884 28.1547C115.959 28.3006 116.025 28.5276 116.025 28.6573C116.033 28.7951 115.967 29.0059 115.892 29.1275C115.809 29.2491 115.677 29.3464 115.585 29.3464C115.477 29.3464 115.378 29.4437 115.303 29.6139C115.237 29.7598 115.137 30.1652 115.079 30.5219C114.996 31.0083 114.963 32.4026 114.963 36.0345C114.963 40.3959 114.979 41.1012 115.145 42.8036C115.245 43.8575 115.345 45.0897 115.369 45.5437C115.394 45.9976 115.444 46.3705 115.477 46.3705C115.511 46.3705 115.701 46.5003 115.892 46.6543C116.241 46.938 116.249 46.9542 116.249 47.4487C116.249 47.8622 116.233 47.9351 116.15 47.8541C116.058 47.773 115.992 47.773 115.793 47.8703C115.602 47.9676 115.212 47.9919 114.133 48C112.888 48 112.705 47.9838 112.572 47.8541C112.481 47.7649 112.439 47.6514 112.464 47.546C112.489 47.4569 112.655 47.238 112.83 47.0596C113.004 46.8813 113.261 46.6462 113.668 46.33L113.767 45.114C113.826 44.3358 113.842 43.0873 113.809 41.6281C113.784 40.3797 113.734 38.6124 113.709 37.6963C113.684 36.7884 113.643 35.9534 113.626 35.8561C113.601 35.7102 113.485 35.6453 113.112 35.5399C112.713 35.4264 112.398 35.4183 111.186 35.4589C110.381 35.4832 109.551 35.5399 109.327 35.5724C108.97 35.6291 108.903 35.6697 108.688 35.9939C108.563 36.1966 108.397 36.5776 108.322 36.8451C108.215 37.2505 108.198 37.9233 108.198 40.8012C108.198 43.1927 108.223 44.3195 108.289 44.4492C108.339 44.5465 108.397 44.887 108.422 45.1951C108.439 45.5112 108.488 45.876 108.53 46.0057C108.58 46.1679 108.696 46.2895 108.862 46.3543C108.995 46.4111 109.186 46.5732 109.277 46.7191C109.368 46.8651 109.443 47.0272 109.443 47.0839C109.443 47.1407 109.352 47.2785 109.235 47.3839C109.069 47.5541 108.953 47.5866 108.555 47.5866C108.289 47.5866 107.658 47.6352 107.16 47.6838C106.463 47.7487 106.09 47.7487 105.583 47.6757C105.218 47.6271 104.869 47.5379 104.803 47.4812C104.745 47.4325 104.662 47.2623 104.62 47.1002C104.571 46.9218 104.571 46.7272 104.629 46.557C104.703 46.2976 104.72 46.2895 105.625 46.2895L105.592 39.1799C105.575 34.9806 105.533 31.6001 105.475 30.9272C105.426 30.303 105.351 29.7031 105.309 29.5896C105.26 29.468 105.143 29.3707 104.994 29.3383C104.861 29.3059 104.645 29.2005 104.513 29.0951C104.38 28.9897 104.239 28.8195 104.197 28.7222C104.156 28.6168 104.164 28.4547 104.214 28.3331C104.288 28.1385 104.322 28.1304 105.06 28.1304C105.484 28.1304 106.33 28.0736 106.953 28.0088C107.567 27.9358 108.223 27.9034 108.405 27.9277C108.588 27.9601 108.92 28.0412 109.144 28.1142C109.368 28.1952 109.617 28.3493 109.709 28.4547C109.8 28.5763 109.858 28.7546 109.841 28.9005C109.825 29.0627 109.747 29.1789 109.609 29.2491C109.493 29.2978 109.219 29.3464 109.003 29.3464C108.679 29.3464 108.596 29.3788 108.513 29.5329C108.447 29.6707 108.447 29.8571 108.53 30.2787C108.605 30.684 108.613 31.0569 108.563 31.5757C108.522 31.9811 108.488 32.6296 108.488 33.0269C108.488 33.6511 108.505 33.7565 108.654 33.8537C108.746 33.9105 109.119 34.0078 109.484 34.0645C109.85 34.1213 110.63 34.1699 111.228 34.1618C111.817 34.1618 112.547 34.1132 112.846 34.0564C113.137 34.0078 113.46 33.9429 113.552 33.9105C113.709 33.87 113.709 33.8294 113.643 32.6377C113.61 31.9649 113.543 31.1461 113.502 30.8056C113.46 30.4732 113.377 30.0111 113.319 29.7761C113.245 29.4761 113.162 29.3302 113.029 29.2734C112.929 29.2248 112.705 29.1843 112.531 29.1843C112.365 29.1843 112.082 29.1518 111.601 29.0221V28.0493L111.95 27.9277C112.149 27.8629 112.456 27.7737 112.639 27.7332C112.821 27.6926 113.527 27.6764 114.216 27.7007ZM124.425 27.6602C125.604 27.6521 126.301 27.6845 126.832 27.7737C127.239 27.8385 127.745 27.9764 127.953 28.0736C128.202 28.1952 128.368 28.3493 128.467 28.5357C128.542 28.6979 128.65 29.0951 128.708 29.4275C128.783 29.9139 128.783 30.1327 128.7 30.4813C128.625 30.7894 128.509 31.0083 128.318 31.1947C128.135 31.3812 127.969 31.4541 127.795 31.4541C127.624 31.4541 127.521 31.4082 127.488 31.3163C127.463 31.2353 127.413 30.8299 127.372 30.4003C127.339 29.9787 127.272 29.5572 127.222 29.468C127.181 29.3788 127.081 29.2815 127.007 29.2491C126.932 29.2167 126.733 29.1843 126.558 29.1843C126.392 29.1843 125.878 29.2329 125.43 29.2896C124.674 29.3788 124.599 29.4031 124.525 29.5896C124.483 29.7193 124.475 30.1409 124.516 30.684C124.55 31.1785 124.583 34.9644 124.583 39.0907C124.583 43.9872 124.616 46.6381 124.674 46.6948C124.716 46.7435 124.923 46.8164 125.131 46.8651C125.33 46.9137 125.587 47.0029 125.687 47.0677C125.803 47.1407 125.878 47.2623 125.878 47.3839C125.878 47.5298 125.795 47.6352 125.604 47.7487C125.355 47.9027 125.189 47.9108 123.114 47.9108C120.906 47.9108 120.898 47.9108 120.765 47.7325C120.698 47.6352 120.649 47.4487 120.665 47.319C120.682 47.1326 120.748 47.0677 121.022 46.9623C121.205 46.8975 121.487 46.8002 121.96 46.6543L121.968 39.7636C121.968 35.8156 121.935 32.3702 121.885 31.6973C121.835 31.0569 121.744 30.2706 121.678 29.9544C121.611 29.6463 121.537 29.3707 121.512 29.3464C121.479 29.3302 121.047 29.2978 120.532 29.2815C119.91 29.2572 119.503 29.2815 119.279 29.3545C119.096 29.4112 118.798 29.5896 118.623 29.7517C118.449 29.9058 118.258 30.1084 118.216 30.1976C118.167 30.2868 118.1 30.6354 118.075 30.9596C118.042 31.4055 117.992 31.5839 117.893 31.6487C117.793 31.7136 117.677 31.7136 117.519 31.6568C117.353 31.6001 117.27 31.5028 117.22 31.292C117.187 31.138 117.137 30.5381 117.104 29.9544C117.079 29.2653 117.088 28.8276 117.154 28.6816C117.212 28.5276 117.37 28.406 117.635 28.2925C117.851 28.1952 118.291 28.0493 118.615 27.9601C119.071 27.8223 119.553 27.7818 120.981 27.7332C121.96 27.7007 123.512 27.6683 124.425 27.6602Z" fill="#315720"/>
<path fill-rule="evenodd" clip-rule="evenodd" d="M33.4873 20.823L33.6279 20.9096C33.7072 20.958 33.8117 21.0585 33.9559 21.2663L33.9667 22.4821C33.9739 23.2718 33.9667 23.7498 33.9415 23.8433C33.9198 23.9265 33.8477 24.0477 33.7865 24.117C33.7216 24.1863 33.6171 24.2694 33.5594 24.3006C33.4585 24.3525 32.2509 24.356 18.7989 24.356C10.7392 24.356 4.10334 24.3456 4.04566 24.3317C3.9916 24.3144 3.89788 24.2625 3.8366 24.2105C3.77172 24.1551 3.69242 24.0546 3.65638 23.9854C3.5915 23.8641 3.58789 23.7533 3.58789 22.5895C3.58789 21.779 3.60231 21.2906 3.62754 21.2282C3.64556 21.1763 3.70684 21.0897 3.76091 21.0342C3.81497 20.9788 3.92311 20.9061 4.00241 20.8715C4.14299 20.8091 4.59715 20.8056 33.4873 20.823ZM8.53688 24.7024C10.3247 24.7127 16.4199 24.7266 22.079 24.737C27.7381 24.7474 32.3735 24.7578 32.3735 24.7647C32.3771 24.7682 32.2942 25.8454 32.1861 27.1616C32.0815 28.4778 31.8689 31.0549 31.7211 32.8941C31.5697 34.7334 31.3174 37.7953 31.1588 39.7004C31.0002 41.6054 30.8308 43.6075 30.7803 44.1513C30.7335 44.6951 30.6686 45.2389 30.6433 45.3636C30.6145 45.4883 30.5604 45.6649 30.5244 45.7619C30.4883 45.8554 30.3946 46.046 30.3153 46.1776C30.2288 46.3334 30.0702 46.5205 29.8828 46.6971C29.7206 46.8495 29.5007 47.0262 29.3926 47.0851C29.2844 47.1474 29.0682 47.2513 28.9096 47.3206C28.751 47.3864 28.459 47.4834 27.9003 47.6323L18.9431 47.6427C12.4117 47.6497 9.88857 47.6427 9.62544 47.6116C9.4272 47.5908 9.12802 47.5354 8.95861 47.4903C8.7892 47.4453 8.49723 47.3345 8.3098 47.2444C8.02504 47.1093 7.91691 47.0331 7.66099 46.7872C7.49157 46.6244 7.30054 46.4027 7.23565 46.2988C7.17438 46.1949 7.06985 45.9698 7.00857 45.7966C6.94729 45.6234 6.87881 45.3532 6.86079 45.1904C6.84276 45.0276 6.4751 40.3585 6.04256 34.8165C5.61002 29.2745 5.26399 24.7266 5.2712 24.7127C5.27841 24.6989 6.74905 24.692 8.53688 24.7024ZM10.3103 27.3452C10.231 27.3833 10.1157 27.4664 10.0508 27.5322C9.98589 27.5946 9.9066 27.7089 9.87055 27.7851C9.81648 27.9029 9.80567 28.0483 9.79486 28.8242C9.79125 29.3195 9.79846 29.7352 9.81288 29.749C9.8273 29.7629 9.92462 29.6694 10.0255 29.5412C10.1265 29.413 10.3608 29.1463 10.5482 28.9489C10.7356 28.748 11.0492 28.4467 11.2475 28.2769C11.4457 28.1038 11.7377 27.8682 11.8963 27.7504C12.0549 27.6292 12.3072 27.4526 12.455 27.3556L12.7253 27.1789C11.2042 27.1824 10.8113 27.1997 10.6708 27.2309C10.5518 27.2551 10.3896 27.3071 10.3103 27.3452ZM24.8905 27.5461C25.078 27.6777 25.4024 27.9306 25.6114 28.1038C25.8205 28.2735 26.1449 28.5714 26.3359 28.7584C26.5234 28.9454 26.8117 29.2606 26.9739 29.4546L27.2695 29.8114C27.2695 28.3705 27.2551 27.9756 27.2299 27.889C27.2082 27.8128 27.1434 27.6846 27.0857 27.6015C27.01 27.4976 26.9199 27.4283 26.7577 27.3521C26.6315 27.2967 26.4405 27.2344 26.3323 27.2136C26.2242 27.1928 25.7376 27.1789 25.251 27.1789C24.4075 27.1824 24.3715 27.1859 24.458 27.2413C24.5049 27.2725 24.6995 27.411 24.8905 27.5461ZM17.0147 28.5817C16.7768 28.6337 16.3983 28.7376 16.1784 28.8104C15.955 28.8866 15.5873 29.0286 15.3674 29.129C15.1439 29.2329 14.8051 29.4061 14.6177 29.5204C14.4303 29.6313 14.1131 29.8391 13.9148 29.9811C13.7166 30.1231 13.3958 30.3898 13.1975 30.5699C13.0029 30.7535 12.7433 31.0202 12.6172 31.1622C12.4946 31.3043 12.3144 31.5294 12.2171 31.6645C12.1162 31.7996 11.9504 32.0455 11.8422 32.2187C11.7341 32.3919 11.5683 32.6932 11.471 32.8941C11.3736 33.095 11.2222 33.4622 11.1357 33.7081C11.0492 33.954 10.9411 34.3523 10.8906 34.5913C10.8402 34.8303 10.7825 35.1767 10.7645 35.3603C10.7428 35.5473 10.7248 35.918 10.7248 36.1847C10.7248 36.4514 10.7428 36.822 10.7645 37.0056C10.7825 37.1926 10.8402 37.539 10.8906 37.778C10.9411 38.017 11.0492 38.398 11.1249 38.6266C11.2042 38.8552 11.388 39.2743 11.5358 39.5618C11.68 39.8458 11.9107 40.2442 12.0477 40.4451C12.1846 40.646 12.4009 40.9335 12.5307 41.0824C12.6568 41.2348 12.9019 41.4946 13.0786 41.6643C13.2516 41.8306 13.5508 42.0904 13.7454 42.2358C13.9364 42.3848 14.25 42.603 14.4375 42.7208C14.6249 42.8351 14.9745 43.0256 15.2124 43.1399C15.4503 43.2542 15.8072 43.4066 16.0054 43.4759C16.2037 43.5486 16.5785 43.656 16.8345 43.7183C17.094 43.7807 17.5013 43.8569 17.7464 43.888C18.0023 43.9192 18.4493 43.9435 18.8169 43.9435C19.1846 43.9435 19.6316 43.9192 19.8911 43.888C20.1326 43.8569 20.5435 43.7807 20.7994 43.7183C21.0589 43.656 21.4302 43.5486 21.6285 43.4759C21.8267 43.4031 22.1367 43.2784 22.3133 43.1988C22.4935 43.1156 22.7927 42.9598 22.9802 42.8489C23.1676 42.7415 23.51 42.5164 23.7371 42.3536C23.9642 42.1908 24.321 41.8929 24.5301 41.692C24.7392 41.4911 25.0167 41.1967 25.1465 41.0339C25.2798 40.8711 25.4925 40.5836 25.6223 40.3931C25.752 40.2026 25.9539 39.8597 26.0728 39.6311C26.1918 39.4025 26.3504 39.0596 26.4225 38.8691C26.4945 38.6786 26.5955 38.3841 26.6423 38.211C26.6892 38.0378 26.7649 37.7053 26.8081 37.4663C26.8802 37.0922 26.891 36.9121 26.891 36.1674C26.891 35.4088 26.8802 35.246 26.8045 34.8511C26.7577 34.6052 26.6748 34.2415 26.6171 34.0441C26.5594 33.8501 26.4477 33.5349 26.3684 33.3444C26.2891 33.1539 26.1557 32.8699 26.0764 32.7105C25.9935 32.5547 25.8457 32.2949 25.7448 32.1321C25.6403 31.9693 25.4384 31.6818 25.2906 31.4913C25.1429 31.3008 24.8653 30.9891 24.6779 30.802C24.4868 30.615 24.1877 30.3413 24.0074 30.1993C23.8308 30.0538 23.4884 29.8148 23.2505 29.6624C23.0126 29.51 22.6089 29.2884 22.3494 29.1671C22.0934 29.0459 21.6609 28.8796 21.3942 28.793C21.1274 28.7064 20.7057 28.5991 20.457 28.5506C20.2083 28.5021 19.837 28.4467 19.628 28.4259C19.4189 28.4086 19.0224 28.3912 18.7449 28.3947C18.4673 28.3982 18.0636 28.419 17.8437 28.4432C17.6275 28.4709 17.2526 28.5333 17.0147 28.5817ZM27.0316 42.3363C26.9091 42.4887 26.6748 42.7519 26.509 42.9286C26.3432 43.1018 26.062 43.3754 25.8818 43.5313C25.7052 43.6871 25.4132 43.9296 25.233 44.0647C25.0563 44.2032 24.786 44.3972 24.6382 44.4942L24.3679 44.6708C25.9322 44.6708 26.3071 44.6535 26.4405 44.6258C26.5486 44.6016 26.7144 44.5392 26.8117 44.4838C26.9055 44.4318 27.0316 44.3245 27.0893 44.2448C27.1506 44.1651 27.2154 44.0197 27.2371 43.9261C27.2587 43.8257 27.2695 43.4031 27.2623 42.9078L27.2515 42.0661L27.0316 42.3363ZM9.79486 43.1503C9.80567 43.9573 9.81288 44.0404 9.88136 44.1825C9.92462 44.2691 10.0039 44.3834 10.0616 44.4388C10.1193 44.4942 10.249 44.5773 10.3463 44.6224C10.4473 44.6639 10.6167 44.7159 10.7248 44.7367C10.833 44.7574 11.3232 44.7748 11.817 44.7713H12.7073C12.3036 44.5046 12.0297 44.3106 11.8422 44.1651C11.6548 44.0197 11.3376 43.7599 11.1429 43.5832C10.9447 43.41 10.6455 43.1191 10.4797 42.9355C10.3103 42.7554 10.0976 42.5095 10.0039 42.3882C9.87776 42.222 9.8309 42.1804 9.81288 42.2185C9.79846 42.2497 9.79125 42.6688 9.79486 43.1503ZM14.9962 29.8807C15.0646 29.8807 15.317 29.9915 15.663 30.1716C15.9694 30.3344 18.4529 31.6541 21.1779 33.1089C25.4024 35.3603 26.1449 35.7656 26.2134 35.8695C26.2675 35.9457 26.2999 36.0427 26.2999 36.1292C26.2999 36.2158 26.2675 36.3128 26.2134 36.389C26.1449 36.4929 25.4204 36.8913 21.3401 39.0665C18.7016 40.4728 16.2397 41.7855 15.8612 41.9864C15.4359 42.2116 15.1223 42.3571 15.0322 42.3675C14.9313 42.3813 14.8484 42.3675 14.7619 42.3224C14.6934 42.2878 14.5997 42.2081 14.4699 42.0176V30.2409L14.5528 30.1197C14.5997 30.0538 14.6934 29.9707 14.7619 29.9395C14.8304 29.9049 14.9385 29.8772 14.9962 29.8807Z" fill="#315720"/>
</svg>
