<svg width="350" height="109" viewBox="0 0 350 109" fill="none" xmlns="http://www.w3.org/2000/svg">
<g filter="url(#filter0_ii_854_2753)">
<path fill-rule="evenodd" clip-rule="evenodd" d="M12 700C5.37258 700 0 694.627 0 688L0 118.072C0 112.832 4.2479 108.584 9.48795 108.584C11.2346 108.584 12.6506 107.168 12.6506 105.422C12.6506 103.675 11.2346 102.259 9.48795 102.259C4.2479 102.259 0 98.0112 0 92.7711L0 12.0001C0 5.37262 5.37258 6.10352e-05 12 6.10352e-05L122.908 0C129.536 0 134.71 5.55908 137.171 11.7125C142.631 25.3615 157.363 35.1406 174.681 35.1406C191.999 35.1406 206.731 25.3615 212.191 11.7125C214.652 5.55908 219.826 0 226.454 0L337.999 6.10352e-05C344.627 6.10352e-05 349.999 5.37262 349.999 12.0001V90.2591C349.999 96.8865 344.627 102.259 337.999 102.259H335.241C333.494 102.259 332.078 103.675 332.078 105.422C332.078 107.168 333.494 108.584 335.241 108.584H337.999C344.627 108.584 349.999 113.957 349.999 120.584L349.999 688C349.999 694.627 344.627 700 337.999 700H222.578C216.748 700 211.954 695.652 209.185 690.523C202.793 678.682 188.946 670.482 172.892 670.482C156.839 670.482 142.991 678.682 136.6 690.523C133.831 695.652 129.036 700 123.207 700H12ZM22.1386 105.422C22.1386 107.168 23.5545 108.584 25.3012 108.584H40.0602C41.8069 108.584 43.2229 107.168 43.2229 105.422C43.2229 103.675 41.8069 102.259 40.0602 102.259H25.3012C23.5545 102.259 22.1386 103.675 22.1386 105.422ZM55.8735 108.584C54.1268 108.584 52.7108 107.168 52.7108 105.422C52.7108 103.675 54.1268 102.259 55.8735 102.259H70.6325C72.3792 102.259 73.7952 103.675 73.7952 105.422C73.7952 107.168 72.3792 108.584 70.6325 108.584H55.8735ZM83.2831 105.422C83.2831 107.168 84.6991 108.584 86.4458 108.584H101.205C102.952 108.584 104.367 107.168 104.367 105.422C104.367 103.675 102.952 102.259 101.205 102.259H86.4458C84.6991 102.259 83.2831 103.675 83.2831 105.422ZM117.018 108.584C115.271 108.584 113.855 107.168 113.855 105.422C113.855 103.675 115.271 102.259 117.018 102.259H131.777C133.524 102.259 134.94 103.675 134.94 105.422C134.94 107.168 133.524 108.584 131.777 108.584H117.018ZM144.428 105.422C144.428 107.168 145.844 108.584 147.59 108.584H162.349C164.096 108.584 165.512 107.168 165.512 105.422C165.512 103.675 164.096 102.259 162.349 102.259H147.59C145.844 102.259 144.428 103.675 144.428 105.422ZM178.163 108.584C176.416 108.584 175 107.168 175 105.422C175 103.675 176.416 102.259 178.163 102.259H192.922C194.668 102.259 196.084 103.675 196.084 105.422C196.084 107.168 194.668 108.584 192.922 108.584H178.163ZM205.572 105.422C205.572 107.168 206.988 108.584 208.735 108.584H223.494C225.241 108.584 226.657 107.168 226.657 105.422C226.657 103.675 225.241 102.259 223.494 102.259H208.735C206.988 102.259 205.572 103.675 205.572 105.422ZM239.307 108.584C237.561 108.584 236.145 107.168 236.145 105.422C236.145 103.675 237.561 102.259 239.307 102.259H254.066C255.813 102.259 257.229 103.675 257.229 105.422C257.229 107.168 255.813 108.584 254.066 108.584H239.307ZM266.717 105.422C266.717 107.168 268.133 108.584 269.88 108.584H284.639C286.385 108.584 287.801 107.168 287.801 105.422C287.801 103.675 286.385 102.259 284.639 102.259H269.88C268.133 102.259 266.717 103.675 266.717 105.422ZM300.452 108.584C298.705 108.584 297.289 107.168 297.289 105.422C297.289 103.675 298.705 102.259 300.452 102.259H315.211C316.958 102.259 318.374 103.675 318.374 105.422C318.374 107.168 316.958 108.584 315.211 108.584H300.452Z" fill="#D0E6F1"/>
</g>
<defs>
<filter id="filter0_ii_854_2753" x="-0.605839" y="-0.605839" width="351.818" height="704.241" filterUnits="userSpaceOnUse" color-interpolation-filters="sRGB">
<feFlood flood-opacity="0" result="BackgroundImageFix"/>
<feBlend mode="normal" in="SourceGraphic" in2="BackgroundImageFix" result="shape"/>
<feColorMatrix in="SourceAlpha" type="matrix" values="0 0 0 0 0 0 0 0 0 0 0 0 0 0 0 0 0 0 127 0" result="hardAlpha"/>
<feOffset dx="1.21168" dy="3.63504"/>
<feGaussianBlur stdDeviation="4.02883"/>
<feComposite in2="hardAlpha" operator="arithmetic" k2="-1" k3="1"/>
<feColorMatrix type="matrix" values="0 0 0 0 1 0 0 0 0 1 0 0 0 0 1 0 0 0 0.1 0"/>
<feBlend mode="normal" in2="shape" result="effect1_innerShadow_854_2753"/>
<feColorMatrix in="SourceAlpha" type="matrix" values="0 0 0 0 0 0 0 0 0 0 0 0 0 0 0 0 0 0 127 0" result="hardAlpha"/>
<feOffset dx="-0.605839" dy="-0.605839"/>
<feGaussianBlur stdDeviation="3.63504"/>
<feComposite in2="hardAlpha" operator="arithmetic" k2="-1" k3="1"/>
<feColorMatrix type="matrix" values="0 0 0 0 1 0 0 0 0 1 0 0 0 0 1 0 0 0 1 0"/>
<feBlend mode="normal" in2="effect1_innerShadow_854_2753" result="effect2_innerShadow_854_2753"/>
</filter>
</defs>
</svg>
