<?xml version="1.0" encoding="utf-8"?>
<!-- Generator: Adobe Illustrator 24.1.2, SVG Export Plug-In . SVG Version: 6.00 Build 0)  -->
<svg version="1.1" id="Слой_1" xmlns="http://www.w3.org/2000/svg" xmlns:xlink="http://www.w3.org/1999/xlink" x="0px" y="0px"
	 viewBox="0 0 170.7 548" style="enable-background:new 0 0 170.7 548;" xml:space="preserve">
<style type="text/css">
	.st0{fill-rule:evenodd;clip-rule:evenodd;fill:#D0E6F1;}
	.st1{fill:#315720;}
</style>
<g>
	<path class="st0" d="M5,35.9c2.7,0,5,2.2,5,5v25c0,2.7-2.2,5-5,5c-2.7,0-5-2.2-5-5v23.9c0-2.7,2.2-5,5-5c2.7,0,5,2.2,5,5v25
		c0,2.7-2.2,5-5,5c-2.7,0-5-2.2-5-5v23.9c0-2.7,2.2-5,5-5c2.7,0,5,2.2,5,5v25c0,2.7-2.2,5-5,5c-2.7,0-5-2.2-5-5v23.9
		c0-2.7,2.2-5,5-5c2.7,0,5,2.2,5,5v25c0,2.7-2.2,5-5,5c-2.7,0-5-2.2-5-5v23.9c0-2.7,2.2-5,5-5c2.7,0,5,2.2,5,5v25c0,2.7-2.2,5-5,5
		c-2.7,0-5-2.2-5-5v23.9c0-2.7,2.2-5,5-5c2.7,0,5,2.2,5,5v25c0,2.7-2.2,5-5,5c-2.7,0-5-2.2-5-5v23.9c0-2.7,2.2-5,5-5
		c2.7,0,5,2.2,5,5v25c0,2.7-2.2,5-5,5c-2.7,0-5-2.2-5-5v23.9c0-2.7,2.2-5,5-5c2.7,0,5,2.2,5,5v25c0,2.7-2.2,5-5,5c-2.7,0-5-2.2-5-5
		v23.9c0-2.7,2.2-5,5-5c2.7,0,5,2.2,5,5v25c0,2.7-2.2,5-5,5c-2.7,0-5-2.2-5-5v23.9c0-2.7,2.2-5,5-5c2.7,0,5,2.2,5,5v25
		c0,2.7-2.2,5-5,5c-2.7,0-5-2.2-5-5V529c0-2.7,2.2-5,5-5c2.7,0,5,2.2,5,5c0,10.5,8.5,19,19,19h121.8c11.1,0,20-9,20-20V355.8
		c0-11-9.3-19.7-19.5-24c-20.8-8.9-35.6-31.6-35.6-58.3c0-26.6,14.8-49.4,35.6-58.3c10.2-4.3,19.5-13,19.5-24V20c0-11-8.9-20-20-20
		H26.9c-9.4,0-17,7.6-17,17c0,2.7-2.2,5-5,5c-2.7,0-5-2.2-5-5v23.9C0,38.1,2.2,35.9,5,35.9z"/>
	<path class="st1" d="M77.9,161.6c-1,0-1,1-2,2.9c-2,2-5.9,3.9-10.8,3.9c-6.9,1-14.7-1.9-17.7-6.8c-1-2-1-3.9-1-6.9c0-2,1-3.9,1-5.9
		s0-2.9,2-2.9h1c0,1,0,2,0,2.9c4.9,1,10.8,0,16.7,1H69c2,0,3,0,4.9,0h9.8c2.9,0,5.8,0,7.8,0c0-2,0-3.9,2-3.9c1,1,1,2.9,1,4.9
		c0,4.9,0,9.8-2,11.8c-2,1-2.9,2-5.9,2C83.8,165.5,79.8,163.6,77.9,161.6z M91.6,155.7c-1-1-2-1-3.9-1c-2.9,0-4.9,0-6.9,1
		c-1,1,1,2,2,2.9c2.9,1,5.9,2,7.8,1C91.6,158.7,91.6,156.7,91.6,155.7z M51.4,159.7l2,2c1,1,2.9,1,3.9,1c1,1,1,1,2,1
		c2,1,5.9,0,7.9,0c1.9,0,2.2,0.3,4.1-0.7c0,0,0.2,0.1,1,0c0,0,0.8-0.4,1.8-0.8c2-2,2.9-4.4,2.9-6.3c-1-1-3-1-3.9-1H57.3
		c-1.9,0-4.9,0-6.8,0C50.5,156.7,50.5,158.7,51.4,159.7z M50.7,188c6.1,0,13.2,0,18.3-1.1c0-1.9,1-5,1-8c-1-1.1-3-1.1-5.2-1.1
		c-4-1.1-8.9-1.1-14.2-1.1c-0.9,1.1,0,2.2-0.9,3.1c-1.1,0-2-0.1-2-0.1c-2.1-3.1,0.1-6-1.1-8.9l2-2.1c1.1,1,2,2.1,2,3
		c0,1.1,1,1.1,2.1,1.1c6.2,1,15.2,2,22.3,3c3,0,6,1,8.1,2.1c4.1,1.1,7.2,3,10.1,5c0,0,2.2,2.1,1.1,4c-1.1,2.2-5,4.2-7.1,4.2
		c-1.9,1-3.8,1.3-5.4,1.5c-8,1-16.9,1.4-26,2.4h-6.1c-0.9,0-2,2.1-3,0l0.3-1.2c0-2-0.3-3.7-0.3-5.8c-0.1-1.1-0.5-2.7,0.4-2.7
		C48,185.3,50.7,186.9,50.7,188z M88.2,182.9c-3-1-6.1-2-10.2-3c-0.9,0-4-0.9-5.1-0.9c-0.9,3-0.9,6-0.9,8H78c3,0,7.2-0.9,10.2-1.9
		c0,0,1,0,1-1.1L88.2,182.9z M92.6,235.9c-1.9-1-6.1-1-8-1H70.5l-4.6-0.4l-4.5,0.4H49.8c0,1.9-2.9,2.9-2.9,1V220v-2.9
		c0-1.2-0.4-2.7-0.1-3.7c-0.2-4.4,0.1-8.6-0.5-12.1c1-1.1,1-1.8,2.9-1.3c1,0.2,2.1,0.3,4.1,0.3c5,0.5,10.5,0.1,15.4,0.1l2.5,0.4
		c3,0,6,0.4,8.9,0.4c3.1,0,7-0.4,10-1.4c1,0,1-1,1.9-2h2v1.1c0,2.9,0.8,6.1,0.4,9.2c-0.1,1-0.2,0.8-1.3,0.8c-2-1-2-1.9-3-1.9
		c-3.8,0-7.6-0.1-11.4-0.2c-1.7,0-3.5,0.1-5.2,0.1c-2.1,0-4.1-0.4-6.1-0.4c-5.2-0.1-10.5,0-16.2,0.3c-1,0-0.9,0-1,1.1
		c-0.1,1,0,1,0,1.9c0,0-0.1,4.1,0,5.4c5.3,0.6,10.5-0.2,15-0.2h2.9h9.6h2.8h10.7c0.9-1,0.9-1.9,1.9-1.9c0.9,0,1.4,0,1.6,0.9
		c0.5,2.7,0.7,7.6-0.7,8.1c-2.1,0.6-1.8-2-3.7-2c-1.4,0-3,0-4,0H83l-6.2,0.4c-3.1,0-6.2-0.8-9.4-0.6c-1.5,0.1-3.1,0.6-4.7,0.7
		c-4.3,0.2-8.6,0.5-12.9,0.5v7.7c1.9,0.9,3.8,0,6.7,0h9.7c2.2,0,4.4,0.5,6.7,0.5c2.8,0,5.6-0.6,8.3-0.7c4,0.4,8-0.4,11.4-0.8v-0.9
		c0-1,1.9-1,1.9-1c-0.1,4.2,1.3,7.9,0,12.1C92.6,237.9,93.5,235.9,92.6,235.9z M64.2,287.4c-6.9,1-13.8-2.9-16.8-7.8
		c-1-2-1-3.9-1-6.9c0-2,1-3.9,1-5.9c0-2,0-2.9,2-2.9h1v2.9c4.9,1,10.8,0,16.7,1h24.5c0-2,0-3.9,2-3.9c1,1,1,2.9,1,4.9
		c0,1.2,0,2.3-0.1,3.4h-0.1v9.2c0,1-1,1.9-1.9,1.9h-4.9v-1.9c1-1,2.9-1,3.9-1v-7l-0.2,0.1c-0.9-0.7-1.9-0.7-3.7-0.7h-8.8
		c-0.1,0.6,0.1,1.4,0,2.2c-0.1,1.5-0.5,2.7-1.3,4.2c-0.6,1.2-1.4,2.7-3.1,4.4c-1.5,1.5-4.3,3.1-7.8,3.6
		C66.3,287.3,64.8,287.4,64.2,287.4z M59.2,281.5c0.8,0.4,2,0.5,3.3,0.4c1.3-0.1,2.4-0.2,3.3-0.3l1.4-0.2c1.3-0.2,2.6-0.8,3.5-1.1
		c0,0,0.3-0.4,1.3-0.8c2-2,3.1-3.8,3.1-5.8c-1-1-3-1-3.9-1h-5.6v0H50.5c0,1.9,0,3.9,1,4.9l2,2c1,1,2.7,1.3,3.6,1.3
		C57.9,281.4,58.3,281.5,59.2,281.5z M50.7,317.8c-1,1-1,2-2,2h-1.4c0,0-0.2-0.3-0.3-1c-0.3-1-0.2-1.5-0.2-1.5c0-1,0.1-1.9,0.1-5.3
		c0-1-0.1-1.4-0.1-2.3c1-1,1.1-0.6,2,0.4c1,0,1,1.9,2,1.9c7.8,1,16.6,0,24.4,0H80c1.7,0,4.1,0,6.4-0.2l-9.6-3.6c0,0-0.7-0.2-1.5-0.6
		c-1.3-0.6-3.9-1.8-5.7-2.3c-6.4-1.8-9.9-3.9-15.7-5.8c-0.1-0.1-5.2-2-5.3-2.2c-4-1.8-2.2-4.4,2-4.4h3.9c7.8,0,11.8,1.2,18.7,0.4H79
		h1h2.9h1c2-1,4.9,0,6.9-1c0,0,0-1,1-2c0,0,1-1,2,0v3.9c0,2.4,1,3.5,0,5.4c0,1-1,2-2,2c-1,0-1-2-1-2.9c-1-1-9.7-0.1-11.6-0.1
		c-2.5,0-13.6-0.3-9.9-0.3l-9.3-0.1c1.7,0.7,4.1,1.3,4.8,1.6c1.3,0.5,2,1,3,1c2.4,1,3.8,1.8,6.7,2.7c2.1,0.9,13.4,5.2,17.8,6.9
		c1.3,0,2.6,0.9,2.5,2.4c-0.2,3.3,0,3.8,0,4.8c-1,2-3.9,2-3.9,0c-2-1-4.9-1-7.9-1h-8.7h-7.8C61.4,316.8,55.5,317.8,50.7,317.8z
		 M49.7,324.2c1.9,1,3.5,0.7,5.8,1c6,0.8,12.6,2.7,18.1,4c6.3,1.4,13.1,2.4,19.6,2.8l1,1c1,3,0.9,5-2,5.9c-13,1.4-29.1,4.6-42.5,6.6
		c0,1,0,2-2,3c0,0-0.8,0-1-1c-0.6-2.6,1-6.9,0-9.8c2-1,3,0,3.9,1c10.1-2.4,18-1.4,27.9-2.7c1.2-0.5,1.9-1,1.9-2
		c-10.8-1.3-19.9-5.2-30.7-6.2c0,1-1,1-1,2h-1c0,0-1,0-1-1c0-2.3,0.3-4.8,0-6.5c0,0,1-0.5,2-0.5C49.7,321.7,49.7,322.2,49.7,324.2z
		 M86.9,371c1-1,3,0,3.9-1c0.5-1,0.5-1,1-2c0-2,0-4.8-1-6.8c-0.9-1-2.4-0.9-4.6-0.9c-2.7,0-4.2-0.1-6.1-0.1c-3,0-4.9,1-6.9,0
		c-0.9,1-0.9,3.9-0.9,5.9c0.9,0,2.9,0,2.9,1c0,1,0,1-1,2c-1.9-1-7.9,1-7.9-1c0,0,1-2,2-2h1c0-0.9,0-3.9,0-4.8c-3-1-7.1-0.3-9.9-0.3
		c-3,0-6.8,0.3-8.7,0.3c-1,2.9-1,4.8-1,7.8c1,2,3.9,0,4.8,2c0,2-2.9,2-4.8,2c-1,0-2-1-3-2v-4.9c0-4.8,0-9.8,1-15.6h2c0,1,0,3,0,3.9
		c5.8,1,10.7,0,16.6,0h2c3,0,5.9,0,9.8,0H82c2.9,0,5.9,0,8.8,0v-3.9h2c1,3.9,1,7.8,2,11.8v9.8c0,0-1,1-2,1
		C90.8,373,86.9,374.9,86.9,371z M85.6,399.5c1-1,3,0,5-1c1-1,0-4,0-6c-2.1-1-5,0-7.1,0H64.7c-3,0-6.1,0-8.1,0h-2c-2,0-3.7-0.5-5,0
		c-0.9,0.4,0,3-2,3c0,0-1-1-1-2v-9c0-1,1-1,2-1c0,1,1,2,1,3c4,0,8.8,0.1,12,0c4.1-0.1,7.9,0,12,0h5c1,0,2,0,2,0c4,0,7,0,10-1
		c1-4,0-8.9-5-8c0,0-1-1,0-2c2,0,5-1,7,0c1,2,1.7,3.8,1.7,6.8c0,3,0.2,7.1,0.2,10.2c0,3.1,0,8-2,8.9
		C89.7,402.5,85.6,402.5,85.6,399.5z"/>
</g>
</svg>
